<svg width="35" height="35" viewBox="0 0 35 35" fill="none" xmlns="http://www.w3.org/2000/svg">
<rect width="35" height="35" rx="17.5" fill="#9B9B9B"/>
<path d="M14.1237 17.7904C14.0412 17.7079 14 17.6102 14 17.4974C14 17.3845 14.0412 17.2869 14.1237 17.2044L18.9544 12.3737C19.0369 12.2912 19.1345 12.25 19.2474 12.25C19.3602 12.25 19.4579 12.2912 19.5404 12.3737L20.6211 13.4544C20.7036 13.5369 20.7448 13.6345 20.7448 13.7474C20.7448 13.8602 20.7036 13.9579 20.6211 14.0404L17.1641 17.4974L20.6211 20.9544C20.7036 21.0369 20.7448 21.1345 20.7448 21.2474C20.7448 21.3602 20.7036 21.4579 20.6211 21.5404L19.5404 22.6211C19.4579 22.7036 19.3602 22.7448 19.2474 22.7448C19.1345 22.7448 19.0369 22.7036 18.9544 22.6211L14.1237 17.7904Z" fill="white"/>
</svg>
