<svg width="36" height="35" viewBox="0 0 36 35" fill="none" xmlns="http://www.w3.org/2000/svg">
<rect x="0.917969" width="35" height="35" rx="17.5" fill="#7373D7"/>
<path d="M21.5391 17.2044C21.6215 17.2869 21.6628 17.3845 21.6628 17.4974C21.6628 17.6102 21.6215 17.7079 21.5391 17.7904L16.7083 22.6211C16.6259 22.7036 16.5282 22.7448 16.4154 22.7448C16.3025 22.7448 16.2049 22.7036 16.1224 22.6211L15.0417 21.5404C14.9592 21.4579 14.918 21.3602 14.918 21.2474C14.918 21.1345 14.9592 21.0369 15.0417 20.9544L18.4987 17.4974L15.0417 14.0404C14.9592 13.9579 14.918 13.8602 14.918 13.7474C14.918 13.6345 14.9592 13.5369 15.0417 13.4544L16.1224 12.3737C16.2049 12.2912 16.3025 12.25 16.4154 12.25C16.5282 12.25 16.6259 12.2912 16.7083 12.3737L21.5391 17.2044Z" fill="white"/>
</svg>
