<svg width="129" height="22" viewBox="0 0 129 22" fill="none" xmlns="http://www.w3.org/2000/svg">
<path opacity="0.5" d="M1.624 16C1.53067 16 1.456 15.972 1.4 15.916C1.344 15.86 1.316 15.7853 1.316 15.692V6.522C1.316 6.41933 1.344 6.34 1.4 6.284C1.456 6.228 1.53067 6.2 1.624 6.2H1.876C1.97867 6.2 2.058 6.228 2.114 6.284C2.17 6.34 2.198 6.41933 2.198 6.522V10.61H7.602V6.522C7.602 6.41933 7.63 6.34 7.686 6.284C7.742 6.228 7.81667 6.2 7.91 6.2H8.162C8.26467 6.2 8.344 6.228 8.4 6.284C8.456 6.34 8.484 6.41933 8.484 6.522V15.692C8.484 15.7853 8.456 15.86 8.4 15.916C8.344 15.972 8.26467 16 8.162 16H7.91C7.81667 16 7.742 15.972 7.686 15.916C7.63 15.86 7.602 15.7853 7.602 15.692V11.45H2.198V15.692C2.198 15.7853 2.17 15.86 2.114 15.916C2.058 15.972 1.97867 16 1.876 16H1.624ZM13.7087 16.14C13.0367 16.14 12.4721 16 12.0147 15.72C11.5667 15.44 11.2214 15.0573 10.9787 14.572C10.7454 14.0867 10.6194 13.5453 10.6007 12.948C10.5914 12.808 10.5867 12.612 10.5867 12.36C10.5867 12.108 10.5914 11.912 10.6007 11.772C10.6194 11.1653 10.7454 10.624 10.9787 10.148C11.2214 9.66267 11.5667 9.28 12.0147 9C12.4721 8.72 13.0367 8.58 13.7087 8.58C14.3807 8.58 14.9407 8.72 15.3887 9C15.8461 9.28 16.1914 9.66267 16.4247 10.148C16.6674 10.624 16.7981 11.1653 16.8167 11.772C16.8261 11.912 16.8307 12.108 16.8307 12.36C16.8307 12.612 16.8261 12.808 16.8167 12.948C16.7981 13.5453 16.6674 14.0867 16.4247 14.572C16.1914 15.0573 15.8461 15.44 15.3887 15.72C14.9407 16 14.3807 16.14 13.7087 16.14ZM13.7087 15.328C14.3621 15.328 14.8941 15.118 15.3047 14.698C15.7154 14.278 15.9347 13.6713 15.9627 12.878C15.9721 12.738 15.9767 12.5653 15.9767 12.36C15.9767 12.1547 15.9721 11.982 15.9627 11.842C15.9347 11.0393 15.7154 10.4327 15.3047 10.022C14.8941 9.602 14.3621 9.392 13.7087 9.392C13.0554 9.392 12.5234 9.602 12.1127 10.022C11.7021 10.4327 11.4827 11.0393 11.4547 11.842C11.4454 11.982 11.4407 12.1547 11.4407 12.36C11.4407 12.5653 11.4454 12.738 11.4547 12.878C11.4827 13.6713 11.7021 14.278 12.1127 14.698C12.5234 15.118 13.0554 15.328 13.7087 15.328ZM19.0514 16C18.958 16 18.8834 15.972 18.8274 15.916C18.7714 15.86 18.7434 15.7853 18.7434 15.692V9.028C18.7434 8.93467 18.7714 8.86 18.8274 8.804C18.8834 8.748 18.958 8.72 19.0514 8.72H19.2894C19.3827 8.72 19.4574 8.748 19.5134 8.804C19.5694 8.86 19.5974 8.93467 19.5974 9.028V9.518C19.8307 9.21933 20.106 8.99067 20.4234 8.832C20.75 8.664 21.142 8.58 21.5994 8.58C22.6447 8.58 23.3914 9.01867 23.8394 9.896C24.054 9.49467 24.3667 9.17733 24.7774 8.944C25.1974 8.70133 25.678 8.58 26.2194 8.58C26.714 8.58 27.1574 8.69667 27.5494 8.93C27.9507 9.154 28.2634 9.49 28.4874 9.938C28.7207 10.386 28.8374 10.946 28.8374 11.618V15.692C28.8374 15.7853 28.8094 15.86 28.7534 15.916C28.6974 15.972 28.6227 16 28.5294 16H28.2914C28.198 16 28.1234 15.972 28.0674 15.916C28.0114 15.86 27.9834 15.7853 27.9834 15.692V11.758C27.9834 11.142 27.8947 10.666 27.7174 10.33C27.54 9.98467 27.3067 9.742 27.0174 9.602C26.728 9.462 26.4154 9.392 26.0794 9.392C25.7994 9.392 25.5147 9.462 25.2254 9.602C24.936 9.742 24.6934 9.98467 24.4974 10.33C24.3107 10.666 24.2174 11.142 24.2174 11.758V15.692C24.2174 15.7853 24.1894 15.86 24.1334 15.916C24.0774 15.972 24.0027 16 23.9094 16H23.6714C23.578 16 23.5034 15.972 23.4474 15.916C23.3914 15.86 23.3634 15.7853 23.3634 15.692V11.758C23.3634 11.142 23.27 10.666 23.0834 10.33C22.8967 9.98467 22.6587 9.742 22.3694 9.602C22.08 9.462 21.7767 9.392 21.4594 9.392C21.1794 9.392 20.8947 9.462 20.6054 9.602C20.316 9.742 20.0734 9.98467 19.8774 10.33C19.6907 10.666 19.5974 11.1373 19.5974 11.744V15.692C19.5974 15.7853 19.5694 15.86 19.5134 15.916C19.4574 15.972 19.3827 16 19.2894 16H19.0514ZM33.7364 16.14C32.8311 16.14 32.1124 15.846 31.5804 15.258C31.0484 14.6607 30.7451 13.8813 30.6704 12.92C30.6611 12.78 30.6564 12.5933 30.6564 12.36C30.6564 12.1267 30.6611 11.94 30.6704 11.8C30.7171 11.1653 30.8664 10.6053 31.1184 10.12C31.3704 9.63467 31.7157 9.25667 32.1544 8.986C32.6024 8.71533 33.1297 8.58 33.7364 8.58C34.3897 8.58 34.9451 8.72467 35.4024 9.014C35.8597 9.30333 36.2097 9.71867 36.4524 10.26C36.7044 10.8013 36.8304 11.4453 36.8304 12.192V12.402C36.8304 12.4953 36.7977 12.57 36.7324 12.626C36.6764 12.682 36.6017 12.71 36.5084 12.71H31.5244C31.5244 12.71 31.5244 12.7287 31.5244 12.766C31.5244 12.8033 31.5244 12.8313 31.5244 12.85C31.5431 13.27 31.6411 13.6713 31.8184 14.054C31.9957 14.4273 32.2477 14.7353 32.5744 14.978C32.9011 15.2113 33.2884 15.328 33.7364 15.328C34.1377 15.328 34.4691 15.2673 34.7304 15.146C35.0011 15.0247 35.2157 14.894 35.3744 14.754C35.5331 14.6047 35.6357 14.4927 35.6824 14.418C35.7664 14.2967 35.8317 14.2267 35.8784 14.208C35.9251 14.18 35.9997 14.166 36.1024 14.166H36.3264C36.4104 14.166 36.4804 14.194 36.5364 14.25C36.6017 14.2967 36.6297 14.362 36.6204 14.446C36.6111 14.5767 36.5364 14.74 36.3964 14.936C36.2657 15.1227 36.0744 15.3093 35.8224 15.496C35.5797 15.6827 35.2811 15.8367 34.9264 15.958C34.5717 16.0793 34.1751 16.14 33.7364 16.14ZM31.5244 11.926H35.9764V11.87C35.9764 11.4033 35.8877 10.9833 35.7104 10.61C35.5331 10.2367 35.2764 9.94267 34.9404 9.728C34.6044 9.504 34.2031 9.392 33.7364 9.392C33.2697 9.392 32.8684 9.504 32.5324 9.728C32.2057 9.94267 31.9537 10.2367 31.7764 10.61C31.6084 10.9833 31.5244 11.4033 31.5244 11.87V11.926Z" fill="#555555"/>
<path d="M46.658 17.176C46.5833 17.176 46.518 17.148 46.462 17.092C46.406 17.036 46.378 16.9707 46.378 16.896C46.378 16.8493 46.392 16.7933 46.42 16.728L51.236 5.206C51.2547 5.16867 51.2873 5.12667 51.334 5.08C51.3807 5.024 51.4507 4.996 51.544 4.996H51.782C51.8567 4.996 51.922 5.024 51.978 5.08C52.034 5.136 52.062 5.20133 52.062 5.276C52.062 5.31333 52.048 5.36933 52.02 5.444L47.204 16.966C47.1947 17.0033 47.162 17.0453 47.106 17.092C47.0593 17.148 46.9893 17.176 46.896 17.176H46.658Z" fill="#222222"/>
<path d="M62.624 16C62.5307 16 62.456 15.972 62.4 15.916C62.344 15.86 62.316 15.7853 62.316 15.692V6.522C62.316 6.41933 62.344 6.34 62.4 6.284C62.456 6.228 62.5307 6.2 62.624 6.2H66.278C66.9313 6.2 67.4633 6.31667 67.874 6.55C68.294 6.78333 68.602 7.09133 68.798 7.474C68.994 7.84733 69.092 8.258 69.092 8.706C69.092 9.10733 69.0267 9.45267 68.896 9.742C68.7747 10.022 68.616 10.2507 68.42 10.428C68.2333 10.6053 68.0467 10.7407 67.86 10.834C68.2333 11.0207 68.5647 11.3193 68.854 11.73C69.1433 12.1407 69.288 12.64 69.288 13.228C69.288 13.6947 69.176 14.1427 68.952 14.572C68.7373 14.992 68.4107 15.3373 67.972 15.608C67.5427 15.8693 67.0107 16 66.376 16H62.624ZM63.198 15.16H66.236C66.9267 15.16 67.4587 14.978 67.832 14.614C68.2147 14.25 68.406 13.788 68.406 13.228C68.406 12.6587 68.2147 12.1967 67.832 11.842C67.4587 11.478 66.9267 11.296 66.236 11.296H63.198V15.16ZM63.198 10.456H66.096C66.7867 10.456 67.3093 10.302 67.664 9.994C68.028 9.686 68.21 9.25667 68.21 8.706C68.21 8.15533 68.028 7.74 67.664 7.46C67.3093 7.18 66.7867 7.04 66.096 7.04H63.198V10.456ZM73.9825 16.14C73.0772 16.14 72.3585 15.846 71.8265 15.258C71.2945 14.6607 70.9912 13.8813 70.9165 12.92C70.9072 12.78 70.9025 12.5933 70.9025 12.36C70.9025 12.1267 70.9072 11.94 70.9165 11.8C70.9632 11.1653 71.1125 10.6053 71.3645 10.12C71.6165 9.63467 71.9618 9.25667 72.4005 8.986C72.8485 8.71533 73.3758 8.58 73.9825 8.58C74.6358 8.58 75.1912 8.72467 75.6485 9.014C76.1058 9.30333 76.4558 9.71867 76.6985 10.26C76.9505 10.8013 77.0765 11.4453 77.0765 12.192V12.402C77.0765 12.4953 77.0438 12.57 76.9785 12.626C76.9225 12.682 76.8478 12.71 76.7545 12.71H71.7705C71.7705 12.71 71.7705 12.7287 71.7705 12.766C71.7705 12.8033 71.7705 12.8313 71.7705 12.85C71.7892 13.27 71.8872 13.6713 72.0645 14.054C72.2418 14.4273 72.4938 14.7353 72.8205 14.978C73.1472 15.2113 73.5345 15.328 73.9825 15.328C74.3838 15.328 74.7152 15.2673 74.9765 15.146C75.2472 15.0247 75.4618 14.894 75.6205 14.754C75.7792 14.6047 75.8818 14.4927 75.9285 14.418C76.0125 14.2967 76.0778 14.2267 76.1245 14.208C76.1712 14.18 76.2458 14.166 76.3485 14.166H76.5725C76.6565 14.166 76.7265 14.194 76.7825 14.25C76.8478 14.2967 76.8758 14.362 76.8665 14.446C76.8572 14.5767 76.7825 14.74 76.6425 14.936C76.5118 15.1227 76.3205 15.3093 76.0685 15.496C75.8258 15.6827 75.5272 15.8367 75.1725 15.958C74.8178 16.0793 74.4212 16.14 73.9825 16.14ZM71.7705 11.926H76.2225V11.87C76.2225 11.4033 76.1338 10.9833 75.9565 10.61C75.7792 10.2367 75.5225 9.94267 75.1865 9.728C74.8505 9.504 74.4492 9.392 73.9825 9.392C73.5158 9.392 73.1145 9.504 72.7785 9.728C72.4518 9.94267 72.1998 10.2367 72.0225 10.61C71.8545 10.9833 71.7705 11.4033 71.7705 11.87V11.926ZM81.2331 16.14C80.7477 16.14 80.3277 16.0747 79.9731 15.944C79.6277 15.8133 79.3431 15.6593 79.1191 15.482C78.8951 15.2953 78.7271 15.1133 78.6151 14.936C78.5124 14.7587 78.4564 14.6233 78.4471 14.53C78.4377 14.4273 78.4704 14.3527 78.5451 14.306C78.6197 14.25 78.6897 14.222 78.7551 14.222H78.9651C79.0211 14.222 79.0677 14.2313 79.1051 14.25C79.1517 14.2687 79.2077 14.32 79.2731 14.404C79.3944 14.5627 79.5344 14.7167 79.6931 14.866C79.8517 15.006 80.0524 15.118 80.2951 15.202C80.5471 15.286 80.8597 15.328 81.2331 15.328C81.7931 15.328 82.2551 15.2207 82.6191 15.006C82.9831 14.7913 83.1651 14.474 83.1651 14.054C83.1651 13.7927 83.0904 13.5827 82.9411 13.424C82.8011 13.2653 82.5584 13.1253 82.2131 13.004C81.8677 12.8827 81.4011 12.7567 80.8131 12.626C80.2251 12.486 79.7724 12.318 79.4551 12.122C79.1471 11.926 78.9371 11.702 78.8251 11.45C78.7131 11.1887 78.6571 10.9087 78.6571 10.61C78.6571 10.2833 78.7504 9.966 78.9371 9.658C79.1237 9.34067 79.3991 9.084 79.7631 8.888C80.1364 8.68267 80.6031 8.58 81.1631 8.58C81.6204 8.58 82.0077 8.64067 82.3251 8.762C82.6517 8.88333 82.9177 9.03267 83.1231 9.21C83.3284 9.378 83.4777 9.546 83.5711 9.714C83.6737 9.882 83.7297 10.0173 83.7391 10.12C83.7484 10.2133 83.7204 10.288 83.6551 10.344C83.5897 10.4 83.5151 10.428 83.4311 10.428H83.2211C83.1464 10.428 83.0857 10.414 83.0391 10.386C82.9924 10.3487 82.9504 10.302 82.9131 10.246C82.8197 10.0967 82.7077 9.95667 82.5771 9.826C82.4464 9.69533 82.2691 9.59267 82.0451 9.518C81.8304 9.434 81.5364 9.392 81.1631 9.392C80.6031 9.392 80.1877 9.50867 79.9171 9.742C79.6464 9.966 79.5111 10.2553 79.5111 10.61C79.5111 10.8153 79.5671 10.9973 79.6791 11.156C79.7911 11.3053 80.0011 11.4453 80.3091 11.576C80.6171 11.6973 81.0651 11.828 81.6531 11.968C82.2504 12.0987 82.7217 12.262 83.0671 12.458C83.4124 12.6447 83.6551 12.8687 83.7951 13.13C83.9444 13.3913 84.0191 13.6993 84.0191 14.054C84.0191 14.4273 83.9117 14.7727 83.6971 15.09C83.4917 15.4073 83.1791 15.664 82.7591 15.86C82.3484 16.0467 81.8397 16.14 81.2331 16.14ZM88.2637 16C87.7784 16 87.3957 15.8973 87.1157 15.692C86.8357 15.4867 86.6397 15.2067 86.5277 14.852C86.4157 14.4973 86.3597 14.1007 86.3597 13.662V9.532H85.2677C85.1744 9.532 85.0997 9.504 85.0437 9.448C84.9877 9.392 84.9597 9.31733 84.9597 9.224V9.028C84.9597 8.93467 84.9877 8.86 85.0437 8.804C85.0997 8.748 85.1744 8.72 85.2677 8.72H86.3597V6.368C86.3597 6.27467 86.3877 6.2 86.4437 6.144C86.4997 6.088 86.5744 6.06 86.6677 6.06H86.9057C86.999 6.06 87.0737 6.088 87.1297 6.144C87.1857 6.2 87.2137 6.27467 87.2137 6.368V8.72H88.9497C89.043 8.72 89.1177 8.748 89.1737 8.804C89.2297 8.86 89.2577 8.93467 89.2577 9.028V9.224C89.2577 9.31733 89.2297 9.392 89.1737 9.448C89.1177 9.504 89.043 9.532 88.9497 9.532H87.2137V13.606C87.2137 14.1007 87.293 14.488 87.4517 14.768C87.6197 15.048 87.9137 15.188 88.3337 15.188H89.0897C89.183 15.188 89.2577 15.216 89.3137 15.272C89.3697 15.328 89.3977 15.4027 89.3977 15.496V15.692C89.3977 15.7853 89.3697 15.86 89.3137 15.916C89.2577 15.972 89.183 16 89.0897 16H88.2637ZM97.5763 16.14C96.8203 16.14 96.1763 16.0187 95.6443 15.776C95.1216 15.5333 94.7203 15.2207 94.4403 14.838C94.1603 14.4553 94.011 14.0493 93.9923 13.62C93.9923 13.5453 94.0203 13.48 94.0763 13.424C94.1323 13.368 94.2023 13.34 94.2863 13.34H94.5663C94.6596 13.34 94.7296 13.368 94.7763 13.424C94.8323 13.48 94.865 13.5453 94.8743 13.62C94.9116 13.8813 95.0283 14.1427 95.2243 14.404C95.4203 14.656 95.7096 14.8707 96.0923 15.048C96.475 15.216 96.9696 15.3 97.5763 15.3C98.491 15.3 99.1583 15.1367 99.5783 14.81C99.9983 14.474 100.208 14.026 100.208 13.466C100.208 13.0927 100.096 12.794 99.8723 12.57C99.6576 12.3367 99.3263 12.1313 98.8783 11.954C98.4303 11.7673 97.8563 11.562 97.1563 11.338C96.4936 11.1233 95.9476 10.904 95.5183 10.68C95.089 10.4467 94.7716 10.1667 94.5663 9.84C94.3703 9.51333 94.2723 9.09333 94.2723 8.58C94.2723 8.104 94.3983 7.67933 94.6503 7.306C94.9023 6.92333 95.2663 6.62 95.7423 6.396C96.2276 6.172 96.8156 6.06 97.5063 6.06C98.057 6.06 98.5376 6.13467 98.9483 6.284C99.359 6.43333 99.6996 6.634 99.9703 6.886C100.241 7.12867 100.446 7.39467 100.586 7.684C100.726 7.964 100.801 8.23933 100.81 8.51C100.81 8.57533 100.787 8.64067 100.74 8.706C100.694 8.762 100.619 8.79 100.516 8.79H100.236C100.19 8.79 100.129 8.77133 100.054 8.734C99.989 8.69667 99.947 8.622 99.9283 8.51C99.8723 8.04333 99.625 7.66067 99.1863 7.362C98.757 7.054 98.197 6.9 97.5063 6.9C96.8156 6.9 96.251 7.03533 95.8123 7.306C95.3736 7.57667 95.1543 8.00133 95.1543 8.58C95.1543 8.95333 95.2523 9.26133 95.4483 9.504C95.6443 9.73733 95.9523 9.94733 96.3723 10.134C96.7923 10.3113 97.3336 10.5073 97.9963 10.722C98.6963 10.946 99.275 11.17 99.7323 11.394C100.19 11.618 100.53 11.8933 100.754 12.22C100.978 12.5373 101.09 12.9527 101.09 13.466C101.09 14.0353 100.946 14.5207 100.656 14.922C100.376 15.314 99.975 15.6173 99.4523 15.832C98.9296 16.0373 98.3043 16.14 97.5763 16.14ZM105.633 16.14C104.728 16.14 104.009 15.846 103.477 15.258C102.945 14.6607 102.642 13.8813 102.567 12.92C102.558 12.78 102.553 12.5933 102.553 12.36C102.553 12.1267 102.558 11.94 102.567 11.8C102.614 11.1653 102.763 10.6053 103.015 10.12C103.267 9.63467 103.612 9.25667 104.051 8.986C104.499 8.71533 105.026 8.58 105.633 8.58C106.286 8.58 106.842 8.72467 107.299 9.014C107.756 9.30333 108.106 9.71867 108.349 10.26C108.601 10.8013 108.727 11.4453 108.727 12.192V12.402C108.727 12.4953 108.694 12.57 108.629 12.626C108.573 12.682 108.498 12.71 108.405 12.71H103.421C103.421 12.71 103.421 12.7287 103.421 12.766C103.421 12.8033 103.421 12.8313 103.421 12.85C103.44 13.27 103.538 13.6713 103.715 14.054C103.892 14.4273 104.144 14.7353 104.471 14.978C104.798 15.2113 105.185 15.328 105.633 15.328C106.034 15.328 106.366 15.2673 106.627 15.146C106.898 15.0247 107.112 14.894 107.271 14.754C107.43 14.6047 107.532 14.4927 107.579 14.418C107.663 14.2967 107.728 14.2267 107.775 14.208C107.822 14.18 107.896 14.166 107.999 14.166H108.223C108.307 14.166 108.377 14.194 108.433 14.25C108.498 14.2967 108.526 14.362 108.517 14.446C108.508 14.5767 108.433 14.74 108.293 14.936C108.162 15.1227 107.971 15.3093 107.719 15.496C107.476 15.6827 107.178 15.8367 106.823 15.958C106.468 16.0793 106.072 16.14 105.633 16.14ZM103.421 11.926H107.873V11.87C107.873 11.4033 107.784 10.9833 107.607 10.61C107.43 10.2367 107.173 9.94267 106.837 9.728C106.501 9.504 106.1 9.392 105.633 9.392C105.166 9.392 104.765 9.504 104.429 9.728C104.102 9.94267 103.85 10.2367 103.673 10.61C103.505 10.9833 103.421 11.4033 103.421 11.87V11.926ZM110.895 16C110.802 16 110.727 15.972 110.671 15.916C110.615 15.86 110.587 15.7853 110.587 15.692V6.368C110.587 6.27467 110.615 6.2 110.671 6.144C110.727 6.088 110.802 6.06 110.895 6.06H111.133C111.227 6.06 111.301 6.088 111.357 6.144C111.413 6.2 111.441 6.27467 111.441 6.368V15.692C111.441 15.7853 111.413 15.86 111.357 15.916C111.301 15.972 111.227 16 111.133 16H110.895ZM114.04 16C113.947 16 113.872 15.972 113.816 15.916C113.76 15.86 113.732 15.7853 113.732 15.692V6.368C113.732 6.27467 113.76 6.2 113.816 6.144C113.872 6.088 113.947 6.06 114.04 6.06H114.278C114.371 6.06 114.446 6.088 114.502 6.144C114.558 6.2 114.586 6.27467 114.586 6.368V15.692C114.586 15.7853 114.558 15.86 114.502 15.916C114.446 15.972 114.371 16 114.278 16H114.04ZM119.565 16.14C118.659 16.14 117.941 15.846 117.409 15.258C116.877 14.6607 116.573 13.8813 116.499 12.92C116.489 12.78 116.485 12.5933 116.485 12.36C116.485 12.1267 116.489 11.94 116.499 11.8C116.545 11.1653 116.695 10.6053 116.947 10.12C117.199 9.63467 117.544 9.25667 117.983 8.986C118.431 8.71533 118.958 8.58 119.565 8.58C120.218 8.58 120.773 8.72467 121.231 9.014C121.688 9.30333 122.038 9.71867 122.281 10.26C122.533 10.8013 122.659 11.4453 122.659 12.192V12.402C122.659 12.4953 122.626 12.57 122.561 12.626C122.505 12.682 122.43 12.71 122.337 12.71H117.353C117.353 12.71 117.353 12.7287 117.353 12.766C117.353 12.8033 117.353 12.8313 117.353 12.85C117.371 13.27 117.469 13.6713 117.647 14.054C117.824 14.4273 118.076 14.7353 118.403 14.978C118.729 15.2113 119.117 15.328 119.565 15.328C119.966 15.328 120.297 15.2673 120.559 15.146C120.829 15.0247 121.044 14.894 121.203 14.754C121.361 14.6047 121.464 14.4927 121.511 14.418C121.595 14.2967 121.66 14.2267 121.707 14.208C121.753 14.18 121.828 14.166 121.931 14.166H122.155C122.239 14.166 122.309 14.194 122.365 14.25C122.43 14.2967 122.458 14.362 122.449 14.446C122.439 14.5767 122.365 14.74 122.225 14.936C122.094 15.1227 121.903 15.3093 121.651 15.496C121.408 15.6827 121.109 15.8367 120.755 15.958C120.4 16.0793 120.003 16.14 119.565 16.14ZM117.353 11.926H121.805V11.87C121.805 11.4033 121.716 10.9833 121.539 10.61C121.361 10.2367 121.105 9.94267 120.769 9.728C120.433 9.504 120.031 9.392 119.565 9.392C119.098 9.392 118.697 9.504 118.361 9.728C118.034 9.94267 117.782 10.2367 117.605 10.61C117.437 10.9833 117.353 11.4033 117.353 11.87V11.926ZM124.813 16C124.72 16 124.645 15.972 124.589 15.916C124.533 15.86 124.505 15.7853 124.505 15.692V9.042C124.505 8.94867 124.533 8.874 124.589 8.818C124.645 8.75267 124.72 8.72 124.813 8.72H125.037C125.13 8.72 125.205 8.75267 125.261 8.818C125.326 8.874 125.359 8.94867 125.359 9.042V9.686C125.527 9.35933 125.77 9.11667 126.087 8.958C126.404 8.79933 126.796 8.72 127.263 8.72H127.781C127.874 8.72 127.949 8.748 128.005 8.804C128.061 8.86 128.089 8.93467 128.089 9.028V9.224C128.089 9.31733 128.061 9.392 128.005 9.448C127.949 9.504 127.874 9.532 127.781 9.532H127.179C126.619 9.532 126.176 9.69533 125.849 10.022C125.522 10.3487 125.359 10.792 125.359 11.352V15.692C125.359 15.7853 125.326 15.86 125.261 15.916C125.205 15.972 125.13 16 125.037 16H124.813Z" fill="#222222"/>
</svg>
