<svg width="125" height="111" viewBox="0 0 125 111" fill="none" xmlns="http://www.w3.org/2000/svg">
<path d="M123.99 47.0699L98.7468 103.55C97.9111 105.418 96.0915 106.653 94.0453 106.736L7.31834 110.279C4.92716 110.376 2.75703 108.885 1.99142 106.615L0.821433 103.154C0.257469 101.477 0.550774 99.652 1.57357 98.2526C26.1982 64.4517 22.0135 70.1968 26.0596 64.6385C27.3981 62.7976 27.448 60.2985 26.1405 58.4031L5.19943 28.0375C3.67765 25.8323 3.99521 22.8014 6.02974 20.969L11.6505 15.909C12.4215 15.2162 13.3731 14.7606 14.3949 14.5934L99.4289 0.785491C101.78 0.402685 104.106 1.61041 105.144 3.75628L123.92 42.5194C124.613 43.9509 124.64 45.6169 123.99 47.0699Z" fill="#404077"/>
<path d="M116.165 44.7785L26.8873 70.1299C26.8873 70.1299 25.7442 69.1918 23.9057 67.5985C24.0267 67.4306 23.8059 67.7347 26.0596 64.6385C27.4075 62.7865 27.4399 60.2875 26.1405 58.4031L5.19944 28.0375C4.3233 26.7678 4.0618 25.2419 4.36913 23.8293L91.2444 9.51186C93.4361 9.15062 95.6251 10.1723 96.7573 12.081L116.165 44.7785Z" fill="#7373D7"/>
<path d="M116.165 44.7784L94.4335 93.5834C93.6005 95.4543 91.7782 96.6917 89.732 96.778L0.621948 100.479C0.764826 99.6868 1.08293 98.9238 1.57357 98.2526C24.14 67.2772 22.3022 69.8002 26.0596 64.6385C26.7417 63.7003 27.0867 62.5978 27.0921 61.4925L116.165 44.7784Z" fill="#52528C"/>
<path d="M50.5568 68.0336L38.3795 91.6832C37.9463 92.5245 37.1036 93.0772 36.1595 93.1392L18.9557 94.2693C16.6626 94.42 15.2446 91.8164 16.6149 89.9716L33.5139 67.223C33.932 66.6601 34.5528 66.2824 35.2448 66.1697L47.7267 64.1387C49.9114 63.7831 51.5699 66.066 50.5568 68.0336Z" fill="#FFEBD4"/>
<path d="M76.6056 63.5187L66.9929 89.512C66.6238 90.5098 65.7026 91.1972 64.6413 91.267L48.5012 92.3284C46.4478 92.4634 45.0063 90.3407 45.8892 88.482C58.3865 62.1673 58.2393 62.4258 58.2665 62.4258L73.644 59.9233C75.6828 59.5909 77.3221 61.5812 76.6056 63.5187Z" fill="#FFC7A1"/>
<path d="M100.116 59.8284L87.6609 88.2967C87.2573 89.2195 86.3728 89.8401 85.3678 89.9061L75.3472 90.5647C73.4022 90.6925 71.9685 88.7776 72.639 86.9472L82.5628 59.8618C82.8979 58.9474 83.7002 58.2848 84.6612 58.1284L97.2127 56.0869C99.3213 55.7442 100.972 57.872 100.116 59.8284Z" fill="#F0B48F"/>
</svg>
