<svg width="60" height="60" viewBox="0 0 60 60" fill="none" xmlns="http://www.w3.org/2000/svg">
<circle cx="30" cy="30" r="30" fill="white"/>
<path d="M16.8291 35C16.7264 35 16.6471 34.972 16.5911 34.916C16.5351 34.8507 16.5071 34.7713 16.5071 34.678V25.536C16.5071 25.4333 16.5351 25.354 16.5911 25.298C16.6471 25.2327 16.7264 25.2 16.8291 25.2H17.4731C17.5851 25.2 17.6691 25.228 17.7251 25.284C17.7811 25.3307 17.8137 25.368 17.8231 25.396L22.4711 32.536V25.536C22.4711 25.4333 22.4991 25.354 22.5551 25.298C22.6111 25.2327 22.6904 25.2 22.7931 25.2H23.4651C23.5677 25.2 23.6471 25.2327 23.7031 25.298C23.7684 25.354 23.8011 25.4333 23.8011 25.536V34.664C23.8011 34.7573 23.7684 34.8367 23.7031 34.902C23.6471 34.9673 23.5724 35 23.4791 35H22.8071C22.7044 35 22.6251 34.972 22.5691 34.916C22.5224 34.86 22.4897 34.8227 22.4711 34.804L17.8371 27.734V34.678C17.8371 34.7713 17.8044 34.8507 17.7391 34.916C17.6831 34.972 17.6037 35 17.5011 35H16.8291ZM26.5498 35C26.4471 35 26.3678 34.972 26.3118 34.916C26.2558 34.8507 26.2278 34.7713 26.2278 34.678V25.536C26.2278 25.4333 26.2558 25.354 26.3118 25.298C26.3678 25.2327 26.4471 25.2 26.5498 25.2H32.3318C32.4344 25.2 32.5138 25.2327 32.5698 25.298C32.6258 25.354 32.6538 25.4333 32.6538 25.536V26.068C32.6538 26.1707 32.6258 26.25 32.5698 26.306C32.5138 26.362 32.4344 26.39 32.3318 26.39H27.5718V29.456H32.0238C32.1264 29.456 32.2058 29.4887 32.2618 29.554C32.3178 29.61 32.3458 29.6893 32.3458 29.792V30.31C32.3458 30.4033 32.3178 30.4827 32.2618 30.548C32.2058 30.604 32.1264 30.632 32.0238 30.632H27.5718V33.81H32.4438C32.5464 33.81 32.6258 33.838 32.6818 33.894C32.7378 33.95 32.7658 34.0293 32.7658 34.132V34.678C32.7658 34.7713 32.7378 34.8507 32.6818 34.916C32.6258 34.972 32.5464 35 32.4438 35H26.5498ZM36.37 35C36.2487 35 36.1507 34.9673 36.076 34.902C36.0107 34.8367 35.964 34.7433 35.936 34.622L34.13 25.634C34.1207 25.5967 34.116 25.564 34.116 25.536C34.116 25.508 34.116 25.4893 34.116 25.48C34.116 25.4053 34.144 25.34 34.2 25.284C34.256 25.228 34.3213 25.2 34.396 25.2H35.124C35.32 25.2 35.432 25.2793 35.46 25.438L36.888 32.662L38.4 27.706C38.428 27.622 38.4747 27.5473 38.54 27.482C38.6147 27.4073 38.7173 27.37 38.848 27.37H39.366C39.506 27.37 39.6087 27.4073 39.674 27.482C39.7393 27.5473 39.7813 27.622 39.8 27.706L41.326 32.662L42.74 25.438C42.768 25.2793 42.8847 25.2 43.09 25.2H43.818C43.8927 25.2 43.958 25.228 44.014 25.284C44.07 25.34 44.098 25.4053 44.098 25.48C44.098 25.4893 44.0933 25.508 44.084 25.536C44.084 25.564 44.084 25.5967 44.084 25.634L42.278 34.622C42.25 34.7433 42.1987 34.8367 42.124 34.902C42.0587 34.9673 41.9653 35 41.844 35H41.298C41.1673 35 41.0647 34.9673 40.99 34.902C40.9153 34.8367 40.864 34.7527 40.836 34.65L39.1 29.316L37.378 34.65C37.3407 34.7527 37.2847 34.8367 37.21 34.902C37.1447 34.9673 37.0467 35 36.916 35H36.37Z" fill="#7373D7"/>
</svg>
