<svg width="51" height="15" viewBox="0 0 51 15" fill="none" xmlns="http://www.w3.org/2000/svg">
<g opacity="0.5">
<path d="M4.624 14.6C4.51733 14.6 4.432 14.568 4.368 14.504C4.304 14.44 4.272 14.3547 4.272 14.248V13.128C3.51467 13.0747 2.87467 12.9093 2.352 12.632C1.82933 12.344 1.42933 11.9973 1.152 11.592C0.874667 11.176 0.725333 10.7387 0.704 10.28C0.704 10.1947 0.736 10.12 0.8 10.056C0.864 9.992 0.944 9.96 1.04 9.96H1.36C1.46667 9.96 1.54667 9.992 1.6 10.056C1.664 10.12 1.70133 10.1947 1.712 10.28C1.75467 10.5787 1.888 10.8773 2.112 11.176C2.336 11.464 2.66667 11.7093 3.104 11.912C3.54133 12.104 4.10667 12.2 4.8 12.2C5.84533 12.2 6.608 12.0133 7.088 11.64C7.568 11.256 7.808 10.744 7.808 10.104C7.808 9.67733 7.68 9.336 7.424 9.08C7.17867 8.81333 6.8 8.57867 6.288 8.376C5.776 8.16267 5.12 7.928 4.32 7.672C3.56267 7.42667 2.93867 7.176 2.448 6.92C1.95733 6.65333 1.59467 6.33333 1.36 5.96C1.136 5.58667 1.024 5.10667 1.024 4.52C1.024 3.76267 1.30133 3.11733 1.856 2.584C2.42133 2.04 3.22667 1.73067 4.272 1.656V0.551999C4.272 0.445333 4.304 0.359999 4.368 0.296C4.432 0.232 4.51733 0.2 4.624 0.2H4.928C5.03467 0.2 5.12 0.232 5.184 0.296C5.248 0.359999 5.28 0.445333 5.28 0.551999V1.672C5.99467 1.736 6.58667 1.91733 7.056 2.216C7.52533 2.51467 7.87733 2.86667 8.112 3.272C8.35733 3.66667 8.48533 4.056 8.496 4.44C8.496 4.51467 8.46933 4.58933 8.416 4.664C8.36267 4.728 8.27733 4.76 8.16 4.76H7.84C7.78667 4.76 7.71733 4.73867 7.632 4.696C7.55733 4.65333 7.50933 4.568 7.488 4.44C7.424 3.90667 7.14133 3.46933 6.64 3.128C6.14933 2.776 5.50933 2.6 4.72 2.6C3.93067 2.6 3.28533 2.75467 2.784 3.064C2.28267 3.37333 2.032 3.85867 2.032 4.52C2.032 4.94667 2.144 5.29867 2.368 5.576C2.592 5.84267 2.944 6.08267 3.424 6.296C3.904 6.49867 4.52267 6.72267 5.28 6.968C6.08 7.224 6.74133 7.48 7.264 7.736C7.78667 7.992 8.176 8.30667 8.432 8.68C8.688 9.04267 8.816 9.51733 8.816 10.104C8.816 10.7013 8.672 11.2187 8.384 11.656C8.10667 12.0933 7.70133 12.44 7.168 12.696C6.64533 12.9413 6.016 13.0907 5.28 13.144V14.248C5.28 14.3547 5.248 14.44 5.184 14.504C5.12 14.568 5.03467 14.6 4.928 14.6H4.624ZM14.1073 13.16C13.5099 13.16 12.9766 13.0853 12.5073 12.936C12.0379 12.776 11.6379 12.568 11.3073 12.312C10.9873 12.056 10.7366 11.768 10.5553 11.448C10.3846 11.1173 10.2939 10.776 10.2833 10.424C10.2833 10.328 10.3153 10.2533 10.3793 10.2C10.4433 10.1467 10.5233 10.12 10.6193 10.12H10.8433C10.9286 10.12 11.0086 10.1413 11.0833 10.184C11.1686 10.2267 11.2326 10.328 11.2753 10.488C11.3926 10.9467 11.6006 11.304 11.8993 11.56C12.2086 11.8053 12.5553 11.976 12.9393 12.072C13.3339 12.1573 13.7233 12.2 14.1073 12.2C14.9286 12.2 15.6006 12.0027 16.1233 11.608C16.6566 11.2133 16.9233 10.6213 16.9233 9.832C16.9233 9.04267 16.6833 8.47733 16.2033 8.136C15.7339 7.79467 15.0886 7.624 14.2673 7.624H12.8593C12.7526 7.624 12.6673 7.592 12.6033 7.528C12.5393 7.464 12.5073 7.37867 12.5073 7.272V7.032C12.5073 6.94667 12.5179 6.87733 12.5393 6.824C12.5713 6.76 12.6086 6.70133 12.6513 6.648L15.9473 2.76H11.1153C11.0086 2.76 10.9233 2.728 10.8593 2.664C10.7953 2.6 10.7633 2.51467 10.7633 2.408V2.168C10.7633 2.05067 10.7953 1.96 10.8593 1.896C10.9233 1.832 11.0086 1.8 11.1153 1.8H17.0833C17.2006 1.8 17.2913 1.832 17.3553 1.896C17.4193 1.96 17.4513 2.05067 17.4513 2.168V2.408C17.4513 2.472 17.4353 2.53067 17.4033 2.584C17.3819 2.62667 17.3553 2.66933 17.3233 2.712L13.9473 6.664H14.2673C15.0033 6.664 15.6433 6.78133 16.1873 7.016C16.7419 7.24 17.1686 7.58667 17.4673 8.056C17.7766 8.52533 17.9313 9.11733 17.9313 9.832C17.9313 10.536 17.7659 11.1387 17.4353 11.64C17.1046 12.1307 16.6513 12.5093 16.0753 12.776C15.4993 13.032 14.8433 13.16 14.1073 13.16ZM19.934 13C19.8273 13 19.742 12.968 19.678 12.904C19.614 12.84 19.582 12.7547 19.582 12.648V12.408C19.582 12.3013 19.6087 12.2 19.662 12.104C19.726 11.9973 19.8327 11.8747 19.982 11.736L24.126 7.592C24.5313 7.21867 24.8407 6.89333 25.054 6.616C25.2673 6.33867 25.4113 6.06667 25.486 5.8C25.5713 5.52267 25.614 5.21867 25.614 4.888C25.614 4.17333 25.406 3.61333 24.99 3.208C24.5847 2.80267 24.0033 2.6 23.246 2.6C22.766 2.6 22.35 2.696 21.998 2.888C21.646 3.08 21.3687 3.352 21.166 3.704C20.9633 4.04533 20.83 4.44533 20.766 4.904C20.7553 5.032 20.7073 5.128 20.622 5.192C20.5367 5.24533 20.462 5.272 20.398 5.272H20.078C19.9713 5.272 19.886 5.24533 19.822 5.192C19.7687 5.128 19.742 5.05333 19.742 4.968C19.7527 4.60533 19.8273 4.232 19.966 3.848C20.1047 3.45333 20.3127 3.09067 20.59 2.76C20.878 2.42933 21.2407 2.16267 21.678 1.96C22.1153 1.74667 22.638 1.64 23.246 1.64C24.0567 1.64 24.7073 1.79467 25.198 2.104C25.6993 2.41333 26.062 2.81333 26.286 3.304C26.51 3.79467 26.622 4.32267 26.622 4.888C26.622 5.32533 26.558 5.73067 26.43 6.104C26.302 6.46667 26.11 6.824 25.854 7.176C25.598 7.51733 25.2727 7.86933 24.878 8.232L21.134 12.04H26.494C26.6113 12.04 26.702 12.072 26.766 12.136C26.83 12.2 26.862 12.2907 26.862 12.408V12.648C26.862 12.7547 26.83 12.84 26.766 12.904C26.702 12.968 26.6113 13 26.494 13H19.934ZM29.2231 13C29.1165 13 29.0311 12.968 28.9671 12.904C28.9031 12.84 28.8711 12.7547 28.8711 12.648V11.88C28.8711 11.7733 28.9031 11.688 28.9671 11.624C29.0311 11.5493 29.1165 11.512 29.2231 11.512H29.9911C30.0978 11.512 30.1831 11.5493 30.2471 11.624C30.3218 11.688 30.3591 11.7733 30.3591 11.88V12.648C30.3591 12.7547 30.3218 12.84 30.2471 12.904C30.1831 12.968 30.0978 13 29.9911 13H29.2231ZM36.1468 13.16C35.4214 13.16 34.8134 13.0427 34.3228 12.808C33.8428 12.5733 33.4534 12.2533 33.1548 11.848C32.8668 11.432 32.6588 10.9573 32.5308 10.424C32.4028 9.89067 32.3281 9.33067 32.3068 8.744C32.3068 8.456 32.3014 8.16267 32.2908 7.864C32.2908 7.56533 32.2908 7.26667 32.2908 6.968C32.3014 6.65867 32.3068 6.35467 32.3068 6.056C32.3174 5.46933 32.3868 4.90933 32.5148 4.376C32.6534 3.84267 32.8668 3.37333 33.1548 2.968C33.4534 2.552 33.8428 2.22667 34.3228 1.992C34.8134 1.75733 35.4214 1.64 36.1468 1.64C36.8721 1.64 37.4748 1.75733 37.9548 1.992C38.4454 2.22667 38.8348 2.552 39.1228 2.968C39.4214 3.37333 39.6348 3.84267 39.7628 4.376C39.9014 4.90933 39.9761 5.46933 39.9868 6.056C39.9974 6.35467 40.0028 6.65867 40.0028 6.968C40.0028 7.26667 40.0028 7.56533 40.0028 7.864C40.0028 8.16267 39.9974 8.456 39.9868 8.744C39.9761 9.33067 39.9014 9.89067 39.7628 10.424C39.6348 10.9573 39.4214 11.432 39.1228 11.848C38.8348 12.2533 38.4454 12.5733 37.9548 12.808C37.4748 13.0427 36.8721 13.16 36.1468 13.16ZM36.1468 12.2C37.0961 12.2 37.8001 11.8853 38.2588 11.256C38.7174 10.6267 38.9574 9.76267 38.9788 8.664C38.9894 8.35467 38.9948 8.06667 38.9948 7.8C38.9948 7.52267 38.9948 7.25067 38.9948 6.984C38.9948 6.70667 38.9894 6.424 38.9788 6.136C38.9574 5.05867 38.7174 4.2 38.2588 3.56C37.8001 2.92 37.0961 2.6 36.1468 2.6C35.2081 2.6 34.5041 2.92 34.0348 3.56C33.5761 4.2 33.3361 5.05867 33.3148 6.136C33.3148 6.424 33.3094 6.70667 33.2988 6.984C33.2988 7.25067 33.2988 7.52267 33.2988 7.8C33.3094 8.06667 33.3148 8.35467 33.3148 8.664C33.3361 9.76267 33.5761 10.6267 34.0348 11.256C34.5041 11.8853 35.2081 12.2 36.1468 12.2ZM46.0061 13.16C45.2808 13.16 44.6728 13.0427 44.1821 12.808C43.7021 12.5733 43.3128 12.2533 43.0141 11.848C42.7261 11.432 42.5181 10.9573 42.3901 10.424C42.2621 9.89067 42.1875 9.33067 42.1661 8.744C42.1661 8.456 42.1608 8.16267 42.1501 7.864C42.1501 7.56533 42.1501 7.26667 42.1501 6.968C42.1608 6.65867 42.1661 6.35467 42.1661 6.056C42.1768 5.46933 42.2461 4.90933 42.3741 4.376C42.5128 3.84267 42.7261 3.37333 43.0141 2.968C43.3128 2.552 43.7021 2.22667 44.1821 1.992C44.6728 1.75733 45.2808 1.64 46.0061 1.64C46.7315 1.64 47.3341 1.75733 47.8141 1.992C48.3048 2.22667 48.6941 2.552 48.9821 2.968C49.2808 3.37333 49.4941 3.84267 49.6221 4.376C49.7608 4.90933 49.8355 5.46933 49.8461 6.056C49.8568 6.35467 49.8621 6.65867 49.8621 6.968C49.8621 7.26667 49.8621 7.56533 49.8621 7.864C49.8621 8.16267 49.8568 8.456 49.8461 8.744C49.8355 9.33067 49.7608 9.89067 49.6221 10.424C49.4941 10.9573 49.2808 11.432 48.9821 11.848C48.6941 12.2533 48.3048 12.5733 47.8141 12.808C47.3341 13.0427 46.7315 13.16 46.0061 13.16ZM46.0061 12.2C46.9555 12.2 47.6595 11.8853 48.1181 11.256C48.5768 10.6267 48.8168 9.76267 48.8381 8.664C48.8488 8.35467 48.8541 8.06667 48.8541 7.8C48.8541 7.52267 48.8541 7.25067 48.8541 6.984C48.8541 6.70667 48.8488 6.424 48.8381 6.136C48.8168 5.05867 48.5768 4.2 48.1181 3.56C47.6595 2.92 46.9555 2.6 46.0061 2.6C45.0675 2.6 44.3635 2.92 43.8941 3.56C43.4355 4.2 43.1955 5.05867 43.1741 6.136C43.1741 6.424 43.1688 6.70667 43.1581 6.984C43.1581 7.25067 43.1581 7.52267 43.1581 7.8C43.1688 8.06667 43.1741 8.35467 43.1741 8.664C43.1955 9.76267 43.4355 10.6267 43.8941 11.256C44.3635 11.8853 45.0675 12.2 46.0061 12.2Z" fill="#555555"/>
<path d="M0 8.008H50.9341V8.808H0V8.008Z" fill="#555555"/>
</g>
</svg>
