<svg width="60" height="60" viewBox="0 0 60 60" fill="none" xmlns="http://www.w3.org/2000/svg">
<circle cx="30" cy="30" r="30" fill="#C9C9FF"/>
<path d="M17.703 35.14C16.891 35.14 16.2096 35.0187 15.659 34.776C15.1083 34.524 14.6836 34.202 14.385 33.81C14.0956 33.4087 13.9416 32.984 13.923 32.536C13.923 32.4613 13.951 32.396 14.007 32.34C14.0723 32.2747 14.147 32.242 14.231 32.242H14.945C15.057 32.242 15.141 32.27 15.197 32.326C15.253 32.382 15.2903 32.4473 15.309 32.522C15.3556 32.746 15.4676 32.97 15.645 33.194C15.8316 33.4087 16.0883 33.5907 16.415 33.74C16.751 33.88 17.1803 33.95 17.703 33.95C18.5056 33.95 19.0936 33.81 19.467 33.53C19.8496 33.2407 20.041 32.858 20.041 32.382C20.041 32.0553 19.9383 31.794 19.733 31.598C19.537 31.3927 19.2336 31.2107 18.823 31.052C18.4123 30.8933 17.8803 30.7207 17.227 30.534C16.5456 30.338 15.981 30.1233 15.533 29.89C15.085 29.6567 14.749 29.3673 14.525 29.022C14.3103 28.6767 14.203 28.238 14.203 27.706C14.203 27.202 14.3383 26.754 14.609 26.362C14.8796 25.9607 15.267 25.6433 15.771 25.41C16.2843 25.1767 16.905 25.06 17.633 25.06C18.2116 25.06 18.7156 25.1393 19.145 25.298C19.5836 25.4473 19.9476 25.6527 20.237 25.914C20.5263 26.166 20.7456 26.4413 20.895 26.74C21.0443 27.0293 21.1236 27.314 21.133 27.594C21.133 27.6593 21.1096 27.7247 21.063 27.79C21.0163 27.846 20.9416 27.874 20.839 27.874H20.097C20.0316 27.874 19.9616 27.8553 19.887 27.818C19.8216 27.7807 19.7703 27.7107 19.733 27.608C19.677 27.2253 19.4623 26.9033 19.089 26.642C18.7156 26.3807 18.2303 26.25 17.633 26.25C17.0263 26.25 16.5316 26.3667 16.149 26.6C15.7756 26.8333 15.589 27.1973 15.589 27.692C15.589 28.0093 15.6776 28.2753 15.855 28.49C16.0323 28.6953 16.3123 28.8773 16.695 29.036C17.0776 29.1947 17.577 29.3627 18.193 29.54C18.9396 29.7453 19.551 29.9647 20.027 30.198C20.503 30.422 20.853 30.7067 21.077 31.052C21.3103 31.388 21.427 31.822 21.427 32.354C21.427 32.942 21.273 33.446 20.965 33.866C20.657 34.2767 20.223 34.594 19.663 34.818C19.1123 35.0327 18.459 35.14 17.703 35.14ZM22.4672 35C22.3926 35 22.3272 34.972 22.2712 34.916C22.2152 34.86 22.1872 34.7947 22.1872 34.72C22.1872 34.6733 22.1919 34.622 22.2012 34.566L25.6732 25.508C25.7106 25.4147 25.7619 25.34 25.8272 25.284C25.8926 25.228 25.9906 25.2 26.1212 25.2H27.0732C27.1946 25.2 27.2879 25.228 27.3532 25.284C27.4279 25.34 27.4839 25.4147 27.5212 25.508L30.9792 34.566C30.9979 34.622 31.0072 34.6733 31.0072 34.72C31.0072 34.7947 30.9792 34.86 30.9232 34.916C30.8672 34.972 30.8019 35 30.7272 35H30.0132C29.9012 35 29.8172 34.972 29.7612 34.916C29.7146 34.86 29.6819 34.8087 29.6632 34.762L28.8932 32.774H24.3012L23.5312 34.762C23.5219 34.8087 23.4892 34.86 23.4332 34.916C23.3772 34.972 23.2932 35 23.1812 35H22.4672ZM24.7072 31.57H28.4872L26.5972 26.6L24.7072 31.57ZM32.8261 35C32.7235 35 32.6441 34.972 32.5881 34.916C32.5321 34.8507 32.5041 34.7713 32.5041 34.678V25.522C32.5041 25.4287 32.5321 25.354 32.5881 25.298C32.6441 25.2327 32.7235 25.2 32.8261 25.2H33.5681C33.6615 25.2 33.7361 25.2327 33.7921 25.298C33.8481 25.354 33.8761 25.4287 33.8761 25.522V33.782H38.5381C38.6408 33.782 38.7201 33.8147 38.7761 33.88C38.8321 33.936 38.8601 34.0153 38.8601 34.118V34.678C38.8601 34.7713 38.8321 34.8507 38.7761 34.916C38.7201 34.972 38.6408 35 38.5381 35H32.8261ZM40.7148 35C40.6121 35 40.5328 34.972 40.4768 34.916C40.4208 34.8507 40.3928 34.7713 40.3928 34.678V25.536C40.3928 25.4333 40.4208 25.354 40.4768 25.298C40.5328 25.2327 40.6121 25.2 40.7148 25.2H46.4968C46.5995 25.2 46.6788 25.2327 46.7348 25.298C46.7908 25.354 46.8188 25.4333 46.8188 25.536V26.068C46.8188 26.1707 46.7908 26.25 46.7348 26.306C46.6788 26.362 46.5995 26.39 46.4968 26.39H41.7368V29.456H46.1888C46.2915 29.456 46.3708 29.4887 46.4268 29.554C46.4828 29.61 46.5108 29.6893 46.5108 29.792V30.31C46.5108 30.4033 46.4828 30.4827 46.4268 30.548C46.3708 30.604 46.2915 30.632 46.1888 30.632H41.7368V33.81H46.6088C46.7115 33.81 46.7908 33.838 46.8468 33.894C46.9028 33.95 46.9308 34.0293 46.9308 34.132V34.678C46.9308 34.7713 46.9028 34.8507 46.8468 34.916C46.7908 34.972 46.7115 35 46.6088 35H40.7148Z" fill="#7373D7"/>
</svg>
