<svg width="409" height="38" viewBox="0 0 409 38" fill="none" xmlns="http://www.w3.org/2000/svg">
<rect opacity="0.2" width="409" height="8" rx="4" fill="#7373D7"/>
<rect width="366" height="8" rx="4" fill="#7373D7"/>
<path d="M105.182 33.4C105.079 33.4 105 33.3673 104.944 33.302C104.888 33.246 104.86 33.1713 104.86 33.078V32.098C104.179 32.042 103.605 31.888 103.138 31.636C102.671 31.3747 102.317 31.062 102.074 30.698C101.831 30.334 101.701 29.9467 101.682 29.536C101.682 29.4613 101.71 29.396 101.766 29.34C101.831 29.2747 101.906 29.242 101.99 29.242H102.704C102.816 29.242 102.9 29.27 102.956 29.326C103.012 29.382 103.049 29.4473 103.068 29.522C103.124 29.746 103.241 29.97 103.418 30.194C103.595 30.4087 103.847 30.5907 104.174 30.74C104.51 30.88 104.939 30.95 105.462 30.95C106.265 30.95 106.853 30.81 107.226 30.53C107.609 30.2407 107.8 29.858 107.8 29.382C107.8 29.0553 107.697 28.794 107.492 28.598C107.296 28.3927 106.993 28.2107 106.582 28.052C106.171 27.8933 105.639 27.7207 104.986 27.534C104.305 27.338 103.74 27.1233 103.292 26.89C102.844 26.6567 102.508 26.3673 102.284 26.022C102.069 25.6767 101.962 25.238 101.962 24.706C101.962 24.0247 102.214 23.4413 102.718 22.956C103.222 22.4613 103.936 22.172 104.86 22.088V21.122C104.86 21.0287 104.888 20.954 104.944 20.898C105 20.8327 105.079 20.8 105.182 20.8H105.714C105.807 20.8 105.882 20.8327 105.938 20.898C106.003 20.954 106.036 21.0287 106.036 21.122V22.102C106.661 22.1767 107.184 22.3493 107.604 22.62C108.024 22.8907 108.341 23.2033 108.556 23.558C108.771 23.9127 108.883 24.258 108.892 24.594C108.892 24.6593 108.869 24.7247 108.822 24.79C108.775 24.846 108.701 24.874 108.598 24.874H107.856C107.791 24.874 107.721 24.8553 107.646 24.818C107.581 24.7807 107.529 24.7107 107.492 24.608C107.436 24.2253 107.221 23.9033 106.848 23.642C106.475 23.3807 105.989 23.25 105.392 23.25C104.785 23.25 104.291 23.3667 103.908 23.6C103.535 23.8333 103.348 24.1973 103.348 24.692C103.348 25.0093 103.437 25.2753 103.614 25.49C103.791 25.6953 104.071 25.8773 104.454 26.036C104.837 26.1947 105.336 26.3627 105.952 26.54C106.699 26.7453 107.31 26.9647 107.786 27.198C108.262 27.422 108.612 27.7067 108.836 28.052C109.069 28.388 109.186 28.822 109.186 29.354C109.186 29.886 109.055 30.348 108.794 30.74C108.542 31.132 108.178 31.4447 107.702 31.678C107.235 31.9113 106.68 32.056 106.036 32.112V33.078C106.036 33.1713 106.003 33.246 105.938 33.302C105.882 33.3673 105.807 33.4 105.714 33.4H105.182ZM113.64 32C113.547 32 113.468 31.972 113.402 31.916C113.346 31.8507 113.318 31.7713 113.318 31.678V23.838L110.994 25.63C110.92 25.686 110.84 25.7093 110.756 25.7C110.672 25.6907 110.602 25.6487 110.546 25.574L110.182 25.112C110.126 25.028 110.103 24.944 110.112 24.86C110.131 24.776 110.178 24.706 110.252 24.65L113.304 22.298C113.37 22.2513 113.43 22.2233 113.486 22.214C113.542 22.2047 113.603 22.2 113.668 22.2H114.382C114.476 22.2 114.55 22.2327 114.606 22.298C114.662 22.354 114.69 22.4287 114.69 22.522V31.678C114.69 31.7713 114.662 31.8507 114.606 31.916C114.55 31.972 114.476 32 114.382 32H113.64ZM116.773 32C116.679 32 116.6 31.972 116.535 31.916C116.479 31.8507 116.451 31.7713 116.451 31.678V31.23C116.451 31.146 116.474 31.0527 116.521 30.95C116.567 30.8473 116.661 30.7353 116.801 30.614L119.769 27.646C120.245 27.2447 120.618 26.904 120.889 26.624C121.169 26.3347 121.365 26.0593 121.477 25.798C121.598 25.5367 121.659 25.266 121.659 24.986C121.659 24.454 121.509 24.034 121.211 23.726C120.912 23.4087 120.469 23.25 119.881 23.25C119.507 23.25 119.185 23.3293 118.915 23.488C118.644 23.6373 118.429 23.8473 118.271 24.118C118.121 24.3793 118.023 24.678 117.977 25.014C117.958 25.1353 117.907 25.2193 117.823 25.266C117.748 25.3127 117.678 25.336 117.613 25.336H116.885C116.801 25.336 116.731 25.3127 116.675 25.266C116.619 25.21 116.591 25.1447 116.591 25.07C116.6 24.7153 116.675 24.3607 116.815 24.006C116.955 23.642 117.16 23.3153 117.431 23.026C117.711 22.7367 118.051 22.5033 118.453 22.326C118.863 22.1393 119.339 22.046 119.881 22.046C120.618 22.046 121.22 22.1813 121.687 22.452C122.163 22.7133 122.513 23.0633 122.737 23.502C122.961 23.9407 123.073 24.4213 123.073 24.944C123.073 25.3547 123.003 25.7327 122.863 26.078C122.723 26.414 122.517 26.7453 122.247 27.072C121.985 27.3893 121.659 27.716 121.267 28.052L118.579 30.782H122.947C123.049 30.782 123.129 30.81 123.185 30.866C123.25 30.922 123.283 31.0013 123.283 31.104V31.678C123.283 31.7713 123.25 31.8507 123.185 31.916C123.129 31.972 123.049 32 122.947 32H116.773ZM125.241 32C125.148 32 125.069 31.972 125.003 31.916C124.947 31.8507 124.919 31.7713 124.919 31.678V30.67C124.919 30.5767 124.947 30.502 125.003 30.446C125.069 30.3807 125.148 30.348 125.241 30.348H126.249C126.343 30.348 126.417 30.3807 126.473 30.446C126.539 30.502 126.571 30.5767 126.571 30.67V31.678C126.571 31.7713 126.539 31.8507 126.473 31.916C126.417 31.972 126.343 32 126.249 32H125.241ZM131.742 32.14C131.098 32.14 130.552 32.042 130.104 31.846C129.665 31.6407 129.306 31.3607 129.026 31.006C128.746 30.6513 128.54 30.2453 128.41 29.788C128.288 29.3307 128.218 28.8453 128.2 28.332C128.19 28.08 128.181 27.814 128.172 27.534C128.172 27.254 128.172 26.974 128.172 26.694C128.181 26.4047 128.19 26.1293 128.2 25.868C128.209 25.3547 128.279 24.8693 128.41 24.412C128.55 23.9453 128.755 23.5393 129.026 23.194C129.306 22.8393 129.67 22.564 130.118 22.368C130.566 22.1627 131.107 22.06 131.742 22.06C132.386 22.06 132.927 22.1627 133.366 22.368C133.814 22.564 134.178 22.8393 134.458 23.194C134.738 23.5393 134.943 23.9453 135.074 24.412C135.214 24.8693 135.288 25.3547 135.298 25.868C135.307 26.1293 135.312 26.4047 135.312 26.694C135.321 26.974 135.321 27.254 135.312 27.534C135.312 27.814 135.307 28.08 135.298 28.332C135.288 28.8453 135.214 29.3307 135.074 29.788C134.943 30.2453 134.738 30.6513 134.458 31.006C134.187 31.3607 133.828 31.6407 133.38 31.846C132.941 32.042 132.395 32.14 131.742 32.14ZM131.742 30.95C132.47 30.95 133.006 30.712 133.352 30.236C133.706 29.7507 133.888 29.0927 133.898 28.262C133.916 27.9913 133.926 27.73 133.926 27.478C133.926 27.2167 133.926 26.96 133.926 26.708C133.926 26.4467 133.916 26.19 133.898 25.938C133.888 25.126 133.706 24.4773 133.352 23.992C133.006 23.4973 132.47 23.25 131.742 23.25C131.023 23.25 130.486 23.4973 130.132 23.992C129.786 24.4773 129.604 25.126 129.586 25.938C129.586 26.19 129.581 26.4467 129.572 26.708C129.572 26.96 129.572 27.2167 129.572 27.478C129.581 27.73 129.586 27.9913 129.586 28.262C129.604 29.0927 129.791 29.7507 130.146 30.236C130.5 30.712 131.032 30.95 131.742 30.95ZM140.628 32.14C139.984 32.14 139.438 32.042 138.99 31.846C138.552 31.6407 138.192 31.3607 137.912 31.006C137.632 30.6513 137.427 30.2453 137.296 29.788C137.175 29.3307 137.105 28.8453 137.086 28.332C137.077 28.08 137.068 27.814 137.058 27.534C137.058 27.254 137.058 26.974 137.058 26.694C137.068 26.4047 137.077 26.1293 137.086 25.868C137.096 25.3547 137.166 24.8693 137.296 24.412C137.436 23.9453 137.642 23.5393 137.912 23.194C138.192 22.8393 138.556 22.564 139.004 22.368C139.452 22.1627 139.994 22.06 140.628 22.06C141.272 22.06 141.814 22.1627 142.252 22.368C142.7 22.564 143.064 22.8393 143.344 23.194C143.624 23.5393 143.83 23.9453 143.96 24.412C144.1 24.8693 144.175 25.3547 144.184 25.868C144.194 26.1293 144.198 26.4047 144.198 26.694C144.208 26.974 144.208 27.254 144.198 27.534C144.198 27.814 144.194 28.08 144.184 28.332C144.175 28.8453 144.1 29.3307 143.96 29.788C143.83 30.2453 143.624 30.6513 143.344 31.006C143.074 31.3607 142.714 31.6407 142.266 31.846C141.828 32.042 141.282 32.14 140.628 32.14ZM140.628 30.95C141.356 30.95 141.893 30.712 142.238 30.236C142.593 29.7507 142.775 29.0927 142.784 28.262C142.803 27.9913 142.812 27.73 142.812 27.478C142.812 27.2167 142.812 26.96 142.812 26.708C142.812 26.4467 142.803 26.19 142.784 25.938C142.775 25.126 142.593 24.4773 142.238 23.992C141.893 23.4973 141.356 23.25 140.628 23.25C139.91 23.25 139.373 23.4973 139.018 23.992C138.673 24.4773 138.491 25.126 138.472 25.938C138.472 26.19 138.468 26.4467 138.458 26.708C138.458 26.96 138.458 27.2167 138.458 27.478C138.468 27.73 138.472 27.9913 138.472 28.262C138.491 29.0927 138.678 29.7507 139.032 30.236C139.387 30.712 139.919 30.95 140.628 30.95ZM151.575 32.14C151.108 32.14 150.683 32.0467 150.301 31.86C149.918 31.6733 149.61 31.4213 149.377 31.104C149.143 30.7867 149.027 30.4273 149.027 30.026C149.027 29.382 149.288 28.8687 149.811 28.486C150.333 28.1033 151.015 27.8513 151.855 27.73L153.941 27.436V27.03C153.941 26.582 153.81 26.232 153.549 25.98C153.297 25.728 152.881 25.602 152.303 25.602C151.883 25.602 151.542 25.686 151.281 25.854C151.029 26.022 150.851 26.2367 150.749 26.498C150.693 26.638 150.595 26.708 150.455 26.708H149.825C149.722 26.708 149.643 26.68 149.587 26.624C149.54 26.5587 149.517 26.484 149.517 26.4C149.517 26.26 149.568 26.0873 149.671 25.882C149.783 25.6767 149.951 25.476 150.175 25.28C150.399 25.084 150.683 24.9207 151.029 24.79C151.383 24.65 151.813 24.58 152.317 24.58C152.877 24.58 153.348 24.6547 153.731 24.804C154.113 24.944 154.412 25.1353 154.627 25.378C154.851 25.6207 155.009 25.896 155.103 26.204C155.205 26.512 155.257 26.8247 155.257 27.142V31.678C155.257 31.7713 155.224 31.8507 155.159 31.916C155.103 31.972 155.028 32 154.935 32H154.291C154.188 32 154.109 31.972 154.053 31.916C153.997 31.8507 153.969 31.7713 153.969 31.678V31.076C153.847 31.244 153.684 31.412 153.479 31.58C153.273 31.7387 153.017 31.874 152.709 31.986C152.401 32.0887 152.023 32.14 151.575 32.14ZM151.869 31.09C152.251 31.09 152.601 31.0107 152.919 30.852C153.236 30.684 153.483 30.4273 153.661 30.082C153.847 29.7367 153.941 29.3027 153.941 28.78V28.388L152.317 28.626C151.654 28.7193 151.155 28.878 150.819 29.102C150.483 29.3167 150.315 29.592 150.315 29.928C150.315 30.1893 150.389 30.4087 150.539 30.586C150.697 30.754 150.893 30.88 151.127 30.964C151.369 31.048 151.617 31.09 151.869 31.09ZM159.174 32C159.053 32 158.959 31.972 158.894 31.916C158.829 31.8507 158.773 31.762 158.726 31.65L156.738 25.154C156.719 25.1073 156.71 25.0607 156.71 25.014C156.71 24.93 156.738 24.86 156.794 24.804C156.859 24.748 156.929 24.72 157.004 24.72H157.62C157.723 24.72 157.802 24.748 157.858 24.804C157.914 24.86 157.951 24.9113 157.97 24.958L159.524 30.236L161.19 25.014C161.209 24.9487 161.246 24.8833 161.302 24.818C161.367 24.7527 161.461 24.72 161.582 24.72H162.058C162.179 24.72 162.273 24.7527 162.338 24.818C162.403 24.8833 162.441 24.9487 162.45 25.014L164.116 30.236L165.67 24.958C165.679 24.9113 165.712 24.86 165.768 24.804C165.824 24.748 165.903 24.72 166.006 24.72H166.622C166.706 24.72 166.776 24.748 166.832 24.804C166.888 24.86 166.916 24.93 166.916 25.014C166.916 25.0607 166.907 25.1073 166.888 25.154L164.9 31.65C164.872 31.762 164.821 31.8507 164.746 31.916C164.681 31.972 164.583 32 164.452 32H163.906C163.785 32 163.682 31.972 163.598 31.916C163.523 31.8507 163.472 31.762 163.444 31.65L161.82 26.638L160.196 31.65C160.159 31.762 160.103 31.8507 160.028 31.916C159.953 31.972 159.851 32 159.72 32H159.174ZM170.292 32.14C169.825 32.14 169.4 32.0467 169.018 31.86C168.635 31.6733 168.327 31.4213 168.094 31.104C167.86 30.7867 167.744 30.4273 167.744 30.026C167.744 29.382 168.005 28.8687 168.528 28.486C169.05 28.1033 169.732 27.8513 170.572 27.73L172.658 27.436V27.03C172.658 26.582 172.527 26.232 172.266 25.98C172.014 25.728 171.598 25.602 171.02 25.602C170.6 25.602 170.259 25.686 169.998 25.854C169.746 26.022 169.568 26.2367 169.466 26.498C169.41 26.638 169.312 26.708 169.172 26.708H168.542C168.439 26.708 168.36 26.68 168.304 26.624C168.257 26.5587 168.234 26.484 168.234 26.4C168.234 26.26 168.285 26.0873 168.388 25.882C168.5 25.6767 168.668 25.476 168.892 25.28C169.116 25.084 169.4 24.9207 169.746 24.79C170.1 24.65 170.53 24.58 171.034 24.58C171.594 24.58 172.065 24.6547 172.448 24.804C172.83 24.944 173.129 25.1353 173.344 25.378C173.568 25.6207 173.726 25.896 173.82 26.204C173.922 26.512 173.974 26.8247 173.974 27.142V31.678C173.974 31.7713 173.941 31.8507 173.876 31.916C173.82 31.972 173.745 32 173.652 32H173.008C172.905 32 172.826 31.972 172.77 31.916C172.714 31.8507 172.686 31.7713 172.686 31.678V31.076C172.564 31.244 172.401 31.412 172.196 31.58C171.99 31.7387 171.734 31.874 171.426 31.986C171.118 32.0887 170.74 32.14 170.292 32.14ZM170.586 31.09C170.968 31.09 171.318 31.0107 171.636 30.852C171.953 30.684 172.2 30.4273 172.378 30.082C172.564 29.7367 172.658 29.3027 172.658 28.78V28.388L171.034 28.626C170.371 28.7193 169.872 28.878 169.536 29.102C169.2 29.3167 169.032 29.592 169.032 29.928C169.032 30.1893 169.106 30.4087 169.256 30.586C169.414 30.754 169.61 30.88 169.844 30.964C170.086 31.048 170.334 31.09 170.586 31.09ZM177.11 34.66C177.035 34.66 176.97 34.632 176.914 34.576C176.858 34.52 176.83 34.4547 176.83 34.38C176.83 34.3427 176.834 34.3053 176.844 34.268C176.853 34.2307 176.872 34.184 176.9 34.128L177.978 31.566L175.304 25.252C175.257 25.14 175.234 25.0607 175.234 25.014C175.234 24.93 175.262 24.86 175.318 24.804C175.374 24.748 175.444 24.72 175.528 24.72H176.214C176.307 24.72 176.382 24.7433 176.438 24.79C176.494 24.8367 176.531 24.8927 176.55 24.958L178.678 30.054L180.862 24.958C180.89 24.8927 180.927 24.8367 180.974 24.79C181.03 24.7433 181.109 24.72 181.212 24.72H181.87C181.954 24.72 182.024 24.748 182.08 24.804C182.136 24.86 182.164 24.9253 182.164 25C182.164 25.0467 182.14 25.1307 182.094 25.252L178.118 34.422C178.09 34.4873 178.048 34.5433 177.992 34.59C177.945 34.6367 177.87 34.66 177.768 34.66H177.11ZM187.399 32C187.306 32 187.227 31.972 187.161 31.916C187.105 31.8507 187.077 31.7713 187.077 31.678V25.84H185.887C185.794 25.84 185.715 25.812 185.649 25.756C185.593 25.6907 185.565 25.6113 185.565 25.518V25.042C185.565 24.9487 185.593 24.874 185.649 24.818C185.715 24.7527 185.794 24.72 185.887 24.72H187.077V24.02C187.077 23.544 187.157 23.1287 187.315 22.774C187.474 22.41 187.726 22.13 188.071 21.934C188.426 21.738 188.897 21.64 189.485 21.64H190.325C190.419 21.64 190.493 21.6727 190.549 21.738C190.605 21.794 190.633 21.8687 190.633 21.962V22.438C190.633 22.5313 190.605 22.6107 190.549 22.676C190.493 22.732 190.419 22.76 190.325 22.76H189.513C189.075 22.76 188.776 22.8767 188.617 23.11C188.459 23.334 188.379 23.6607 188.379 24.09V24.72H190.185C190.279 24.72 190.353 24.7527 190.409 24.818C190.465 24.874 190.493 24.9487 190.493 25.042V25.518C190.493 25.6113 190.465 25.6907 190.409 25.756C190.353 25.812 190.279 25.84 190.185 25.84H188.379V31.678C188.379 31.7713 188.347 31.8507 188.281 31.916C188.225 31.972 188.151 32 188.057 32H187.399ZM192.058 32C191.965 32 191.886 31.972 191.82 31.916C191.764 31.8507 191.736 31.7713 191.736 31.678V25.056C191.736 24.9627 191.764 24.8833 191.82 24.818C191.886 24.7527 191.965 24.72 192.058 24.72H192.702C192.796 24.72 192.875 24.7527 192.94 24.818C193.006 24.8833 193.038 24.9627 193.038 25.056V25.672C193.225 25.3547 193.482 25.1167 193.808 24.958C194.135 24.7993 194.527 24.72 194.984 24.72H195.544C195.638 24.72 195.712 24.7527 195.768 24.818C195.824 24.874 195.852 24.9487 195.852 25.042V25.616C195.852 25.7093 195.824 25.784 195.768 25.84C195.712 25.896 195.638 25.924 195.544 25.924H194.704C194.2 25.924 193.804 26.0733 193.514 26.372C193.225 26.6613 193.08 27.058 193.08 27.562V31.678C193.08 31.7713 193.048 31.8507 192.982 31.916C192.917 31.972 192.838 32 192.744 32H192.058ZM199.9 32.14C199.191 32.14 198.598 32.0047 198.122 31.734C197.646 31.4633 197.282 31.09 197.03 30.614C196.778 30.1287 196.638 29.578 196.61 28.962C196.601 28.8033 196.596 28.6027 196.596 28.36C196.596 28.108 196.601 27.9073 196.61 27.758C196.638 27.1327 196.778 26.582 197.03 26.106C197.291 25.63 197.66 25.2567 198.136 24.986C198.612 24.7153 199.2 24.58 199.9 24.58C200.6 24.58 201.188 24.7153 201.664 24.986C202.14 25.2567 202.504 25.63 202.756 26.106C203.017 26.582 203.162 27.1327 203.19 27.758C203.199 27.9073 203.204 28.108 203.204 28.36C203.204 28.6027 203.199 28.8033 203.19 28.962C203.162 29.578 203.022 30.1287 202.77 30.614C202.518 31.09 202.154 31.4633 201.678 31.734C201.202 32.0047 200.609 32.14 199.9 32.14ZM199.9 31.062C200.479 31.062 200.941 30.88 201.286 30.516C201.631 30.1427 201.818 29.6013 201.846 28.892C201.855 28.752 201.86 28.5747 201.86 28.36C201.86 28.1453 201.855 27.968 201.846 27.828C201.818 27.1187 201.631 26.582 201.286 26.218C200.941 25.8447 200.479 25.658 199.9 25.658C199.321 25.658 198.855 25.8447 198.5 26.218C198.155 26.582 197.973 27.1187 197.954 27.828C197.945 27.968 197.94 28.1453 197.94 28.36C197.94 28.5747 197.945 28.752 197.954 28.892C197.973 29.6013 198.155 30.1427 198.5 30.516C198.855 30.88 199.321 31.062 199.9 31.062ZM205.279 32C205.186 32 205.106 31.972 205.041 31.916C204.985 31.8507 204.957 31.7713 204.957 31.678V25.042C204.957 24.9487 204.985 24.874 205.041 24.818C205.106 24.7527 205.186 24.72 205.279 24.72H205.909C206.002 24.72 206.077 24.7527 206.133 24.818C206.198 24.874 206.231 24.9487 206.231 25.042V25.532C206.446 25.2427 206.716 25.014 207.043 24.846C207.37 24.6687 207.762 24.58 208.219 24.58C209.274 24.5707 210.02 25 210.459 25.868C210.674 25.476 210.986 25.1633 211.397 24.93C211.808 24.6967 212.274 24.58 212.797 24.58C213.282 24.58 213.721 24.692 214.113 24.916C214.514 25.14 214.827 25.4807 215.051 25.938C215.284 26.386 215.401 26.9507 215.401 27.632V31.678C215.401 31.7713 215.368 31.8507 215.303 31.916C215.247 31.972 215.172 32 215.079 32H214.421C214.328 32 214.248 31.972 214.183 31.916C214.127 31.8507 214.099 31.7713 214.099 31.678V27.758C214.099 27.2353 214.024 26.8247 213.875 26.526C213.726 26.2273 213.525 26.0173 213.273 25.896C213.021 25.7747 212.746 25.714 212.447 25.714C212.204 25.714 211.957 25.7747 211.705 25.896C211.453 26.0173 211.243 26.2273 211.075 26.526C210.916 26.8247 210.837 27.2353 210.837 27.758V31.678C210.837 31.7713 210.804 31.8507 210.739 31.916C210.683 31.972 210.608 32 210.515 32H209.857C209.764 32 209.684 31.972 209.619 31.916C209.563 31.8507 209.535 31.7713 209.535 31.678V27.758C209.535 27.2353 209.456 26.8247 209.297 26.526C209.138 26.2273 208.933 26.0173 208.681 25.896C208.429 25.7747 208.163 25.714 207.883 25.714C207.64 25.714 207.393 25.7747 207.141 25.896C206.889 26.0173 206.679 26.2273 206.511 26.526C206.352 26.8247 206.273 27.2307 206.273 27.744V31.678C206.273 31.7713 206.24 31.8507 206.175 31.916C206.119 31.972 206.044 32 205.951 32H205.279ZM221.334 32C221.231 32 221.152 31.972 221.096 31.916C221.04 31.8507 221.012 31.7713 221.012 31.678V22.536C221.012 22.4333 221.04 22.354 221.096 22.298C221.152 22.2327 221.231 22.2 221.334 22.2H227.046C227.149 22.2 227.228 22.2327 227.284 22.298C227.34 22.354 227.368 22.4333 227.368 22.536V23.096C227.368 23.1987 227.34 23.278 227.284 23.334C227.228 23.39 227.149 23.418 227.046 23.418H222.37V26.68H226.766C226.869 26.68 226.948 26.7127 227.004 26.778C227.06 26.834 227.088 26.9133 227.088 27.016V27.576C227.088 27.6693 227.06 27.7487 227.004 27.814C226.948 27.87 226.869 27.898 226.766 27.898H222.37V31.678C222.37 31.7713 222.337 31.8507 222.272 31.916C222.216 31.972 222.137 32 222.034 32H221.334ZM229.136 32C229.043 32 228.964 31.972 228.898 31.916C228.842 31.8507 228.814 31.7713 228.814 31.678V25.056C228.814 24.9627 228.842 24.8833 228.898 24.818C228.964 24.7527 229.043 24.72 229.136 24.72H229.78C229.874 24.72 229.953 24.7527 230.018 24.818C230.084 24.8833 230.116 24.9627 230.116 25.056V25.672C230.303 25.3547 230.56 25.1167 230.886 24.958C231.213 24.7993 231.605 24.72 232.062 24.72H232.622C232.716 24.72 232.79 24.7527 232.846 24.818C232.902 24.874 232.93 24.9487 232.93 25.042V25.616C232.93 25.7093 232.902 25.784 232.846 25.84C232.79 25.896 232.716 25.924 232.622 25.924H231.782C231.278 25.924 230.882 26.0733 230.592 26.372C230.303 26.6613 230.158 27.058 230.158 27.562V31.678C230.158 31.7713 230.126 31.8507 230.06 31.916C229.995 31.972 229.916 32 229.822 32H229.136ZM236.894 32.14C235.933 32.14 235.167 31.846 234.598 31.258C234.029 30.6607 233.716 29.8487 233.66 28.822C233.651 28.7007 233.646 28.5467 233.646 28.36C233.646 28.164 233.651 28.0053 233.66 27.884C233.697 27.2213 233.851 26.6427 234.122 26.148C234.393 25.644 234.761 25.2567 235.228 24.986C235.704 24.7153 236.259 24.58 236.894 24.58C237.603 24.58 238.196 24.7293 238.672 25.028C239.157 25.3267 239.526 25.7513 239.778 26.302C240.03 26.8527 240.156 27.4967 240.156 28.234V28.472C240.156 28.5747 240.123 28.654 240.058 28.71C240.002 28.766 239.927 28.794 239.834 28.794H234.99C234.99 28.8033 234.99 28.822 234.99 28.85C234.99 28.878 234.99 28.9013 234.99 28.92C235.009 29.3027 235.093 29.662 235.242 29.998C235.391 30.3247 235.606 30.5907 235.886 30.796C236.166 31.0013 236.502 31.104 236.894 31.104C237.23 31.104 237.51 31.0527 237.734 30.95C237.958 30.8473 238.14 30.7353 238.28 30.614C238.42 30.4833 238.513 30.3853 238.56 30.32C238.644 30.1987 238.709 30.1287 238.756 30.11C238.803 30.082 238.877 30.068 238.98 30.068H239.652C239.745 30.068 239.82 30.096 239.876 30.152C239.941 30.1987 239.969 30.2687 239.96 30.362C239.951 30.502 239.876 30.6747 239.736 30.88C239.596 31.076 239.395 31.272 239.134 31.468C238.873 31.664 238.555 31.8273 238.182 31.958C237.809 32.0793 237.379 32.14 236.894 32.14ZM234.99 27.828H238.826V27.786C238.826 27.366 238.747 26.9927 238.588 26.666C238.439 26.3393 238.219 26.0827 237.93 25.896C237.641 25.7 237.295 25.602 236.894 25.602C236.493 25.602 236.147 25.7 235.858 25.896C235.578 26.0827 235.363 26.3393 235.214 26.666C235.065 26.9927 234.99 27.366 234.99 27.786V27.828ZM244.728 32.14C243.767 32.14 243.001 31.846 242.432 31.258C241.863 30.6607 241.55 29.8487 241.494 28.822C241.485 28.7007 241.48 28.5467 241.48 28.36C241.48 28.164 241.485 28.0053 241.494 27.884C241.531 27.2213 241.685 26.6427 241.956 26.148C242.227 25.644 242.595 25.2567 243.062 24.986C243.538 24.7153 244.093 24.58 244.728 24.58C245.437 24.58 246.03 24.7293 246.506 25.028C246.991 25.3267 247.36 25.7513 247.612 26.302C247.864 26.8527 247.99 27.4967 247.99 28.234V28.472C247.99 28.5747 247.957 28.654 247.892 28.71C247.836 28.766 247.761 28.794 247.668 28.794H242.824C242.824 28.8033 242.824 28.822 242.824 28.85C242.824 28.878 242.824 28.9013 242.824 28.92C242.843 29.3027 242.927 29.662 243.076 29.998C243.225 30.3247 243.44 30.5907 243.72 30.796C244 31.0013 244.336 31.104 244.728 31.104C245.064 31.104 245.344 31.0527 245.568 30.95C245.792 30.8473 245.974 30.7353 246.114 30.614C246.254 30.4833 246.347 30.3853 246.394 30.32C246.478 30.1987 246.543 30.1287 246.59 30.11C246.637 30.082 246.711 30.068 246.814 30.068H247.486C247.579 30.068 247.654 30.096 247.71 30.152C247.775 30.1987 247.803 30.2687 247.794 30.362C247.785 30.502 247.71 30.6747 247.57 30.88C247.43 31.076 247.229 31.272 246.968 31.468C246.707 31.664 246.389 31.8273 246.016 31.958C245.643 32.0793 245.213 32.14 244.728 32.14ZM242.824 27.828H246.66V27.786C246.66 27.366 246.581 26.9927 246.422 26.666C246.273 26.3393 246.053 26.0827 245.764 25.896C245.475 25.7 245.129 25.602 244.728 25.602C244.327 25.602 243.981 25.7 243.692 25.896C243.412 26.0827 243.197 26.3393 243.048 26.666C242.899 26.9927 242.824 27.366 242.824 27.786V27.828ZM256.428 32.14C255.616 32.14 254.934 32.0187 254.384 31.776C253.833 31.524 253.408 31.202 253.11 30.81C252.82 30.4087 252.666 29.984 252.648 29.536C252.648 29.4613 252.676 29.396 252.732 29.34C252.797 29.2747 252.872 29.242 252.956 29.242H253.67C253.782 29.242 253.866 29.27 253.922 29.326C253.978 29.382 254.015 29.4473 254.034 29.522C254.08 29.746 254.192 29.97 254.37 30.194C254.556 30.4087 254.813 30.5907 255.14 30.74C255.476 30.88 255.905 30.95 256.428 30.95C257.23 30.95 257.818 30.81 258.192 30.53C258.574 30.2407 258.766 29.858 258.766 29.382C258.766 29.0553 258.663 28.794 258.458 28.598C258.262 28.3927 257.958 28.2107 257.548 28.052C257.137 27.8933 256.605 27.7207 255.952 27.534C255.27 27.338 254.706 27.1233 254.258 26.89C253.81 26.6567 253.474 26.3673 253.25 26.022C253.035 25.6767 252.928 25.238 252.928 24.706C252.928 24.202 253.063 23.754 253.334 23.362C253.604 22.9607 253.992 22.6433 254.496 22.41C255.009 22.1767 255.63 22.06 256.358 22.06C256.936 22.06 257.44 22.1393 257.87 22.298C258.308 22.4473 258.672 22.6527 258.962 22.914C259.251 23.166 259.47 23.4413 259.62 23.74C259.769 24.0293 259.848 24.314 259.858 24.594C259.858 24.6593 259.834 24.7247 259.788 24.79C259.741 24.846 259.666 24.874 259.564 24.874H258.822C258.756 24.874 258.686 24.8553 258.612 24.818C258.546 24.7807 258.495 24.7107 258.458 24.608C258.402 24.2253 258.187 23.9033 257.814 23.642C257.44 23.3807 256.955 23.25 256.358 23.25C255.751 23.25 255.256 23.3667 254.874 23.6C254.5 23.8333 254.314 24.1973 254.314 24.692C254.314 25.0093 254.402 25.2753 254.58 25.49C254.757 25.6953 255.037 25.8773 255.42 26.036C255.802 26.1947 256.302 26.3627 256.918 26.54C257.664 26.7453 258.276 26.9647 258.752 27.198C259.228 27.422 259.578 27.7067 259.802 28.052C260.035 28.388 260.152 28.822 260.152 29.354C260.152 29.942 259.998 30.446 259.69 30.866C259.382 31.2767 258.948 31.594 258.388 31.818C257.837 32.0327 257.184 32.14 256.428 32.14ZM262.141 32C262.047 32 261.968 31.972 261.903 31.916C261.847 31.8507 261.819 31.7713 261.819 31.678V22.382C261.819 22.2887 261.847 22.214 261.903 22.158C261.968 22.0927 262.047 22.06 262.141 22.06H262.841C262.943 22.06 263.023 22.0927 263.079 22.158C263.135 22.214 263.163 22.2887 263.163 22.382V25.644C263.415 25.3267 263.723 25.07 264.087 24.874C264.451 24.678 264.913 24.58 265.473 24.58C266.079 24.58 266.593 24.7153 267.013 24.986C267.442 25.2473 267.764 25.616 267.979 26.092C268.203 26.5587 268.315 27.1047 268.315 27.73V31.678C268.315 31.7713 268.287 31.8507 268.231 31.916C268.175 31.972 268.095 32 267.993 32H267.293C267.199 32 267.12 31.972 267.055 31.916C266.999 31.8507 266.971 31.7713 266.971 31.678V27.8C266.971 27.1467 266.812 26.638 266.495 26.274C266.177 25.9007 265.711 25.714 265.095 25.714C264.516 25.714 264.049 25.9007 263.695 26.274C263.34 26.638 263.163 27.1467 263.163 27.8V31.678C263.163 31.7713 263.135 31.8507 263.079 31.916C263.023 31.972 262.943 32 262.841 32H262.141ZM270.658 32C270.564 32 270.485 31.972 270.42 31.916C270.364 31.8507 270.336 31.7713 270.336 31.678V25.042C270.336 24.9487 270.364 24.874 270.42 24.818C270.485 24.7527 270.564 24.72 270.658 24.72H271.33C271.423 24.72 271.498 24.7527 271.554 24.818C271.61 24.874 271.638 24.9487 271.638 25.042V31.678C271.638 31.7713 271.61 31.8507 271.554 31.916C271.498 31.972 271.423 32 271.33 32H270.658ZM270.546 23.362C270.452 23.362 270.373 23.334 270.308 23.278C270.252 23.2127 270.224 23.1333 270.224 23.04V22.284C270.224 22.1907 270.252 22.116 270.308 22.06C270.373 21.9947 270.452 21.962 270.546 21.962H271.428C271.521 21.962 271.596 21.9947 271.652 22.06C271.717 22.116 271.75 22.1907 271.75 22.284V23.04C271.75 23.1333 271.717 23.2127 271.652 23.278C271.596 23.334 271.521 23.362 271.428 23.362H270.546ZM274.199 34.66C274.106 34.66 274.026 34.6273 273.961 34.562C273.905 34.506 273.877 34.4313 273.877 34.338V25.042C273.877 24.9487 273.905 24.874 273.961 24.818C274.026 24.7527 274.106 24.72 274.199 24.72H274.843C274.936 24.72 275.011 24.7527 275.067 24.818C275.132 24.874 275.165 24.9487 275.165 25.042V25.658C275.389 25.35 275.688 25.0933 276.061 24.888C276.434 24.6827 276.901 24.58 277.461 24.58C277.984 24.58 278.427 24.6687 278.791 24.846C279.164 25.0233 279.468 25.266 279.701 25.574C279.944 25.882 280.126 26.232 280.247 26.624C280.368 27.016 280.434 27.436 280.443 27.884C280.452 28.0333 280.457 28.192 280.457 28.36C280.457 28.528 280.452 28.6867 280.443 28.836C280.434 29.2747 280.368 29.6947 280.247 30.096C280.126 30.488 279.944 30.838 279.701 31.146C279.468 31.4447 279.164 31.6873 278.791 31.874C278.427 32.0513 277.984 32.14 277.461 32.14C276.92 32.14 276.462 32.042 276.089 31.846C275.725 31.6407 275.426 31.3887 275.193 31.09V34.338C275.193 34.4313 275.165 34.506 275.109 34.562C275.053 34.6273 274.974 34.66 274.871 34.66H274.199ZM277.167 31.006C277.652 31.006 278.03 30.9033 278.301 30.698C278.581 30.4833 278.782 30.208 278.903 29.872C279.024 29.5267 279.094 29.158 279.113 28.766C279.122 28.4953 279.122 28.2247 279.113 27.954C279.094 27.562 279.024 27.198 278.903 26.862C278.782 26.5167 278.581 26.2413 278.301 26.036C278.03 25.8213 277.652 25.714 277.167 25.714C276.71 25.714 276.336 25.8213 276.047 26.036C275.767 26.2507 275.557 26.526 275.417 26.862C275.286 27.1887 275.212 27.5247 275.193 27.87C275.184 28.0193 275.179 28.1967 275.179 28.402C275.179 28.6073 275.184 28.7893 275.193 28.948C275.202 29.2747 275.277 29.5967 275.417 29.914C275.566 30.2313 275.786 30.4927 276.075 30.698C276.364 30.9033 276.728 31.006 277.167 31.006ZM282.539 34.66C282.446 34.66 282.366 34.6273 282.301 34.562C282.245 34.506 282.217 34.4313 282.217 34.338V25.042C282.217 24.9487 282.245 24.874 282.301 24.818C282.366 24.7527 282.446 24.72 282.539 24.72H283.183C283.276 24.72 283.351 24.7527 283.407 24.818C283.472 24.874 283.505 24.9487 283.505 25.042V25.658C283.729 25.35 284.028 25.0933 284.401 24.888C284.774 24.6827 285.241 24.58 285.801 24.58C286.324 24.58 286.767 24.6687 287.131 24.846C287.504 25.0233 287.808 25.266 288.041 25.574C288.284 25.882 288.466 26.232 288.587 26.624C288.708 27.016 288.774 27.436 288.783 27.884C288.792 28.0333 288.797 28.192 288.797 28.36C288.797 28.528 288.792 28.6867 288.783 28.836C288.774 29.2747 288.708 29.6947 288.587 30.096C288.466 30.488 288.284 30.838 288.041 31.146C287.808 31.4447 287.504 31.6873 287.131 31.874C286.767 32.0513 286.324 32.14 285.801 32.14C285.26 32.14 284.802 32.042 284.429 31.846C284.065 31.6407 283.766 31.3887 283.533 31.09V34.338C283.533 34.4313 283.505 34.506 283.449 34.562C283.393 34.6273 283.314 34.66 283.211 34.66H282.539ZM285.507 31.006C285.992 31.006 286.37 30.9033 286.641 30.698C286.921 30.4833 287.122 30.208 287.243 29.872C287.364 29.5267 287.434 29.158 287.453 28.766C287.462 28.4953 287.462 28.2247 287.453 27.954C287.434 27.562 287.364 27.198 287.243 26.862C287.122 26.5167 286.921 26.2413 286.641 26.036C286.37 25.8213 285.992 25.714 285.507 25.714C285.05 25.714 284.676 25.8213 284.387 26.036C284.107 26.2507 283.897 26.526 283.757 26.862C283.626 27.1887 283.552 27.5247 283.533 27.87C283.524 28.0193 283.519 28.1967 283.519 28.402C283.519 28.6073 283.524 28.7893 283.533 28.948C283.542 29.2747 283.617 29.5967 283.757 29.914C283.906 30.2313 284.126 30.4927 284.415 30.698C284.704 30.9033 285.068 31.006 285.507 31.006ZM290.865 32C290.772 32 290.692 31.972 290.627 31.916C290.571 31.8507 290.543 31.7713 290.543 31.678V25.042C290.543 24.9487 290.571 24.874 290.627 24.818C290.692 24.7527 290.772 24.72 290.865 24.72H291.537C291.63 24.72 291.705 24.7527 291.761 24.818C291.817 24.874 291.845 24.9487 291.845 25.042V31.678C291.845 31.7713 291.817 31.8507 291.761 31.916C291.705 31.972 291.63 32 291.537 32H290.865ZM290.753 23.362C290.66 23.362 290.58 23.334 290.515 23.278C290.459 23.2127 290.431 23.1333 290.431 23.04V22.284C290.431 22.1907 290.459 22.116 290.515 22.06C290.58 21.9947 290.66 21.962 290.753 21.962H291.635C291.728 21.962 291.803 21.9947 291.859 22.06C291.924 22.116 291.957 22.1907 291.957 22.284V23.04C291.957 23.1333 291.924 23.2127 291.859 23.278C291.803 23.334 291.728 23.362 291.635 23.362H290.753ZM294.392 32C294.299 32 294.22 31.972 294.154 31.916C294.098 31.8507 294.07 31.7713 294.07 31.678V25.042C294.07 24.9487 294.098 24.874 294.154 24.818C294.22 24.7527 294.299 24.72 294.392 24.72H295.05C295.144 24.72 295.218 24.7527 295.274 24.818C295.34 24.874 295.372 24.9487 295.372 25.042V25.658C295.615 25.3407 295.918 25.084 296.282 24.888C296.656 24.6827 297.132 24.58 297.71 24.58C298.317 24.58 298.83 24.7153 299.25 24.986C299.68 25.2473 300.002 25.616 300.216 26.092C300.431 26.5587 300.538 27.1047 300.538 27.73V31.678C300.538 31.7713 300.51 31.8507 300.454 31.916C300.398 31.972 300.324 32 300.23 32H299.53C299.437 32 299.358 31.972 299.292 31.916C299.236 31.8507 299.208 31.7713 299.208 31.678V27.8C299.208 27.1467 299.05 26.638 298.732 26.274C298.415 25.9007 297.948 25.714 297.332 25.714C296.754 25.714 296.287 25.9007 295.932 26.274C295.587 26.638 295.414 27.1467 295.414 27.8V31.678C295.414 31.7713 295.382 31.8507 295.316 31.916C295.26 31.972 295.186 32 295.092 32H294.392ZM305.542 35.08C304.908 35.08 304.385 34.996 303.974 34.828C303.573 34.66 303.256 34.4547 303.022 34.212C302.798 33.9787 302.635 33.7407 302.532 33.498C302.439 33.2647 302.388 33.078 302.378 32.938C302.369 32.8447 302.397 32.7653 302.462 32.7C302.537 32.6347 302.616 32.602 302.7 32.602H303.372C303.456 32.602 303.526 32.6207 303.582 32.658C303.638 32.6953 303.685 32.7747 303.722 32.896C303.778 33.036 303.862 33.19 303.974 33.358C304.086 33.5353 304.259 33.6847 304.492 33.806C304.726 33.9367 305.052 34.002 305.472 34.002C305.911 34.002 306.28 33.9413 306.578 33.82C306.877 33.708 307.101 33.5027 307.25 33.204C307.409 32.9147 307.488 32.5133 307.488 32V31.048C307.264 31.3373 306.97 31.58 306.606 31.776C306.242 31.9627 305.785 32.056 305.234 32.056C304.712 32.056 304.264 31.9673 303.89 31.79C303.517 31.6033 303.209 31.356 302.966 31.048C302.733 30.7307 302.556 30.3713 302.434 29.97C302.322 29.5687 302.257 29.1487 302.238 28.71C302.229 28.4487 302.229 28.192 302.238 27.94C302.257 27.5013 302.322 27.0813 302.434 26.68C302.556 26.2787 302.733 25.9193 302.966 25.602C303.209 25.2847 303.517 25.0373 303.89 24.86C304.264 24.6733 304.712 24.58 305.234 24.58C305.794 24.58 306.256 24.6873 306.62 24.902C306.994 25.1073 307.297 25.3593 307.53 25.658V25.056C307.53 24.9627 307.558 24.8833 307.614 24.818C307.68 24.7527 307.759 24.72 307.852 24.72H308.496C308.59 24.72 308.669 24.7527 308.734 24.818C308.8 24.8833 308.832 24.9627 308.832 25.056V31.846C308.832 32.4713 308.725 33.0267 308.51 33.512C308.305 33.9973 307.96 34.38 307.474 34.66C306.998 34.94 306.354 35.08 305.542 35.08ZM305.514 30.936C305.981 30.936 306.354 30.8287 306.634 30.614C306.924 30.3993 307.134 30.1287 307.264 29.802C307.404 29.4753 307.479 29.144 307.488 28.808C307.498 28.6773 307.502 28.5187 307.502 28.332C307.502 28.136 307.498 27.9727 307.488 27.842C307.479 27.506 307.404 27.1747 307.264 26.848C307.134 26.5213 306.924 26.2507 306.634 26.036C306.354 25.8213 305.981 25.714 305.514 25.714C305.048 25.714 304.674 25.8213 304.394 26.036C304.114 26.2413 303.914 26.5167 303.792 26.862C303.671 27.198 303.601 27.562 303.582 27.954C303.573 28.1967 303.573 28.444 303.582 28.696C303.601 29.088 303.671 29.4567 303.792 29.802C303.914 30.138 304.114 30.4133 304.394 30.628C304.674 30.8333 305.048 30.936 305.514 30.936Z" fill="#7373D7"/>
</svg>
