<svg width="89" height="26" viewBox="0 0 89 26" fill="none" xmlns="http://www.w3.org/2000/svg">
<path d="M4.864 18.16C4 18.16 3.264 18.0213 2.656 17.744C2.05867 17.4667 1.6 17.1093 1.28 16.672C0.96 16.2347 0.789333 15.7707 0.768 15.28C0.768 15.1947 0.8 15.12 0.864 15.056C0.928 14.992 1.008 14.96 1.104 14.96H1.424C1.53067 14.96 1.61067 14.992 1.664 15.056C1.728 15.12 1.76533 15.1947 1.776 15.28C1.81867 15.5787 1.952 15.8773 2.176 16.176C2.4 16.464 2.73067 16.7093 3.168 16.912C3.60533 17.104 4.17067 17.2 4.864 17.2C5.90933 17.2 6.672 17.0133 7.152 16.64C7.632 16.256 7.872 15.744 7.872 15.104C7.872 14.6773 7.744 14.336 7.488 14.08C7.24267 13.8133 6.864 13.5787 6.352 13.376C5.84 13.1627 5.184 12.928 4.384 12.672C3.62667 12.4267 3.00267 12.176 2.512 11.92C2.02133 11.6533 1.65867 11.3333 1.424 10.96C1.2 10.5867 1.088 10.1067 1.088 9.52C1.088 8.976 1.232 8.49067 1.52 8.064C1.808 7.62667 2.224 7.28 2.768 7.024C3.32267 6.768 3.99467 6.64 4.784 6.64C5.41333 6.64 5.96267 6.72533 6.432 6.896C6.90133 7.06667 7.29067 7.296 7.6 7.584C7.90933 7.86133 8.144 8.16533 8.304 8.496C8.464 8.816 8.54933 9.13067 8.56 9.44C8.56 9.51467 8.53333 9.58933 8.48 9.664C8.42667 9.728 8.34133 9.76 8.224 9.76H7.904C7.85067 9.76 7.78133 9.73867 7.696 9.696C7.62133 9.65333 7.57333 9.568 7.552 9.44C7.488 8.90667 7.20533 8.46933 6.704 8.128C6.21333 7.776 5.57333 7.6 4.784 7.6C3.99467 7.6 3.34933 7.75467 2.848 8.064C2.34667 8.37333 2.096 8.85867 2.096 9.52C2.096 9.94667 2.208 10.2987 2.432 10.576C2.656 10.8427 3.008 11.0827 3.488 11.296C3.968 11.4987 4.58667 11.7227 5.344 11.968C6.144 12.224 6.80533 12.48 7.328 12.736C7.85067 12.992 8.24 13.3067 8.496 13.68C8.752 14.0427 8.88 14.5173 8.88 15.104C8.88 15.7547 8.71467 16.3093 8.384 16.768C8.064 17.216 7.60533 17.5627 7.008 17.808C6.41067 18.0427 5.696 18.16 4.864 18.16ZM14.1515 18.16C13.3835 18.16 12.7382 18 12.2155 17.68C11.7035 17.36 11.3088 16.9227 11.0315 16.368C10.7648 15.8133 10.6208 15.1947 10.5995 14.512C10.5888 14.352 10.5835 14.128 10.5835 13.84C10.5835 13.552 10.5888 13.328 10.5995 13.168C10.6208 12.4747 10.7648 11.856 11.0315 11.312C11.3088 10.7573 11.7035 10.32 12.2155 10C12.7382 9.68 13.3835 9.52 14.1515 9.52C14.9195 9.52 15.5595 9.68 16.0715 10C16.5942 10.32 16.9888 10.7573 17.2555 11.312C17.5328 11.856 17.6822 12.4747 17.7035 13.168C17.7142 13.328 17.7195 13.552 17.7195 13.84C17.7195 14.128 17.7142 14.352 17.7035 14.512C17.6822 15.1947 17.5328 15.8133 17.2555 16.368C16.9888 16.9227 16.5942 17.36 16.0715 17.68C15.5595 18 14.9195 18.16 14.1515 18.16ZM14.1515 17.232C14.8982 17.232 15.5062 16.992 15.9755 16.512C16.4448 16.032 16.6955 15.3387 16.7275 14.432C16.7382 14.272 16.7435 14.0747 16.7435 13.84C16.7435 13.6053 16.7382 13.408 16.7275 13.248C16.6955 12.3307 16.4448 11.6373 15.9755 11.168C15.5062 10.688 14.8982 10.448 14.1515 10.448C13.4048 10.448 12.7968 10.688 12.3275 11.168C11.8582 11.6373 11.6075 12.3307 11.5755 13.248C11.5648 13.408 11.5595 13.6053 11.5595 13.84C11.5595 14.0747 11.5648 14.272 11.5755 14.432C11.6075 15.3387 11.8582 16.032 12.3275 16.512C12.7968 16.992 13.4048 17.232 14.1515 17.232ZM20.2574 18C20.1507 18 20.0654 17.968 20.0014 17.904C19.9374 17.84 19.9054 17.7547 19.9054 17.648V10.048C19.9054 9.94133 19.9374 9.856 20.0014 9.792C20.0654 9.71733 20.1507 9.68 20.2574 9.68H20.5134C20.62 9.68 20.7054 9.71733 20.7694 9.792C20.844 9.856 20.8814 9.94133 20.8814 10.048V10.784C21.0734 10.4107 21.3507 10.1333 21.7134 9.952C22.076 9.77067 22.524 9.68 23.0574 9.68H23.6494C23.756 9.68 23.8414 9.712 23.9054 9.776C23.9694 9.84 24.0014 9.92533 24.0014 10.032V10.256C24.0014 10.3627 23.9694 10.448 23.9054 10.512C23.8414 10.576 23.756 10.608 23.6494 10.608H22.9614C22.3214 10.608 21.8147 10.7947 21.4414 11.168C21.068 11.5413 20.8814 12.048 20.8814 12.688V17.648C20.8814 17.7547 20.844 17.84 20.7694 17.904C20.7054 17.968 20.62 18 20.5134 18H20.2574ZM28.2679 18C27.7132 18 27.2759 17.8827 26.9559 17.648C26.6359 17.4133 26.4119 17.0933 26.2839 16.688C26.1559 16.2827 26.0919 15.8293 26.0919 15.328V10.608H24.8439C24.7372 10.608 24.6519 10.576 24.5879 10.512C24.5239 10.448 24.4919 10.3627 24.4919 10.256V10.032C24.4919 9.92533 24.5239 9.84 24.5879 9.776C24.6519 9.712 24.7372 9.68 24.8439 9.68H26.0919V6.992C26.0919 6.88533 26.1239 6.8 26.1879 6.736C26.2519 6.672 26.3372 6.64 26.4439 6.64H26.7159C26.8225 6.64 26.9079 6.672 26.9719 6.736C27.0359 6.8 27.0679 6.88533 27.0679 6.992V9.68H29.0519C29.1585 9.68 29.2439 9.712 29.3079 9.776C29.3719 9.84 29.4039 9.92533 29.4039 10.032V10.256C29.4039 10.3627 29.3719 10.448 29.3079 10.512C29.2439 10.576 29.1585 10.608 29.0519 10.608H27.0679V15.264C27.0679 15.8293 27.1585 16.272 27.3399 16.592C27.5319 16.912 27.8679 17.072 28.3479 17.072H29.2119C29.3185 17.072 29.4039 17.104 29.4679 17.168C29.5319 17.232 29.5639 17.3173 29.5639 17.424V17.648C29.5639 17.7547 29.5319 17.84 29.4679 17.904C29.4039 17.968 29.3185 18 29.2119 18H28.2679ZM39.0229 18.16C38.3615 18.16 37.8122 18.0427 37.3749 17.808C36.9482 17.5627 36.6015 17.2587 36.3349 16.896V17.648C36.3349 17.7547 36.3029 17.84 36.2389 17.904C36.1749 17.968 36.0895 18 35.9829 18H35.7109C35.6042 18 35.5189 17.968 35.4549 17.904C35.3909 17.84 35.3589 17.7547 35.3589 17.648V6.992C35.3589 6.88533 35.3909 6.8 35.4549 6.736C35.5189 6.672 35.6042 6.64 35.7109 6.64H35.9829C36.0895 6.64 36.1749 6.672 36.2389 6.736C36.3029 6.8 36.3349 6.88533 36.3349 6.992V10.784C36.6015 10.432 36.9482 10.1333 37.3749 9.888C37.8122 9.64267 38.3615 9.52 39.0229 9.52C39.6522 9.52 40.1802 9.632 40.6069 9.856C41.0335 10.08 41.3802 10.3787 41.6469 10.752C41.9135 11.1253 42.1109 11.5413 42.2389 12C42.3669 12.4587 42.4362 12.9227 42.4469 13.392C42.4575 13.552 42.4629 13.7013 42.4629 13.84C42.4629 13.9787 42.4575 14.128 42.4469 14.288C42.4362 14.7573 42.3669 15.2213 42.2389 15.68C42.1109 16.1387 41.9135 16.5547 41.6469 16.928C41.3802 17.3013 41.0335 17.6 40.6069 17.824C40.1802 18.048 39.6522 18.16 39.0229 18.16ZM38.9269 17.232C39.5562 17.232 40.0522 17.0933 40.4149 16.816C40.7775 16.5387 41.0389 16.176 41.1989 15.728C41.3589 15.28 41.4495 14.8 41.4709 14.288C41.4815 13.9893 41.4815 13.6907 41.4709 13.392C41.4495 12.88 41.3589 12.4 41.1989 11.952C41.0389 11.504 40.7775 11.1413 40.4149 10.864C40.0522 10.5867 39.5562 10.448 38.9269 10.448C38.3402 10.448 37.8549 10.5867 37.4709 10.864C37.0975 11.1413 36.8149 11.488 36.6229 11.904C36.4415 12.32 36.3455 12.7413 36.3349 13.168C36.3242 13.328 36.3189 13.536 36.3189 13.792C36.3189 14.048 36.3242 14.256 36.3349 14.416C36.3562 14.8533 36.4522 15.2907 36.6229 15.728C36.8042 16.1547 37.0815 16.512 37.4549 16.8C37.8282 17.088 38.3189 17.232 38.9269 17.232ZM45.7353 21.04C45.6499 21.04 45.5753 21.008 45.5113 20.944C45.4473 20.88 45.4153 20.8053 45.4153 20.72C45.4153 20.6773 45.4206 20.6293 45.4313 20.576C45.4526 20.5333 45.4793 20.4747 45.5113 20.4L46.7433 17.52L43.6873 10.32C43.6233 10.16 43.5913 10.0533 43.5913 10C43.5913 9.91467 43.6233 9.84 43.6873 9.776C43.7513 9.712 43.8259 9.68 43.9113 9.68H44.2473C44.3539 9.68 44.4339 9.70667 44.4873 9.76C44.5513 9.80267 44.5939 9.856 44.6153 9.92L47.3033 16.256L50.0553 9.92C50.0873 9.856 50.1299 9.80267 50.1833 9.76C50.2366 9.70667 50.3166 9.68 50.4233 9.68H50.7433C50.8286 9.68 50.9033 9.712 50.9673 9.776C51.0313 9.84 51.0633 9.91467 51.0633 10C51.0633 10.0533 51.0313 10.16 50.9673 10.32L46.4233 20.8C46.3913 20.864 46.3486 20.9173 46.2953 20.96C46.2419 21.0133 46.1619 21.04 46.0553 21.04H45.7353Z" fill="#222222"/>
<path d="M77 12L81 16L85 12" stroke="#7373D7" stroke-linecap="round" stroke-linejoin="round"/>
</svg>
