<svg width="252" height="56" viewBox="0 0 252 56" fill="none" xmlns="http://www.w3.org/2000/svg">
<circle opacity="0.3" cx="12" cy="12" r="11.5" stroke="#42210B"/>
<circle cx="12" cy="12" r="6" fill="#7373D7"/>
<path d="M36.046 18.4C35.9527 18.4 35.878 18.372 35.822 18.316C35.766 18.26 35.738 18.1853 35.738 18.092V17.112C35.0753 17.0653 34.5153 16.9207 34.058 16.678C33.6007 16.426 33.2507 16.1227 33.008 15.768C32.7653 15.404 32.6347 15.0213 32.616 14.62C32.616 14.5453 32.644 14.48 32.7 14.424C32.756 14.368 32.826 14.34 32.91 14.34H33.19C33.2833 14.34 33.3533 14.368 33.4 14.424C33.456 14.48 33.4887 14.5453 33.498 14.62C33.5353 14.8813 33.652 15.1427 33.848 15.404C34.044 15.656 34.3333 15.8707 34.716 16.048C35.0987 16.216 35.5933 16.3 36.2 16.3C37.1147 16.3 37.782 16.1367 38.202 15.81C38.622 15.474 38.832 15.026 38.832 14.466C38.832 14.0927 38.72 13.794 38.496 13.57C38.2813 13.3367 37.95 13.1313 37.502 12.954C37.054 12.7673 36.48 12.562 35.78 12.338C35.1173 12.1233 34.5713 11.904 34.142 11.68C33.7127 11.4467 33.3953 11.1667 33.19 10.84C32.994 10.5133 32.896 10.0933 32.896 9.58C32.896 8.91733 33.1387 8.35267 33.624 7.886C34.1187 7.41 34.8233 7.13933 35.738 7.074V6.108C35.738 6.01467 35.766 5.94 35.822 5.884C35.878 5.828 35.9527 5.8 36.046 5.8H36.312C36.4053 5.8 36.48 5.828 36.536 5.884C36.592 5.94 36.62 6.01467 36.62 6.108V7.088C37.2453 7.144 37.7633 7.30267 38.174 7.564C38.5847 7.82533 38.8927 8.13333 39.098 8.488C39.3127 8.83333 39.4247 9.174 39.434 9.51C39.434 9.57533 39.4107 9.64067 39.364 9.706C39.3173 9.762 39.2427 9.79 39.14 9.79H38.86C38.8133 9.79 38.7527 9.77133 38.678 9.734C38.6127 9.69667 38.5707 9.622 38.552 9.51C38.496 9.04333 38.2487 8.66067 37.81 8.362C37.3807 8.054 36.8207 7.9 36.13 7.9C35.4393 7.9 34.8747 8.03533 34.436 8.306C33.9973 8.57667 33.778 9.00133 33.778 9.58C33.778 9.95333 33.876 10.2613 34.072 10.504C34.268 10.7373 34.576 10.9473 34.996 11.134C35.416 11.3113 35.9573 11.5073 36.62 11.722C37.32 11.946 37.8987 12.17 38.356 12.394C38.8133 12.618 39.154 12.8933 39.378 13.22C39.602 13.5373 39.714 13.9527 39.714 14.466C39.714 14.9887 39.588 15.4413 39.336 15.824C39.0933 16.2067 38.7387 16.51 38.272 16.734C37.8147 16.9487 37.264 17.0793 36.62 17.126V18.092C36.62 18.1853 36.592 18.26 36.536 18.316C36.48 18.372 36.4053 18.4 36.312 18.4H36.046ZM41.3758 17C41.2825 17 41.2078 16.972 41.1518 16.916C41.0958 16.86 41.0678 16.7853 41.0678 16.692V16.482C41.0678 16.3887 41.0912 16.3 41.1378 16.216C41.1938 16.1227 41.2872 16.0153 41.4178 15.894L45.0438 12.268C45.3985 11.9413 45.6692 11.6567 45.8558 11.414C46.0425 11.1713 46.1685 10.9333 46.2338 10.7C46.3085 10.4573 46.3458 10.1913 46.3458 9.902C46.3458 9.27667 46.1638 8.78667 45.7998 8.432C45.4452 8.07733 44.9365 7.9 44.2738 7.9C43.8538 7.9 43.4898 7.984 43.1818 8.152C42.8738 8.32 42.6312 8.558 42.4538 8.866C42.2765 9.16467 42.1598 9.51467 42.1038 9.916C42.0945 10.028 42.0525 10.112 41.9778 10.168C41.9032 10.2147 41.8378 10.238 41.7818 10.238H41.5018C41.4085 10.238 41.3338 10.2147 41.2778 10.168C41.2312 10.112 41.2078 10.0467 41.2078 9.972C41.2172 9.65467 41.2825 9.328 41.4038 8.992C41.5252 8.64667 41.7072 8.32933 41.9498 8.04C42.2018 7.75067 42.5192 7.51733 42.9018 7.34C43.2845 7.15333 43.7418 7.06 44.2738 7.06C44.9832 7.06 45.5525 7.19533 45.9818 7.466C46.4205 7.73667 46.7378 8.08667 46.9338 8.516C47.1298 8.94533 47.2278 9.40733 47.2278 9.902C47.2278 10.2847 47.1718 10.6393 47.0598 10.966C46.9478 11.2833 46.7798 11.596 46.5558 11.904C46.3318 12.2027 46.0472 12.5107 45.7018 12.828L42.4258 16.16H47.1158C47.2185 16.16 47.2978 16.188 47.3538 16.244C47.4098 16.3 47.4378 16.3793 47.4378 16.482V16.692C47.4378 16.7853 47.4098 16.86 47.3538 16.916C47.2978 16.972 47.2185 17 47.1158 17H41.3758ZM52.4998 17.14C52.0238 17.14 51.5712 17.0793 51.1418 16.958C50.7218 16.8273 50.3532 16.6407 50.0358 16.398C49.7185 16.146 49.4665 15.8427 49.2798 15.488C49.1025 15.124 49.0138 14.7087 49.0138 14.242C49.0138 13.6447 49.1585 13.1407 49.4478 12.73C49.7372 12.31 50.1198 11.988 50.5958 11.764C50.2225 11.5493 49.9238 11.2647 49.6998 10.91C49.4758 10.5553 49.3638 10.1307 49.3638 9.636C49.3638 9.06667 49.5038 8.59533 49.7838 8.222C50.0638 7.83933 50.4418 7.55 50.9178 7.354C51.3938 7.158 51.9212 7.06 52.4998 7.06C53.0785 7.06 53.6058 7.158 54.0818 7.354C54.5578 7.55 54.9358 7.83933 55.2158 8.222C55.4958 8.59533 55.6358 9.06667 55.6358 9.636C55.6358 10.1307 55.5238 10.5553 55.2998 10.91C55.0758 11.2647 54.7772 11.5493 54.4038 11.764C54.8798 11.988 55.2625 12.31 55.5518 12.73C55.8412 13.1407 55.9858 13.6447 55.9858 14.242C55.9858 14.8673 55.8272 15.3947 55.5098 15.824C55.2018 16.2533 54.7818 16.58 54.2498 16.804C53.7272 17.028 53.1438 17.14 52.4998 17.14ZM52.4998 16.3C52.9852 16.3 53.4238 16.216 53.8158 16.048C54.2078 15.88 54.5205 15.642 54.7538 15.334C54.9872 15.026 55.1038 14.662 55.1038 14.242C55.1038 13.8127 54.9872 13.4487 54.7538 13.15C54.5205 12.842 54.2078 12.6087 53.8158 12.45C53.4238 12.282 52.9852 12.198 52.4998 12.198C52.0238 12.198 51.5852 12.282 51.1838 12.45C50.7918 12.6087 50.4792 12.842 50.2458 13.15C50.0125 13.4487 49.8958 13.8127 49.8958 14.242C49.8958 14.662 50.0125 15.026 50.2458 15.334C50.4792 15.642 50.7918 15.88 51.1838 16.048C51.5852 16.216 52.0238 16.3 52.4998 16.3ZM52.4998 11.358C52.9012 11.3487 53.2698 11.274 53.6058 11.134C53.9512 10.994 54.2265 10.798 54.4318 10.546C54.6465 10.294 54.7538 9.99067 54.7538 9.636C54.7538 9.272 54.6512 8.964 54.4458 8.712C54.2498 8.45067 53.9792 8.25 53.6338 8.11C53.2978 7.97 52.9198 7.9 52.4998 7.9C52.0892 7.9 51.7112 7.97 51.3658 8.11C51.0205 8.25 50.7452 8.45067 50.5398 8.712C50.3438 8.964 50.2458 9.272 50.2458 9.636C50.2458 10 50.3438 10.3127 50.5398 10.574C50.7452 10.826 51.0205 11.022 51.3658 11.162C51.7112 11.2927 52.0892 11.358 52.4998 11.358ZM57.9941 17C57.9007 17 57.8261 16.972 57.7701 16.916C57.7141 16.86 57.6861 16.7853 57.6861 16.692V16.02C57.6861 15.9267 57.7141 15.852 57.7701 15.796C57.8261 15.7307 57.9007 15.698 57.9941 15.698H58.6661C58.7594 15.698 58.8341 15.7307 58.8901 15.796C58.9554 15.852 58.9881 15.9267 58.9881 16.02V16.692C58.9881 16.7853 58.9554 16.86 58.8901 16.916C58.8341 16.972 58.7594 17 58.6661 17H57.9941ZM64.0522 17.14C63.4176 17.14 62.8856 17.0373 62.4562 16.832C62.0362 16.6267 61.6956 16.3467 61.4342 15.992C61.1822 15.628 61.0002 15.2127 60.8882 14.746C60.7762 14.2793 60.7109 13.7893 60.6922 13.276C60.6922 13.024 60.6876 12.7673 60.6782 12.506C60.6782 12.2447 60.6782 11.9833 60.6782 11.722C60.6876 11.4513 60.6922 11.1853 60.6922 10.924C60.7016 10.4107 60.7622 9.92067 60.8742 9.454C60.9956 8.98733 61.1822 8.57667 61.4342 8.222C61.6956 7.858 62.0362 7.57333 62.4562 7.368C62.8856 7.16267 63.4176 7.06 64.0522 7.06C64.6869 7.06 65.2142 7.16267 65.6342 7.368C66.0636 7.57333 66.4042 7.858 66.6562 8.222C66.9176 8.57667 67.1042 8.98733 67.2162 9.454C67.3376 9.92067 67.4029 10.4107 67.4122 10.924C67.4216 11.1853 67.4262 11.4513 67.4262 11.722C67.4262 11.9833 67.4262 12.2447 67.4262 12.506C67.4262 12.7673 67.4216 13.024 67.4122 13.276C67.4029 13.7893 67.3376 14.2793 67.2162 14.746C67.1042 15.2127 66.9176 15.628 66.6562 15.992C66.4042 16.3467 66.0636 16.6267 65.6342 16.832C65.2142 17.0373 64.6869 17.14 64.0522 17.14ZM64.0522 16.3C64.8829 16.3 65.4989 16.0247 65.9002 15.474C66.3016 14.9233 66.5116 14.1673 66.5302 13.206C66.5396 12.9353 66.5442 12.6833 66.5442 12.45C66.5442 12.2073 66.5442 11.9693 66.5442 11.736C66.5442 11.4933 66.5396 11.246 66.5302 10.994C66.5116 10.0513 66.3016 9.3 65.9002 8.74C65.4989 8.18 64.8829 7.9 64.0522 7.9C63.2309 7.9 62.6149 8.18 62.2042 8.74C61.8029 9.3 61.5929 10.0513 61.5742 10.994C61.5742 11.246 61.5696 11.4933 61.5602 11.736C61.5602 11.9693 61.5602 12.2073 61.5602 12.45C61.5696 12.6833 61.5742 12.9353 61.5742 13.206C61.5929 14.1673 61.8029 14.9233 62.2042 15.474C62.6149 16.0247 63.2309 16.3 64.0522 16.3ZM72.6792 17.14C72.0445 17.14 71.5125 17.0373 71.0832 16.832C70.6632 16.6267 70.3225 16.3467 70.0612 15.992C69.8092 15.628 69.6272 15.2127 69.5152 14.746C69.4032 14.2793 69.3379 13.7893 69.3192 13.276C69.3192 13.024 69.3145 12.7673 69.3052 12.506C69.3052 12.2447 69.3052 11.9833 69.3052 11.722C69.3145 11.4513 69.3192 11.1853 69.3192 10.924C69.3285 10.4107 69.3892 9.92067 69.5012 9.454C69.6225 8.98733 69.8092 8.57667 70.0612 8.222C70.3225 7.858 70.6632 7.57333 71.0832 7.368C71.5125 7.16267 72.0445 7.06 72.6792 7.06C73.3139 7.06 73.8412 7.16267 74.2612 7.368C74.6905 7.57333 75.0312 7.858 75.2832 8.222C75.5445 8.57667 75.7312 8.98733 75.8432 9.454C75.9645 9.92067 76.0299 10.4107 76.0392 10.924C76.0485 11.1853 76.0532 11.4513 76.0532 11.722C76.0532 11.9833 76.0532 12.2447 76.0532 12.506C76.0532 12.7673 76.0485 13.024 76.0392 13.276C76.0299 13.7893 75.9645 14.2793 75.8432 14.746C75.7312 15.2127 75.5445 15.628 75.2832 15.992C75.0312 16.3467 74.6905 16.6267 74.2612 16.832C73.8412 17.0373 73.3139 17.14 72.6792 17.14ZM72.6792 16.3C73.5099 16.3 74.1259 16.0247 74.5272 15.474C74.9285 14.9233 75.1385 14.1673 75.1572 13.206C75.1665 12.9353 75.1712 12.6833 75.1712 12.45C75.1712 12.2073 75.1712 11.9693 75.1712 11.736C75.1712 11.4933 75.1665 11.246 75.1572 10.994C75.1385 10.0513 74.9285 9.3 74.5272 8.74C74.1259 8.18 73.5099 7.9 72.6792 7.9C71.8579 7.9 71.2419 8.18 70.8312 8.74C70.4299 9.3 70.2199 10.0513 70.2012 10.994C70.2012 11.246 70.1965 11.4933 70.1872 11.736C70.1872 11.9693 70.1872 12.2073 70.1872 12.45C70.1965 12.6833 70.2012 12.9353 70.2012 13.206C70.2199 14.1673 70.4299 14.9233 70.8312 15.474C71.2419 16.0247 71.8579 16.3 72.6792 16.3ZM85.2375 17.14C84.4628 17.14 83.8048 17.0047 83.2635 16.734C82.7222 16.454 82.3068 16.0293 82.0175 15.46C81.7282 14.8813 81.5695 14.1533 81.5415 13.276C81.5322 12.856 81.5275 12.464 81.5275 12.1C81.5275 11.736 81.5322 11.344 81.5415 10.924C81.5695 10.056 81.7375 9.33733 82.0455 8.768C82.3535 8.18933 82.7782 7.76 83.3195 7.48C83.8702 7.2 84.5095 7.06 85.2375 7.06C85.9655 7.06 86.6002 7.2 87.1415 7.48C87.6922 7.76 88.1215 8.18933 88.4295 8.768C88.7468 9.33733 88.9148 10.056 88.9335 10.924C88.9522 11.344 88.9615 11.736 88.9615 12.1C88.9615 12.464 88.9522 12.856 88.9335 13.276C88.9148 14.1533 88.7562 14.8813 88.4575 15.46C88.1682 16.0293 87.7528 16.454 87.2115 16.734C86.6702 17.0047 86.0122 17.14 85.2375 17.14ZM85.2375 16.3C86.0402 16.3 86.6982 16.0573 87.2115 15.572C87.7342 15.0867 88.0142 14.298 88.0515 13.206C88.0702 12.786 88.0795 12.4173 88.0795 12.1C88.0795 11.7827 88.0702 11.414 88.0515 10.994C88.0328 10.266 87.8975 9.67333 87.6455 9.216C87.4028 8.75867 87.0715 8.42733 86.6515 8.222C86.2408 8.00733 85.7695 7.9 85.2375 7.9C84.7148 7.9 84.2435 8.00733 83.8235 8.222C83.4128 8.42733 83.0815 8.75867 82.8295 9.216C82.5868 9.67333 82.4515 10.266 82.4235 10.994C82.4142 11.414 82.4095 11.7827 82.4095 12.1C82.4095 12.4173 82.4142 12.786 82.4235 13.206C82.4608 14.298 82.7408 15.0867 83.2635 15.572C83.7862 16.0573 84.4442 16.3 85.2375 16.3ZM91.315 17C91.2217 17 91.147 16.972 91.091 16.916C91.035 16.86 91.007 16.7853 91.007 16.692V10.028C91.007 9.93467 91.035 9.86 91.091 9.804C91.147 9.748 91.2217 9.72 91.315 9.72H91.553C91.6464 9.72 91.721 9.748 91.777 9.804C91.833 9.86 91.861 9.93467 91.861 10.028V10.686C92.113 10.3593 92.4164 10.0933 92.771 9.888C93.135 9.68267 93.6157 9.58 94.213 9.58C94.8477 9.58 95.375 9.72 95.795 10C96.2244 10.2707 96.5417 10.644 96.747 11.12C96.9617 11.5867 97.069 12.1187 97.069 12.716V16.692C97.069 16.7853 97.041 16.86 96.985 16.916C96.929 16.972 96.8544 17 96.761 17H96.523C96.4297 17 96.355 16.972 96.299 16.916C96.243 16.86 96.215 16.7853 96.215 16.692V12.786C96.215 12.0393 96.033 11.456 95.669 11.036C95.305 10.6067 94.773 10.392 94.073 10.392C93.4104 10.392 92.8737 10.6067 92.463 11.036C92.0617 11.456 91.861 12.0393 91.861 12.786V16.692C91.861 16.7853 91.833 16.86 91.777 16.916C91.721 16.972 91.6464 17 91.553 17H91.315ZM101.967 17.14C101.062 17.14 100.343 16.846 99.8109 16.258C99.2789 15.6607 98.9755 14.8813 98.9009 13.92C98.8915 13.78 98.8869 13.5933 98.8869 13.36C98.8869 13.1267 98.8915 12.94 98.9009 12.8C98.9475 12.1653 99.0969 11.6053 99.3489 11.12C99.6009 10.6347 99.9462 10.2567 100.385 9.986C100.833 9.71533 101.36 9.58 101.967 9.58C102.62 9.58 103.176 9.72467 103.633 10.014C104.09 10.3033 104.44 10.7187 104.683 11.26C104.935 11.8013 105.061 12.4453 105.061 13.192V13.402C105.061 13.4953 105.028 13.57 104.963 13.626C104.907 13.682 104.832 13.71 104.739 13.71H99.7549C99.7549 13.71 99.7549 13.7287 99.7549 13.766C99.7549 13.8033 99.7549 13.8313 99.7549 13.85C99.7735 14.27 99.8715 14.6713 100.049 15.054C100.226 15.4273 100.478 15.7353 100.805 15.978C101.132 16.2113 101.519 16.328 101.967 16.328C102.368 16.328 102.7 16.2673 102.961 16.146C103.232 16.0247 103.446 15.894 103.605 15.754C103.764 15.6047 103.866 15.4927 103.913 15.418C103.997 15.2967 104.062 15.2267 104.109 15.208C104.156 15.18 104.23 15.166 104.333 15.166H104.557C104.641 15.166 104.711 15.194 104.767 15.25C104.832 15.2967 104.86 15.362 104.851 15.446C104.842 15.5767 104.767 15.74 104.627 15.936C104.496 16.1227 104.305 16.3093 104.053 16.496C103.81 16.6827 103.512 16.8367 103.157 16.958C102.802 17.0793 102.406 17.14 101.967 17.14ZM99.7549 12.926H104.207V12.87C104.207 12.4033 104.118 11.9833 103.941 11.61C103.764 11.2367 103.507 10.9427 103.171 10.728C102.835 10.504 102.434 10.392 101.967 10.392C101.5 10.392 101.099 10.504 100.763 10.728C100.436 10.9427 100.184 11.2367 100.007 11.61C99.8389 11.9833 99.7549 12.4033 99.7549 12.87V12.926ZM112.652 17C112.167 17 111.784 16.8973 111.504 16.692C111.224 16.4867 111.028 16.2067 110.916 15.852C110.804 15.4973 110.748 15.1007 110.748 14.662V10.532H109.656C109.563 10.532 109.488 10.504 109.432 10.448C109.376 10.392 109.348 10.3173 109.348 10.224V10.028C109.348 9.93467 109.376 9.86 109.432 9.804C109.488 9.748 109.563 9.72 109.656 9.72H110.748V7.368C110.748 7.27467 110.776 7.2 110.832 7.144C110.888 7.088 110.963 7.06 111.056 7.06H111.294C111.388 7.06 111.462 7.088 111.518 7.144C111.574 7.2 111.602 7.27467 111.602 7.368V9.72H113.338C113.432 9.72 113.506 9.748 113.562 9.804C113.618 9.86 113.646 9.93467 113.646 10.028V10.224C113.646 10.3173 113.618 10.392 113.562 10.448C113.506 10.504 113.432 10.532 113.338 10.532H111.602V14.606C111.602 15.1007 111.682 15.488 111.84 15.768C112.008 16.048 112.302 16.188 112.722 16.188H113.478C113.572 16.188 113.646 16.216 113.702 16.272C113.758 16.328 113.786 16.4027 113.786 16.496V16.692C113.786 16.7853 113.758 16.86 113.702 16.916C113.646 16.972 113.572 17 113.478 17H112.652ZM115.542 17C115.448 17 115.374 16.972 115.318 16.916C115.262 16.86 115.234 16.7853 115.234 16.692V10.028C115.234 9.93467 115.262 9.86 115.318 9.804C115.374 9.748 115.448 9.72 115.542 9.72H115.78C115.873 9.72 115.948 9.748 116.004 9.804C116.06 9.86 116.088 9.93467 116.088 10.028V16.692C116.088 16.7853 116.06 16.86 116.004 16.916C115.948 16.972 115.873 17 115.78 17H115.542ZM115.388 8.222C115.294 8.222 115.22 8.194 115.164 8.138C115.108 8.082 115.08 8.00733 115.08 7.914V7.382C115.08 7.28867 115.108 7.214 115.164 7.158C115.22 7.09267 115.294 7.06 115.388 7.06H115.92C116.013 7.06 116.088 7.09267 116.144 7.158C116.209 7.214 116.242 7.28867 116.242 7.382V7.914C116.242 8.00733 116.209 8.082 116.144 8.138C116.088 8.194 116.013 8.222 115.92 8.222H115.388ZM118.659 17C118.565 17 118.491 16.972 118.435 16.916C118.379 16.86 118.351 16.7853 118.351 16.692V10.028C118.351 9.93467 118.379 9.86 118.435 9.804C118.491 9.748 118.565 9.72 118.659 9.72H118.897C118.99 9.72 119.065 9.748 119.121 9.804C119.177 9.86 119.205 9.93467 119.205 10.028V10.518C119.438 10.2193 119.713 9.99067 120.031 9.832C120.357 9.664 120.749 9.58 121.207 9.58C122.252 9.58 122.999 10.0187 123.447 10.896C123.661 10.4947 123.974 10.1773 124.385 9.944C124.805 9.70133 125.285 9.58 125.827 9.58C126.321 9.58 126.765 9.69667 127.157 9.93C127.558 10.154 127.871 10.49 128.095 10.938C128.328 11.386 128.445 11.946 128.445 12.618V16.692C128.445 16.7853 128.417 16.86 128.361 16.916C128.305 16.972 128.23 17 128.137 17H127.899C127.805 17 127.731 16.972 127.675 16.916C127.619 16.86 127.591 16.7853 127.591 16.692V12.758C127.591 12.142 127.502 11.666 127.325 11.33C127.147 10.9847 126.914 10.742 126.625 10.602C126.335 10.462 126.023 10.392 125.687 10.392C125.407 10.392 125.122 10.462 124.833 10.602C124.543 10.742 124.301 10.9847 124.105 11.33C123.918 11.666 123.825 12.142 123.825 12.758V16.692C123.825 16.7853 123.797 16.86 123.741 16.916C123.685 16.972 123.61 17 123.517 17H123.279C123.185 17 123.111 16.972 123.055 16.916C122.999 16.86 122.971 16.7853 122.971 16.692V12.758C122.971 12.142 122.877 11.666 122.691 11.33C122.504 10.9847 122.266 10.742 121.977 10.602C121.687 10.462 121.384 10.392 121.067 10.392C120.787 10.392 120.502 10.462 120.213 10.602C119.923 10.742 119.681 10.9847 119.485 11.33C119.298 11.666 119.205 12.1373 119.205 12.744V16.692C119.205 16.7853 119.177 16.86 119.121 16.916C119.065 16.972 118.99 17 118.897 17H118.659ZM133.344 17.14C132.438 17.14 131.72 16.846 131.188 16.258C130.656 15.6607 130.352 14.8813 130.278 13.92C130.268 13.78 130.264 13.5933 130.264 13.36C130.264 13.1267 130.268 12.94 130.278 12.8C130.324 12.1653 130.474 11.6053 130.726 11.12C130.978 10.6347 131.323 10.2567 131.762 9.986C132.21 9.71533 132.737 9.58 133.344 9.58C133.997 9.58 134.552 9.72467 135.01 10.014C135.467 10.3033 135.817 10.7187 136.06 11.26C136.312 11.8013 136.438 12.4453 136.438 13.192V13.402C136.438 13.4953 136.405 13.57 136.34 13.626C136.284 13.682 136.209 13.71 136.116 13.71H131.132C131.132 13.71 131.132 13.7287 131.132 13.766C131.132 13.8033 131.132 13.8313 131.132 13.85C131.15 14.27 131.248 14.6713 131.426 15.054C131.603 15.4273 131.855 15.7353 132.182 15.978C132.508 16.2113 132.896 16.328 133.344 16.328C133.745 16.328 134.076 16.2673 134.338 16.146C134.608 16.0247 134.823 15.894 134.982 15.754C135.14 15.6047 135.243 15.4927 135.29 15.418C135.374 15.2967 135.439 15.2267 135.486 15.208C135.532 15.18 135.607 15.166 135.71 15.166H135.934C136.018 15.166 136.088 15.194 136.144 15.25C136.209 15.2967 136.237 15.362 136.228 15.446C136.218 15.5767 136.144 15.74 136.004 15.936C135.873 16.1227 135.682 16.3093 135.43 16.496C135.187 16.6827 134.888 16.8367 134.534 16.958C134.179 17.0793 133.782 17.14 133.344 17.14ZM131.132 12.926H135.584V12.87C135.584 12.4033 135.495 11.9833 135.318 11.61C135.14 11.2367 134.884 10.9427 134.548 10.728C134.212 10.504 133.81 10.392 133.344 10.392C132.877 10.392 132.476 10.504 132.14 10.728C131.813 10.9427 131.561 11.2367 131.384 11.61C131.216 11.9833 131.132 12.4033 131.132 12.87V12.926ZM142.216 19.66C142.122 19.66 142.048 19.632 141.992 19.576C141.936 19.52 141.908 19.4453 141.908 19.352V10.028C141.908 9.93467 141.936 9.86 141.992 9.804C142.048 9.748 142.122 9.72 142.216 9.72H142.454C142.547 9.72 142.622 9.748 142.678 9.804C142.734 9.86 142.762 9.93467 142.762 10.028V10.686C142.995 10.3687 143.298 10.1073 143.672 9.902C144.054 9.68733 144.535 9.58 145.114 9.58C145.664 9.58 146.126 9.678 146.5 9.874C146.873 10.0607 147.176 10.3127 147.41 10.63C147.643 10.9473 147.816 11.302 147.928 11.694C148.04 12.086 148.1 12.4873 148.11 12.898C148.119 13.038 148.124 13.192 148.124 13.36C148.124 13.528 148.119 13.682 148.11 13.822C148.1 14.2327 148.04 14.634 147.928 15.026C147.816 15.418 147.643 15.7727 147.41 16.09C147.176 16.4073 146.873 16.664 146.5 16.86C146.126 17.0467 145.664 17.14 145.114 17.14C144.535 17.14 144.054 17.0327 143.672 16.818C143.298 16.6033 142.995 16.342 142.762 16.034V19.352C142.762 19.4453 142.734 19.52 142.678 19.576C142.622 19.632 142.547 19.66 142.454 19.66H142.216ZM145.03 16.328C145.58 16.328 146.014 16.2067 146.332 15.964C146.649 15.7213 146.878 15.404 147.018 15.012C147.158 14.62 147.237 14.2 147.256 13.752C147.265 13.4907 147.265 13.2293 147.256 12.968C147.237 12.52 147.158 12.1 147.018 11.708C146.878 11.316 146.649 10.9987 146.332 10.756C146.014 10.5133 145.58 10.392 145.03 10.392C144.498 10.392 144.068 10.518 143.742 10.77C143.415 11.022 143.172 11.3393 143.014 11.722C142.864 12.0953 142.78 12.4733 142.762 12.856C142.752 12.996 142.748 13.178 142.748 13.402C142.748 13.626 142.752 13.808 142.762 13.948C142.771 14.3213 142.855 14.69 143.014 15.054C143.182 15.418 143.429 15.7213 143.756 15.964C144.092 16.2067 144.516 16.328 145.03 16.328ZM152.759 17.14C152.124 17.14 151.597 17.0047 151.177 16.734C150.766 16.454 150.458 16.076 150.253 15.6C150.057 15.124 149.959 14.592 149.959 14.004V10.028C149.959 9.93467 149.987 9.86 150.043 9.804C150.099 9.748 150.173 9.72 150.267 9.72H150.505C150.598 9.72 150.673 9.748 150.729 9.804C150.785 9.86 150.813 9.93467 150.813 10.028V13.934C150.813 15.53 151.508 16.328 152.899 16.328C153.561 16.328 154.093 16.118 154.495 15.698C154.896 15.2687 155.097 14.6807 155.097 13.934V10.028C155.097 9.93467 155.125 9.86 155.181 9.804C155.237 9.748 155.311 9.72 155.405 9.72H155.643C155.736 9.72 155.811 9.748 155.867 9.804C155.923 9.86 155.951 9.93467 155.951 10.028V16.692C155.951 16.7853 155.923 16.86 155.867 16.916C155.811 16.972 155.736 17 155.643 17H155.405C155.311 17 155.237 16.972 155.181 16.916C155.125 16.86 155.097 16.7853 155.097 16.692V16.034C154.845 16.3607 154.541 16.6267 154.187 16.832C153.841 17.0373 153.365 17.14 152.759 17.14ZM158.526 17C158.433 17 158.358 16.972 158.302 16.916C158.246 16.86 158.218 16.7853 158.218 16.692V10.042C158.218 9.94867 158.246 9.874 158.302 9.818C158.358 9.75267 158.433 9.72 158.526 9.72H158.75C158.843 9.72 158.918 9.75267 158.974 9.818C159.039 9.874 159.072 9.94867 159.072 10.042V10.686C159.24 10.3593 159.483 10.1167 159.8 9.958C160.117 9.79933 160.509 9.72 160.976 9.72H161.494C161.587 9.72 161.662 9.748 161.718 9.804C161.774 9.86 161.802 9.93467 161.802 10.028V10.224C161.802 10.3173 161.774 10.392 161.718 10.448C161.662 10.504 161.587 10.532 161.494 10.532H160.892C160.332 10.532 159.889 10.6953 159.562 11.022C159.235 11.3487 159.072 11.792 159.072 12.352V16.692C159.072 16.7853 159.039 16.86 158.974 16.916C158.918 16.972 158.843 17 158.75 17H158.526ZM165.679 17.14C165.026 17.14 164.47 17.014 164.013 16.762C163.556 16.5007 163.206 16.1273 162.963 15.642C162.73 15.1567 162.604 14.5827 162.585 13.92C162.576 13.78 162.571 13.5933 162.571 13.36C162.571 13.1267 162.576 12.94 162.585 12.8C162.604 12.128 162.73 11.554 162.963 11.078C163.206 10.5927 163.556 10.224 164.013 9.972C164.47 9.71067 165.026 9.58 165.679 9.58C166.174 9.58 166.598 9.65 166.953 9.79C167.317 9.92067 167.616 10.098 167.849 10.322C168.082 10.5367 168.26 10.7747 168.381 11.036C168.502 11.2973 168.568 11.554 168.577 11.806C168.586 11.8993 168.558 11.974 168.493 12.03C168.428 12.086 168.353 12.114 168.269 12.114H168.073C167.98 12.114 167.91 12.0953 167.863 12.058C167.826 12.0113 167.784 11.932 167.737 11.82C167.541 11.288 167.27 10.9193 166.925 10.714C166.589 10.4993 166.174 10.392 165.679 10.392C165.044 10.392 164.517 10.588 164.097 10.98C163.686 11.3627 163.467 11.9927 163.439 12.87C163.42 13.1967 163.42 13.5233 163.439 13.85C163.467 14.7273 163.686 15.362 164.097 15.754C164.517 16.1367 165.044 16.328 165.679 16.328C166.174 16.328 166.589 16.2253 166.925 16.02C167.27 15.8053 167.541 15.432 167.737 14.9C167.784 14.788 167.826 14.7133 167.863 14.676C167.91 14.6293 167.98 14.606 168.073 14.606H168.269C168.353 14.606 168.428 14.634 168.493 14.69C168.558 14.746 168.586 14.8207 168.577 14.914C168.568 15.1193 168.526 15.3247 168.451 15.53C168.376 15.7353 168.26 15.936 168.101 16.132C167.952 16.328 167.765 16.5007 167.541 16.65C167.317 16.7993 167.046 16.916 166.729 17C166.421 17.0933 166.071 17.14 165.679 17.14ZM170.749 17C170.656 17 170.581 16.972 170.525 16.916C170.469 16.86 170.441 16.7853 170.441 16.692V7.368C170.441 7.27467 170.469 7.2 170.525 7.144C170.581 7.088 170.656 7.06 170.749 7.06H170.987C171.08 7.06 171.155 7.088 171.211 7.144C171.267 7.2 171.295 7.27467 171.295 7.368V10.686C171.547 10.3593 171.85 10.0933 172.205 9.888C172.569 9.68267 173.05 9.58 173.647 9.58C174.282 9.58 174.809 9.72 175.229 10C175.658 10.2707 175.976 10.644 176.181 11.12C176.396 11.5867 176.503 12.1187 176.503 12.716V16.692C176.503 16.7853 176.475 16.86 176.419 16.916C176.363 16.972 176.288 17 176.195 17H175.957C175.864 17 175.789 16.972 175.733 16.916C175.677 16.86 175.649 16.7853 175.649 16.692V12.786C175.649 12.0393 175.467 11.456 175.103 11.036C174.739 10.6067 174.207 10.392 173.507 10.392C172.844 10.392 172.308 10.6067 171.897 11.036C171.496 11.456 171.295 12.0393 171.295 12.786V16.692C171.295 16.7853 171.267 16.86 171.211 16.916C171.155 16.972 171.08 17 170.987 17H170.749ZM180.658 17.14C180.21 17.14 179.795 17.0467 179.412 16.86C179.039 16.6733 178.736 16.426 178.502 16.118C178.269 15.8007 178.152 15.446 178.152 15.054C178.152 14.4193 178.409 13.9107 178.922 13.528C179.436 13.1453 180.103 12.898 180.924 12.786L183.136 12.478V11.988C183.136 11.4933 182.982 11.106 182.674 10.826C182.376 10.5367 181.895 10.392 181.232 10.392C180.747 10.392 180.355 10.49 180.056 10.686C179.758 10.8727 179.552 11.12 179.44 11.428C179.394 11.568 179.305 11.638 179.174 11.638H178.95C178.838 11.638 178.759 11.61 178.712 11.554C178.666 11.4887 178.642 11.414 178.642 11.33C178.642 11.1993 178.689 11.036 178.782 10.84C178.885 10.644 179.039 10.4527 179.244 10.266C179.45 10.07 179.716 9.90667 180.042 9.776C180.369 9.64533 180.766 9.58 181.232 9.58C181.783 9.58 182.236 9.65467 182.59 9.804C182.954 9.95333 183.234 10.1493 183.43 10.392C183.636 10.6253 183.78 10.8867 183.864 11.176C183.948 11.4653 183.99 11.75 183.99 12.03V16.692C183.99 16.7853 183.962 16.86 183.906 16.916C183.85 16.972 183.776 17 183.682 17H183.444C183.351 17 183.276 16.972 183.22 16.916C183.164 16.86 183.136 16.7853 183.136 16.692V16.034C183.024 16.202 182.866 16.37 182.66 16.538C182.455 16.706 182.189 16.8507 181.862 16.972C181.545 17.084 181.144 17.14 180.658 17.14ZM180.798 16.328C181.228 16.328 181.62 16.2347 181.974 16.048C182.329 15.8613 182.609 15.5767 182.814 15.194C183.029 14.802 183.136 14.312 183.136 13.724V13.248L181.33 13.5C180.565 13.6027 179.986 13.78 179.594 14.032C179.202 14.284 179.006 14.6013 179.006 14.984C179.006 15.292 179.095 15.544 179.272 15.74C179.45 15.936 179.674 16.0853 179.944 16.188C180.224 16.2813 180.509 16.328 180.798 16.328ZM188.514 17.14C188.029 17.14 187.609 17.0747 187.254 16.944C186.909 16.8133 186.624 16.6593 186.4 16.482C186.176 16.2953 186.008 16.1133 185.896 15.936C185.794 15.7587 185.738 15.6233 185.728 15.53C185.719 15.4273 185.752 15.3527 185.826 15.306C185.901 15.25 185.971 15.222 186.036 15.222H186.246C186.302 15.222 186.349 15.2313 186.386 15.25C186.433 15.2687 186.489 15.32 186.554 15.404C186.676 15.5627 186.816 15.7167 186.974 15.866C187.133 16.006 187.334 16.118 187.576 16.202C187.828 16.286 188.141 16.328 188.514 16.328C189.074 16.328 189.536 16.2207 189.9 16.006C190.264 15.7913 190.446 15.474 190.446 15.054C190.446 14.7927 190.372 14.5827 190.222 14.424C190.082 14.2653 189.84 14.1253 189.494 14.004C189.149 13.8827 188.682 13.7567 188.094 13.626C187.506 13.486 187.054 13.318 186.736 13.122C186.428 12.926 186.218 12.702 186.106 12.45C185.994 12.1887 185.938 11.9087 185.938 11.61C185.938 11.2833 186.032 10.966 186.218 10.658C186.405 10.3407 186.68 10.084 187.044 9.888C187.418 9.68267 187.884 9.58 188.444 9.58C188.902 9.58 189.289 9.64067 189.606 9.762C189.933 9.88333 190.199 10.0327 190.404 10.21C190.61 10.378 190.759 10.546 190.852 10.714C190.955 10.882 191.011 11.0173 191.02 11.12C191.03 11.2133 191.002 11.288 190.936 11.344C190.871 11.4 190.796 11.428 190.712 11.428H190.502C190.428 11.428 190.367 11.414 190.32 11.386C190.274 11.3487 190.232 11.302 190.194 11.246C190.101 11.0967 189.989 10.9567 189.858 10.826C189.728 10.6953 189.55 10.5927 189.326 10.518C189.112 10.434 188.818 10.392 188.444 10.392C187.884 10.392 187.469 10.5087 187.198 10.742C186.928 10.966 186.792 11.2553 186.792 11.61C186.792 11.8153 186.848 11.9973 186.96 12.156C187.072 12.3053 187.282 12.4453 187.59 12.576C187.898 12.6973 188.346 12.828 188.934 12.968C189.532 13.0987 190.003 13.262 190.348 13.458C190.694 13.6447 190.936 13.8687 191.076 14.13C191.226 14.3913 191.3 14.6993 191.3 15.054C191.3 15.4273 191.193 15.7727 190.978 16.09C190.773 16.4073 190.46 16.664 190.04 16.86C189.63 17.0467 189.121 17.14 188.514 17.14ZM195.797 17.14C194.892 17.14 194.173 16.846 193.641 16.258C193.109 15.6607 192.806 14.8813 192.731 13.92C192.722 13.78 192.717 13.5933 192.717 13.36C192.717 13.1267 192.722 12.94 192.731 12.8C192.778 12.1653 192.927 11.6053 193.179 11.12C193.431 10.6347 193.776 10.2567 194.215 9.986C194.663 9.71533 195.19 9.58 195.797 9.58C196.45 9.58 197.006 9.72467 197.463 10.014C197.92 10.3033 198.27 10.7187 198.513 11.26C198.765 11.8013 198.891 12.4453 198.891 13.192V13.402C198.891 13.4953 198.858 13.57 198.793 13.626C198.737 13.682 198.662 13.71 198.569 13.71H193.585C193.585 13.71 193.585 13.7287 193.585 13.766C193.585 13.8033 193.585 13.8313 193.585 13.85C193.604 14.27 193.702 14.6713 193.879 15.054C194.056 15.4273 194.308 15.7353 194.635 15.978C194.962 16.2113 195.349 16.328 195.797 16.328C196.198 16.328 196.53 16.2673 196.791 16.146C197.062 16.0247 197.276 15.894 197.435 15.754C197.594 15.6047 197.696 15.4927 197.743 15.418C197.827 15.2967 197.892 15.2267 197.939 15.208C197.986 15.18 198.06 15.166 198.163 15.166H198.387C198.471 15.166 198.541 15.194 198.597 15.25C198.662 15.2967 198.69 15.362 198.681 15.446C198.672 15.5767 198.597 15.74 198.457 15.936C198.326 16.1227 198.135 16.3093 197.883 16.496C197.64 16.6827 197.342 16.8367 196.987 16.958C196.632 17.0793 196.236 17.14 195.797 17.14ZM193.585 12.926H198.037V12.87C198.037 12.4033 197.948 11.9833 197.771 11.61C197.594 11.2367 197.337 10.9427 197.001 10.728C196.665 10.504 196.264 10.392 195.797 10.392C195.33 10.392 194.929 10.504 194.593 10.728C194.266 10.9427 194.014 11.2367 193.837 11.61C193.669 11.9833 193.585 12.4033 193.585 12.87V12.926Z" fill="#222222"/>
<circle opacity="0.3" cx="12" cy="44" r="11.5" stroke="#42210B"/>
<path d="M36.046 50.4C35.9527 50.4 35.878 50.372 35.822 50.316C35.766 50.26 35.738 50.1853 35.738 50.092V49.112C35.0753 49.0653 34.5153 48.9207 34.058 48.678C33.6007 48.426 33.2507 48.1227 33.008 47.768C32.7653 47.404 32.6347 47.0213 32.616 46.62C32.616 46.5453 32.644 46.48 32.7 46.424C32.756 46.368 32.826 46.34 32.91 46.34H33.19C33.2833 46.34 33.3533 46.368 33.4 46.424C33.456 46.48 33.4887 46.5453 33.498 46.62C33.5353 46.8813 33.652 47.1427 33.848 47.404C34.044 47.656 34.3333 47.8707 34.716 48.048C35.0987 48.216 35.5933 48.3 36.2 48.3C37.1147 48.3 37.782 48.1367 38.202 47.81C38.622 47.474 38.832 47.026 38.832 46.466C38.832 46.0927 38.72 45.794 38.496 45.57C38.2813 45.3367 37.95 45.1313 37.502 44.954C37.054 44.7673 36.48 44.562 35.78 44.338C35.1173 44.1233 34.5713 43.904 34.142 43.68C33.7127 43.4467 33.3953 43.1667 33.19 42.84C32.994 42.5133 32.896 42.0933 32.896 41.58C32.896 40.9173 33.1387 40.3527 33.624 39.886C34.1187 39.41 34.8233 39.1393 35.738 39.074V38.108C35.738 38.0147 35.766 37.94 35.822 37.884C35.878 37.828 35.9527 37.8 36.046 37.8H36.312C36.4053 37.8 36.48 37.828 36.536 37.884C36.592 37.94 36.62 38.0147 36.62 38.108V39.088C37.2453 39.144 37.7633 39.3027 38.174 39.564C38.5847 39.8253 38.8927 40.1333 39.098 40.488C39.3127 40.8333 39.4247 41.174 39.434 41.51C39.434 41.5753 39.4107 41.6407 39.364 41.706C39.3173 41.762 39.2427 41.79 39.14 41.79H38.86C38.8133 41.79 38.7527 41.7713 38.678 41.734C38.6127 41.6967 38.5707 41.622 38.552 41.51C38.496 41.0433 38.2487 40.6607 37.81 40.362C37.3807 40.054 36.8207 39.9 36.13 39.9C35.4393 39.9 34.8747 40.0353 34.436 40.306C33.9973 40.5767 33.778 41.0013 33.778 41.58C33.778 41.9533 33.876 42.2613 34.072 42.504C34.268 42.7373 34.576 42.9473 34.996 43.134C35.416 43.3113 35.9573 43.5073 36.62 43.722C37.32 43.946 37.8987 44.17 38.356 44.394C38.8133 44.618 39.154 44.8933 39.378 45.22C39.602 45.5373 39.714 45.9527 39.714 46.466C39.714 46.9887 39.588 47.4413 39.336 47.824C39.0933 48.2067 38.7387 48.51 38.272 48.734C37.8147 48.9487 37.264 49.0793 36.62 49.126V50.092C36.62 50.1853 36.592 50.26 36.536 50.316C36.48 50.372 36.4053 50.4 36.312 50.4H36.046ZM41.3758 49C41.2825 49 41.2078 48.972 41.1518 48.916C41.0958 48.86 41.0678 48.7853 41.0678 48.692V48.482C41.0678 48.3887 41.0912 48.3 41.1378 48.216C41.1938 48.1227 41.2872 48.0153 41.4178 47.894L45.0438 44.268C45.3985 43.9413 45.6692 43.6567 45.8558 43.414C46.0425 43.1713 46.1685 42.9333 46.2338 42.7C46.3085 42.4573 46.3458 42.1913 46.3458 41.902C46.3458 41.2767 46.1638 40.7867 45.7998 40.432C45.4452 40.0773 44.9365 39.9 44.2738 39.9C43.8538 39.9 43.4898 39.984 43.1818 40.152C42.8738 40.32 42.6312 40.558 42.4538 40.866C42.2765 41.1647 42.1598 41.5147 42.1038 41.916C42.0945 42.028 42.0525 42.112 41.9778 42.168C41.9032 42.2147 41.8378 42.238 41.7818 42.238H41.5018C41.4085 42.238 41.3338 42.2147 41.2778 42.168C41.2312 42.112 41.2078 42.0467 41.2078 41.972C41.2172 41.6547 41.2825 41.328 41.4038 40.992C41.5252 40.6467 41.7072 40.3293 41.9498 40.04C42.2018 39.7507 42.5192 39.5173 42.9018 39.34C43.2845 39.1533 43.7418 39.06 44.2738 39.06C44.9832 39.06 45.5525 39.1953 45.9818 39.466C46.4205 39.7367 46.7378 40.0867 46.9338 40.516C47.1298 40.9453 47.2278 41.4073 47.2278 41.902C47.2278 42.2847 47.1718 42.6393 47.0598 42.966C46.9478 43.2833 46.7798 43.596 46.5558 43.904C46.3318 44.2027 46.0472 44.5107 45.7018 44.828L42.4258 48.16H47.1158C47.2185 48.16 47.2978 48.188 47.3538 48.244C47.4098 48.3 47.4378 48.3793 47.4378 48.482V48.692C47.4378 48.7853 47.4098 48.86 47.3538 48.916C47.2978 48.972 47.2185 49 47.1158 49H41.3758ZM52.0938 49.14C51.4125 49.14 50.8338 49.014 50.3578 48.762C49.8912 48.51 49.5318 48.188 49.2798 47.796C49.0278 47.3947 48.8925 46.9793 48.8738 46.55C48.8645 46.466 48.8878 46.4007 48.9438 46.354C48.9998 46.3073 49.0698 46.284 49.1538 46.284H49.4198C49.4945 46.284 49.5598 46.3027 49.6158 46.34C49.6812 46.3773 49.7325 46.466 49.7698 46.606C49.8725 47.0073 50.0405 47.334 50.2738 47.586C50.5165 47.838 50.7965 48.02 51.1138 48.132C51.4312 48.244 51.7578 48.3 52.0938 48.3C52.5512 48.3 52.9665 48.2067 53.3398 48.02C53.7225 47.8333 54.0258 47.558 54.2498 47.194C54.4738 46.83 54.5858 46.3867 54.5858 45.864C54.5858 45.3787 54.4738 44.968 54.2498 44.632C54.0258 44.2867 53.7225 44.0253 53.3398 43.848C52.9665 43.6613 52.5512 43.568 52.0938 43.568C51.7485 43.568 51.4638 43.61 51.2398 43.694C51.0158 43.778 50.8292 43.876 50.6798 43.988C50.5305 44.1 50.3952 44.198 50.2738 44.282C50.1525 44.366 50.0172 44.408 49.8678 44.408H49.6158C49.5318 44.408 49.4572 44.38 49.3918 44.324C49.3265 44.2587 49.2985 44.184 49.3078 44.1L49.7278 39.522C49.7372 39.4193 49.7652 39.34 49.8118 39.284C49.8678 39.228 49.9425 39.2 50.0358 39.2H54.5998C54.6932 39.2 54.7678 39.228 54.8238 39.284C54.8798 39.34 54.9078 39.4147 54.9078 39.508V39.732C54.9078 39.8253 54.8798 39.9 54.8238 39.956C54.7678 40.012 54.6932 40.04 54.5998 40.04H50.5818L50.2878 43.204C50.3905 43.1387 50.5865 43.0453 50.8758 42.924C51.1652 42.7933 51.5712 42.728 52.0938 42.728C52.5605 42.728 52.9945 42.798 53.3958 42.938C53.8065 43.0687 54.1658 43.2693 54.4738 43.54C54.7912 43.8013 55.0338 44.128 55.2018 44.52C55.3792 44.9027 55.4678 45.3507 55.4678 45.864C55.4678 46.592 55.3138 47.1987 55.0058 47.684C54.7072 48.1693 54.3012 48.5333 53.7878 48.776C53.2838 49.0187 52.7192 49.14 52.0938 49.14ZM57.3652 49C57.2718 49 57.1972 48.972 57.1412 48.916C57.0852 48.86 57.0572 48.7853 57.0572 48.692V48.02C57.0572 47.9267 57.0852 47.852 57.1412 47.796C57.1972 47.7307 57.2718 47.698 57.3652 47.698H58.0372C58.1305 47.698 58.2052 47.7307 58.2612 47.796C58.3265 47.852 58.3592 47.9267 58.3592 48.02V48.692C58.3592 48.7853 58.3265 48.86 58.2612 48.916C58.2052 48.972 58.1305 49 58.0372 49H57.3652ZM61.5288 49C61.4448 49 61.3748 48.972 61.3188 48.916C61.2722 48.8507 61.2488 48.776 61.2488 48.692C61.2488 48.6453 61.2582 48.608 61.2768 48.58C61.2955 48.552 61.3095 48.5287 61.3188 48.51L63.5308 45.402C63.2508 45.4767 62.9475 45.514 62.6208 45.514C62.0608 45.514 61.5708 45.4207 61.1508 45.234C60.7402 45.0473 60.3948 44.8 60.1148 44.492C59.8442 44.1747 59.6388 43.8293 59.4988 43.456C59.3682 43.0733 59.3028 42.686 59.3028 42.294C59.3028 41.902 59.3682 41.5147 59.4988 41.132C59.6388 40.7493 59.8442 40.404 60.1148 40.096C60.3948 39.7787 60.7402 39.5267 61.1508 39.34C61.5708 39.1533 62.0608 39.06 62.6208 39.06C63.1808 39.06 63.6662 39.1533 64.0768 39.34C64.4968 39.5267 64.8468 39.7787 65.1268 40.096C65.4068 40.404 65.6122 40.7493 65.7428 41.132C65.8828 41.5147 65.9528 41.902 65.9528 42.294C65.9528 42.658 65.9062 42.9893 65.8128 43.288C65.7195 43.5867 65.6075 43.848 65.4768 44.072C65.3555 44.296 65.2388 44.4873 65.1268 44.646L62.2428 48.72C62.2055 48.7667 62.1542 48.8273 62.0888 48.902C62.0328 48.9673 61.9395 49 61.8088 49H61.5288ZM62.6208 44.674C63.0595 44.674 63.4655 44.576 63.8388 44.38C64.2122 44.184 64.5108 43.9087 64.7348 43.554C64.9588 43.1993 65.0708 42.7793 65.0708 42.294C65.0708 41.7993 64.9588 41.3747 64.7348 41.02C64.5108 40.6653 64.2122 40.39 63.8388 40.194C63.4655 39.998 63.0595 39.9 62.6208 39.9C62.1822 39.9 61.7762 39.998 61.4028 40.194C61.0388 40.39 60.7448 40.6653 60.5208 41.02C60.2968 41.3747 60.1848 41.7993 60.1848 42.294C60.1848 42.7793 60.2968 43.1993 60.5208 43.554C60.7448 43.9087 61.0388 44.184 61.4028 44.38C61.7762 44.576 62.1822 44.674 62.6208 44.674ZM69.5406 49C69.4566 49 69.3866 48.972 69.3306 48.916C69.2839 48.8507 69.2606 48.776 69.2606 48.692C69.2606 48.6453 69.2699 48.608 69.2886 48.58C69.3072 48.552 69.3212 48.5287 69.3306 48.51L71.5426 45.402C71.2626 45.4767 70.9592 45.514 70.6326 45.514C70.0726 45.514 69.5826 45.4207 69.1626 45.234C68.7519 45.0473 68.4066 44.8 68.1266 44.492C67.8559 44.1747 67.6506 43.8293 67.5106 43.456C67.3799 43.0733 67.3146 42.686 67.3146 42.294C67.3146 41.902 67.3799 41.5147 67.5106 41.132C67.6506 40.7493 67.8559 40.404 68.1266 40.096C68.4066 39.7787 68.7519 39.5267 69.1626 39.34C69.5826 39.1533 70.0726 39.06 70.6326 39.06C71.1926 39.06 71.6779 39.1533 72.0886 39.34C72.5086 39.5267 72.8586 39.7787 73.1386 40.096C73.4186 40.404 73.6239 40.7493 73.7546 41.132C73.8946 41.5147 73.9646 41.902 73.9646 42.294C73.9646 42.658 73.9179 42.9893 73.8246 43.288C73.7312 43.5867 73.6192 43.848 73.4886 44.072C73.3672 44.296 73.2506 44.4873 73.1386 44.646L70.2546 48.72C70.2172 48.7667 70.1659 48.8273 70.1006 48.902C70.0446 48.9673 69.9512 49 69.8206 49H69.5406ZM70.6326 44.674C71.0712 44.674 71.4772 44.576 71.8506 44.38C72.2239 44.184 72.5226 43.9087 72.7466 43.554C72.9706 43.1993 73.0826 42.7793 73.0826 42.294C73.0826 41.7993 72.9706 41.3747 72.7466 41.02C72.5226 40.6653 72.2239 40.39 71.8506 40.194C71.4772 39.998 71.0712 39.9 70.6326 39.9C70.1939 39.9 69.7879 39.998 69.4146 40.194C69.0506 40.39 68.7566 40.6653 68.5326 41.02C68.3086 41.3747 68.1966 41.7993 68.1966 42.294C68.1966 42.7793 68.3086 43.1993 68.5326 43.554C68.7566 43.9087 69.0506 44.184 69.4146 44.38C69.7879 44.576 70.1939 44.674 70.6326 44.674ZM82.6037 49.14C81.8477 49.14 81.2037 49.0187 80.6717 48.776C80.149 48.5333 79.7477 48.2207 79.4677 47.838C79.1877 47.4553 79.0383 47.0493 79.0197 46.62C79.0197 46.5453 79.0477 46.48 79.1037 46.424C79.1597 46.368 79.2297 46.34 79.3137 46.34H79.5937C79.687 46.34 79.757 46.368 79.8037 46.424C79.8597 46.48 79.8923 46.5453 79.9017 46.62C79.939 46.8813 80.0557 47.1427 80.2517 47.404C80.4477 47.656 80.737 47.8707 81.1197 48.048C81.5023 48.216 81.997 48.3 82.6037 48.3C83.5183 48.3 84.1857 48.1367 84.6057 47.81C85.0257 47.474 85.2357 47.026 85.2357 46.466C85.2357 46.0927 85.1237 45.794 84.8997 45.57C84.685 45.3367 84.3537 45.1313 83.9057 44.954C83.4577 44.7673 82.8837 44.562 82.1837 44.338C81.521 44.1233 80.975 43.904 80.5457 43.68C80.1163 43.4467 79.799 43.1667 79.5937 42.84C79.3977 42.5133 79.2997 42.0933 79.2997 41.58C79.2997 41.104 79.4257 40.6793 79.6777 40.306C79.9297 39.9233 80.2937 39.62 80.7697 39.396C81.255 39.172 81.843 39.06 82.5337 39.06C83.0843 39.06 83.565 39.1347 83.9757 39.284C84.3863 39.4333 84.727 39.634 84.9977 39.886C85.2683 40.1287 85.4737 40.3947 85.6137 40.684C85.7537 40.964 85.8283 41.2393 85.8377 41.51C85.8377 41.5753 85.8143 41.6407 85.7677 41.706C85.721 41.762 85.6463 41.79 85.5437 41.79H85.2637C85.217 41.79 85.1563 41.7713 85.0817 41.734C85.0163 41.6967 84.9743 41.622 84.9557 41.51C84.8997 41.0433 84.6523 40.6607 84.2137 40.362C83.7843 40.054 83.2243 39.9 82.5337 39.9C81.843 39.9 81.2783 40.0353 80.8397 40.306C80.401 40.5767 80.1817 41.0013 80.1817 41.58C80.1817 41.9533 80.2797 42.2613 80.4757 42.504C80.6717 42.7373 80.9797 42.9473 81.3997 43.134C81.8197 43.3113 82.361 43.5073 83.0237 43.722C83.7237 43.946 84.3023 44.17 84.7597 44.394C85.217 44.618 85.5577 44.8933 85.7817 45.22C86.0057 45.5373 86.1177 45.9527 86.1177 46.466C86.1177 47.0353 85.973 47.5207 85.6837 47.922C85.4037 48.314 85.0023 48.6173 84.4797 48.832C83.957 49.0373 83.3317 49.14 82.6037 49.14ZM90.6882 49.14C90.0536 49.14 89.5262 49.0047 89.1062 48.734C88.6956 48.454 88.3876 48.076 88.1822 47.6C87.9862 47.124 87.8882 46.592 87.8882 46.004V42.028C87.8882 41.9347 87.9162 41.86 87.9722 41.804C88.0282 41.748 88.1029 41.72 88.1962 41.72H88.4342C88.5276 41.72 88.6022 41.748 88.6582 41.804C88.7142 41.86 88.7422 41.9347 88.7422 42.028V45.934C88.7422 47.53 89.4376 48.328 90.8282 48.328C91.4909 48.328 92.0229 48.118 92.4242 47.698C92.8256 47.2687 93.0262 46.6807 93.0262 45.934V42.028C93.0262 41.9347 93.0542 41.86 93.1102 41.804C93.1662 41.748 93.2409 41.72 93.3342 41.72H93.5722C93.6656 41.72 93.7402 41.748 93.7962 41.804C93.8522 41.86 93.8802 41.9347 93.8802 42.028V48.692C93.8802 48.7853 93.8522 48.86 93.7962 48.916C93.7402 48.972 93.6656 49 93.5722 49H93.3342C93.2409 49 93.1662 48.972 93.1102 48.916C93.0542 48.86 93.0262 48.7853 93.0262 48.692V48.034C92.7742 48.3607 92.4709 48.6267 92.1162 48.832C91.7709 49.0373 91.2949 49.14 90.6882 49.14ZM99.3677 49.14C98.789 49.14 98.3083 49.0373 97.9257 48.832C97.5523 48.6173 97.249 48.3513 97.0157 48.034V48.692C97.0157 48.7853 96.9877 48.86 96.9317 48.916C96.8757 48.972 96.801 49 96.7077 49H96.4697C96.3763 49 96.3017 48.972 96.2457 48.916C96.1897 48.86 96.1617 48.7853 96.1617 48.692V39.368C96.1617 39.2747 96.1897 39.2 96.2457 39.144C96.3017 39.088 96.3763 39.06 96.4697 39.06H96.7077C96.801 39.06 96.8757 39.088 96.9317 39.144C96.9877 39.2 97.0157 39.2747 97.0157 39.368V42.686C97.249 42.378 97.5523 42.1167 97.9257 41.902C98.3083 41.6873 98.789 41.58 99.3677 41.58C99.9183 41.58 100.38 41.678 100.754 41.874C101.127 42.07 101.43 42.3313 101.664 42.658C101.897 42.9847 102.07 43.3487 102.182 43.75C102.294 44.1513 102.354 44.5573 102.364 44.968C102.373 45.108 102.378 45.2387 102.378 45.36C102.378 45.4813 102.373 45.612 102.364 45.752C102.354 46.1627 102.294 46.5687 102.182 46.97C102.07 47.3713 101.897 47.7353 101.664 48.062C101.43 48.3887 101.127 48.65 100.754 48.846C100.38 49.042 99.9183 49.14 99.3677 49.14ZM99.2837 48.328C99.8343 48.328 100.268 48.2067 100.586 47.964C100.903 47.7213 101.132 47.404 101.272 47.012C101.412 46.62 101.491 46.2 101.51 45.752C101.519 45.4907 101.519 45.2293 101.51 44.968C101.491 44.52 101.412 44.1 101.272 43.708C101.132 43.316 100.903 42.9987 100.586 42.756C100.268 42.5133 99.8343 42.392 99.2837 42.392C98.7703 42.392 98.3457 42.5133 98.0097 42.756C97.683 42.9987 97.4357 43.302 97.2677 43.666C97.109 44.03 97.025 44.3987 97.0157 44.772C97.0063 44.912 97.0017 45.094 97.0017 45.318C97.0017 45.542 97.0063 45.724 97.0157 45.864C97.0343 46.2467 97.1183 46.6293 97.2677 47.012C97.4263 47.3853 97.669 47.698 97.9957 47.95C98.3223 48.202 98.7517 48.328 99.2837 48.328ZM106.579 49.14C106.093 49.14 105.673 49.0747 105.319 48.944C104.973 48.8133 104.689 48.6593 104.465 48.482C104.241 48.2953 104.073 48.1133 103.961 47.936C103.858 47.7587 103.802 47.6233 103.793 47.53C103.783 47.4273 103.816 47.3527 103.891 47.306C103.965 47.25 104.035 47.222 104.101 47.222H104.311C104.367 47.222 104.413 47.2313 104.451 47.25C104.497 47.2687 104.553 47.32 104.619 47.404C104.74 47.5627 104.88 47.7167 105.039 47.866C105.197 48.006 105.398 48.118 105.641 48.202C105.893 48.286 106.205 48.328 106.579 48.328C107.139 48.328 107.601 48.2207 107.965 48.006C108.329 47.7913 108.511 47.474 108.511 47.054C108.511 46.7927 108.436 46.5827 108.287 46.424C108.147 46.2653 107.904 46.1253 107.559 46.004C107.213 45.8827 106.747 45.7567 106.159 45.626C105.571 45.486 105.118 45.318 104.801 45.122C104.493 44.926 104.283 44.702 104.171 44.45C104.059 44.1887 104.003 43.9087 104.003 43.61C104.003 43.2833 104.096 42.966 104.283 42.658C104.469 42.3407 104.745 42.084 105.109 41.888C105.482 41.6827 105.949 41.58 106.509 41.58C106.966 41.58 107.353 41.6407 107.671 41.762C107.997 41.8833 108.263 42.0327 108.469 42.21C108.674 42.378 108.823 42.546 108.917 42.714C109.019 42.882 109.075 43.0173 109.085 43.12C109.094 43.2133 109.066 43.288 109.001 43.344C108.935 43.4 108.861 43.428 108.777 43.428H108.567C108.492 43.428 108.431 43.414 108.385 43.386C108.338 43.3487 108.296 43.302 108.259 43.246C108.165 43.0967 108.053 42.9567 107.923 42.826C107.792 42.6953 107.615 42.5927 107.391 42.518C107.176 42.434 106.882 42.392 106.509 42.392C105.949 42.392 105.533 42.5087 105.263 42.742C104.992 42.966 104.857 43.2553 104.857 43.61C104.857 43.8153 104.913 43.9973 105.025 44.156C105.137 44.3053 105.347 44.4453 105.655 44.576C105.963 44.6973 106.411 44.828 106.999 44.968C107.596 45.0987 108.067 45.262 108.413 45.458C108.758 45.6447 109.001 45.8687 109.141 46.13C109.29 46.3913 109.365 46.6993 109.365 47.054C109.365 47.4273 109.257 47.7727 109.043 48.09C108.837 48.4073 108.525 48.664 108.105 48.86C107.694 49.0467 107.185 49.14 106.579 49.14ZM113.917 49.14C113.264 49.14 112.709 49.014 112.251 48.762C111.794 48.5007 111.444 48.1273 111.201 47.642C110.968 47.1567 110.842 46.5827 110.823 45.92C110.814 45.78 110.809 45.5933 110.809 45.36C110.809 45.1267 110.814 44.94 110.823 44.8C110.842 44.128 110.968 43.554 111.201 43.078C111.444 42.5927 111.794 42.224 112.251 41.972C112.709 41.7107 113.264 41.58 113.917 41.58C114.412 41.58 114.837 41.65 115.191 41.79C115.555 41.9207 115.854 42.098 116.087 42.322C116.321 42.5367 116.498 42.7747 116.619 43.036C116.741 43.2973 116.806 43.554 116.815 43.806C116.825 43.8993 116.797 43.974 116.731 44.03C116.666 44.086 116.591 44.114 116.507 44.114H116.311C116.218 44.114 116.148 44.0953 116.101 44.058C116.064 44.0113 116.022 43.932 115.975 43.82C115.779 43.288 115.509 42.9193 115.163 42.714C114.827 42.4993 114.412 42.392 113.917 42.392C113.283 42.392 112.755 42.588 112.335 42.98C111.925 43.3627 111.705 43.9927 111.677 44.87C111.659 45.1967 111.659 45.5233 111.677 45.85C111.705 46.7273 111.925 47.362 112.335 47.754C112.755 48.1367 113.283 48.328 113.917 48.328C114.412 48.328 114.827 48.2253 115.163 48.02C115.509 47.8053 115.779 47.432 115.975 46.9C116.022 46.788 116.064 46.7133 116.101 46.676C116.148 46.6293 116.218 46.606 116.311 46.606H116.507C116.591 46.606 116.666 46.634 116.731 46.69C116.797 46.746 116.825 46.8207 116.815 46.914C116.806 47.1193 116.764 47.3247 116.689 47.53C116.615 47.7353 116.498 47.936 116.339 48.132C116.19 48.328 116.003 48.5007 115.779 48.65C115.555 48.7993 115.285 48.916 114.967 49C114.659 49.0933 114.309 49.14 113.917 49.14ZM118.973 49C118.88 49 118.805 48.972 118.749 48.916C118.693 48.86 118.665 48.7853 118.665 48.692V42.042C118.665 41.9487 118.693 41.874 118.749 41.818C118.805 41.7527 118.88 41.72 118.973 41.72H119.197C119.291 41.72 119.365 41.7527 119.421 41.818C119.487 41.874 119.519 41.9487 119.519 42.042V42.686C119.687 42.3593 119.93 42.1167 120.247 41.958C120.565 41.7993 120.957 41.72 121.423 41.72H121.941C122.035 41.72 122.109 41.748 122.165 41.804C122.221 41.86 122.249 41.9347 122.249 42.028V42.224C122.249 42.3173 122.221 42.392 122.165 42.448C122.109 42.504 122.035 42.532 121.941 42.532H121.339C120.779 42.532 120.336 42.6953 120.009 43.022C119.683 43.3487 119.519 43.792 119.519 44.352V48.692C119.519 48.7853 119.487 48.86 119.421 48.916C119.365 48.972 119.291 49 119.197 49H118.973ZM123.84 49C123.747 49 123.672 48.972 123.616 48.916C123.56 48.86 123.532 48.7853 123.532 48.692V42.028C123.532 41.9347 123.56 41.86 123.616 41.804C123.672 41.748 123.747 41.72 123.84 41.72H124.078C124.172 41.72 124.246 41.748 124.302 41.804C124.358 41.86 124.386 41.9347 124.386 42.028V48.692C124.386 48.7853 124.358 48.86 124.302 48.916C124.246 48.972 124.172 49 124.078 49H123.84ZM123.686 40.222C123.593 40.222 123.518 40.194 123.462 40.138C123.406 40.082 123.378 40.0073 123.378 39.914V39.382C123.378 39.2887 123.406 39.214 123.462 39.158C123.518 39.0927 123.593 39.06 123.686 39.06H124.218C124.312 39.06 124.386 39.0927 124.442 39.158C124.508 39.214 124.54 39.2887 124.54 39.382V39.914C124.54 40.0073 124.508 40.082 124.442 40.138C124.386 40.194 124.312 40.222 124.218 40.222H123.686ZM129.87 49.14C129.291 49.14 128.81 49.0373 128.428 48.832C128.054 48.6173 127.751 48.3513 127.518 48.034V48.692C127.518 48.7853 127.49 48.86 127.434 48.916C127.378 48.972 127.303 49 127.21 49H126.972C126.878 49 126.804 48.972 126.748 48.916C126.692 48.86 126.664 48.7853 126.664 48.692V39.368C126.664 39.2747 126.692 39.2 126.748 39.144C126.804 39.088 126.878 39.06 126.972 39.06H127.21C127.303 39.06 127.378 39.088 127.434 39.144C127.49 39.2 127.518 39.2747 127.518 39.368V42.686C127.751 42.378 128.054 42.1167 128.428 41.902C128.81 41.6873 129.291 41.58 129.87 41.58C130.42 41.58 130.882 41.678 131.256 41.874C131.629 42.07 131.932 42.3313 132.166 42.658C132.399 42.9847 132.572 43.3487 132.684 43.75C132.796 44.1513 132.856 44.5573 132.866 44.968C132.875 45.108 132.88 45.2387 132.88 45.36C132.88 45.4813 132.875 45.612 132.866 45.752C132.856 46.1627 132.796 46.5687 132.684 46.97C132.572 47.3713 132.399 47.7353 132.166 48.062C131.932 48.3887 131.629 48.65 131.256 48.846C130.882 49.042 130.42 49.14 129.87 49.14ZM129.786 48.328C130.336 48.328 130.77 48.2067 131.088 47.964C131.405 47.7213 131.634 47.404 131.774 47.012C131.914 46.62 131.993 46.2 132.012 45.752C132.021 45.4907 132.021 45.2293 132.012 44.968C131.993 44.52 131.914 44.1 131.774 43.708C131.634 43.316 131.405 42.9987 131.088 42.756C130.77 42.5133 130.336 42.392 129.786 42.392C129.272 42.392 128.848 42.5133 128.512 42.756C128.185 42.9987 127.938 43.302 127.77 43.666C127.611 44.03 127.527 44.3987 127.518 44.772C127.508 44.912 127.504 45.094 127.504 45.318C127.504 45.542 127.508 45.724 127.518 45.864C127.536 46.2467 127.62 46.6293 127.77 47.012C127.928 47.3853 128.171 47.698 128.498 47.95C128.824 48.202 129.254 48.328 129.786 48.328ZM137.473 49.14C136.567 49.14 135.849 48.846 135.317 48.258C134.785 47.6607 134.481 46.8813 134.407 45.92C134.397 45.78 134.393 45.5933 134.393 45.36C134.393 45.1267 134.397 44.94 134.407 44.8C134.453 44.1653 134.603 43.6053 134.855 43.12C135.107 42.6347 135.452 42.2567 135.891 41.986C136.339 41.7153 136.866 41.58 137.473 41.58C138.126 41.58 138.681 41.7247 139.139 42.014C139.596 42.3033 139.946 42.7187 140.189 43.26C140.441 43.8013 140.567 44.4453 140.567 45.192V45.402C140.567 45.4953 140.534 45.57 140.469 45.626C140.413 45.682 140.338 45.71 140.245 45.71H135.261C135.261 45.71 135.261 45.7287 135.261 45.766C135.261 45.8033 135.261 45.8313 135.261 45.85C135.279 46.27 135.377 46.6713 135.555 47.054C135.732 47.4273 135.984 47.7353 136.311 47.978C136.637 48.2113 137.025 48.328 137.473 48.328C137.874 48.328 138.205 48.2673 138.467 48.146C138.737 48.0247 138.952 47.894 139.111 47.754C139.269 47.6047 139.372 47.4927 139.419 47.418C139.503 47.2967 139.568 47.2267 139.615 47.208C139.661 47.18 139.736 47.166 139.839 47.166H140.063C140.147 47.166 140.217 47.194 140.273 47.25C140.338 47.2967 140.366 47.362 140.357 47.446C140.347 47.5767 140.273 47.74 140.133 47.936C140.002 48.1227 139.811 48.3093 139.559 48.496C139.316 48.6827 139.017 48.8367 138.663 48.958C138.308 49.0793 137.911 49.14 137.473 49.14ZM135.261 44.926H139.713V44.87C139.713 44.4033 139.624 43.9833 139.447 43.61C139.269 43.2367 139.013 42.9427 138.677 42.728C138.341 42.504 137.939 42.392 137.473 42.392C137.006 42.392 136.605 42.504 136.269 42.728C135.942 42.9427 135.69 43.2367 135.513 43.61C135.345 43.9833 135.261 44.4033 135.261 44.87V44.926ZM147.983 49.14C147.535 49.14 147.119 49.0467 146.737 48.86C146.363 48.6733 146.06 48.426 145.827 48.118C145.593 47.8007 145.477 47.446 145.477 47.054C145.477 46.4193 145.733 45.9107 146.247 45.528C146.76 45.1453 147.427 44.898 148.249 44.786L150.461 44.478V43.988C150.461 43.4933 150.307 43.106 149.999 42.826C149.7 42.5367 149.219 42.392 148.557 42.392C148.071 42.392 147.679 42.49 147.381 42.686C147.082 42.8727 146.877 43.12 146.765 43.428C146.718 43.568 146.629 43.638 146.499 43.638H146.275C146.163 43.638 146.083 43.61 146.037 43.554C145.99 43.4887 145.967 43.414 145.967 43.33C145.967 43.1993 146.013 43.036 146.107 42.84C146.209 42.644 146.363 42.4527 146.569 42.266C146.774 42.07 147.04 41.9067 147.367 41.776C147.693 41.6453 148.09 41.58 148.557 41.58C149.107 41.58 149.56 41.6547 149.915 41.804C150.279 41.9533 150.559 42.1493 150.755 42.392C150.96 42.6253 151.105 42.8867 151.189 43.176C151.273 43.4653 151.315 43.75 151.315 44.03V48.692C151.315 48.7853 151.287 48.86 151.231 48.916C151.175 48.972 151.1 49 151.007 49H150.769C150.675 49 150.601 48.972 150.545 48.916C150.489 48.86 150.461 48.7853 150.461 48.692V48.034C150.349 48.202 150.19 48.37 149.985 48.538C149.779 48.706 149.513 48.8507 149.187 48.972C148.869 49.084 148.468 49.14 147.983 49.14ZM148.123 48.328C148.552 48.328 148.944 48.2347 149.299 48.048C149.653 47.8613 149.933 47.5767 150.139 47.194C150.353 46.802 150.461 46.312 150.461 45.724V45.248L148.655 45.5C147.889 45.6027 147.311 45.78 146.919 46.032C146.527 46.284 146.331 46.6013 146.331 46.984C146.331 47.292 146.419 47.544 146.597 47.74C146.774 47.936 146.998 48.0853 147.269 48.188C147.549 48.2813 147.833 48.328 148.123 48.328ZM153.837 49C153.743 49 153.669 48.972 153.613 48.916C153.557 48.86 153.529 48.7853 153.529 48.692V42.028C153.529 41.9347 153.557 41.86 153.613 41.804C153.669 41.748 153.743 41.72 153.837 41.72H154.075C154.168 41.72 154.243 41.748 154.299 41.804C154.355 41.86 154.383 41.9347 154.383 42.028V42.686C154.635 42.3593 154.938 42.0933 155.293 41.888C155.657 41.6827 156.137 41.58 156.735 41.58C157.369 41.58 157.897 41.72 158.317 42C158.746 42.2707 159.063 42.644 159.269 43.12C159.483 43.5867 159.591 44.1187 159.591 44.716V48.692C159.591 48.7853 159.563 48.86 159.507 48.916C159.451 48.972 159.376 49 159.283 49H159.045C158.951 49 158.877 48.972 158.821 48.916C158.765 48.86 158.737 48.7853 158.737 48.692V44.786C158.737 44.0393 158.555 43.456 158.191 43.036C157.827 42.6067 157.295 42.392 156.595 42.392C155.932 42.392 155.395 42.6067 154.985 43.036C154.583 43.456 154.383 44.0393 154.383 44.786V48.692C154.383 48.7853 154.355 48.86 154.299 48.916C154.243 48.972 154.168 49 154.075 49H153.837ZM164.418 49.14C163.877 49.14 163.415 49.042 163.032 48.846C162.659 48.65 162.356 48.3887 162.122 48.062C161.889 47.7353 161.716 47.3713 161.604 46.97C161.502 46.5687 161.441 46.1627 161.422 45.752C161.413 45.612 161.408 45.4813 161.408 45.36C161.408 45.2387 161.413 45.108 161.422 44.968C161.441 44.5573 161.502 44.1513 161.604 43.75C161.716 43.3487 161.889 42.9847 162.122 42.658C162.356 42.3313 162.659 42.07 163.032 41.874C163.415 41.678 163.877 41.58 164.418 41.58C164.997 41.58 165.473 41.6873 165.846 41.902C166.229 42.1167 166.537 42.378 166.77 42.686V39.368C166.77 39.2747 166.798 39.2 166.854 39.144C166.91 39.088 166.985 39.06 167.078 39.06H167.316C167.41 39.06 167.484 39.088 167.54 39.144C167.596 39.2 167.624 39.2747 167.624 39.368V48.692C167.624 48.7853 167.596 48.86 167.54 48.916C167.484 48.972 167.41 49 167.316 49H167.078C166.985 49 166.91 48.972 166.854 48.916C166.798 48.86 166.77 48.7853 166.77 48.692V48.034C166.537 48.3513 166.229 48.6173 165.846 48.832C165.473 49.0373 164.997 49.14 164.418 49.14ZM164.502 48.328C165.034 48.328 165.464 48.202 165.79 47.95C166.117 47.698 166.36 47.3853 166.518 47.012C166.677 46.6293 166.761 46.2467 166.77 45.864C166.78 45.724 166.784 45.542 166.784 45.318C166.784 45.094 166.78 44.912 166.77 44.772C166.761 44.3987 166.672 44.03 166.504 43.666C166.346 43.302 166.103 42.9987 165.776 42.756C165.45 42.5133 165.025 42.392 164.502 42.392C163.961 42.392 163.527 42.5133 163.2 42.756C162.883 42.9987 162.654 43.316 162.514 43.708C162.374 44.1 162.295 44.52 162.276 44.968C162.267 45.2293 162.267 45.4907 162.276 45.752C162.295 46.2 162.374 46.62 162.514 47.012C162.654 47.404 162.883 47.7213 163.2 47.964C163.527 48.2067 163.961 48.328 164.502 48.328ZM175.827 49.14C175.341 49.14 174.921 49.0747 174.567 48.944C174.221 48.8133 173.937 48.6593 173.713 48.482C173.489 48.2953 173.321 48.1133 173.209 47.936C173.106 47.7587 173.05 47.6233 173.041 47.53C173.031 47.4273 173.064 47.3527 173.139 47.306C173.213 47.25 173.283 47.222 173.349 47.222H173.559C173.615 47.222 173.661 47.2313 173.699 47.25C173.745 47.2687 173.801 47.32 173.867 47.404C173.988 47.5627 174.128 47.7167 174.287 47.866C174.445 48.006 174.646 48.118 174.889 48.202C175.141 48.286 175.453 48.328 175.827 48.328C176.387 48.328 176.849 48.2207 177.213 48.006C177.577 47.7913 177.759 47.474 177.759 47.054C177.759 46.7927 177.684 46.5827 177.535 46.424C177.395 46.2653 177.152 46.1253 176.807 46.004C176.461 45.8827 175.995 45.7567 175.407 45.626C174.819 45.486 174.366 45.318 174.049 45.122C173.741 44.926 173.531 44.702 173.419 44.45C173.307 44.1887 173.251 43.9087 173.251 43.61C173.251 43.2833 173.344 42.966 173.531 42.658C173.717 42.3407 173.993 42.084 174.357 41.888C174.73 41.6827 175.197 41.58 175.757 41.58C176.214 41.58 176.601 41.6407 176.919 41.762C177.245 41.8833 177.511 42.0327 177.717 42.21C177.922 42.378 178.071 42.546 178.165 42.714C178.267 42.882 178.323 43.0173 178.333 43.12C178.342 43.2133 178.314 43.288 178.249 43.344C178.183 43.4 178.109 43.428 178.025 43.428H177.815C177.74 43.428 177.679 43.414 177.633 43.386C177.586 43.3487 177.544 43.302 177.507 43.246C177.413 43.0967 177.301 42.9567 177.171 42.826C177.04 42.6953 176.863 42.5927 176.639 42.518C176.424 42.434 176.13 42.392 175.757 42.392C175.197 42.392 174.781 42.5087 174.511 42.742C174.24 42.966 174.105 43.2553 174.105 43.61C174.105 43.8153 174.161 43.9973 174.273 44.156C174.385 44.3053 174.595 44.4453 174.903 44.576C175.211 44.6973 175.659 44.828 176.247 44.968C176.844 45.0987 177.315 45.262 177.661 45.458C178.006 45.6447 178.249 45.8687 178.389 46.13C178.538 46.3913 178.613 46.6993 178.613 47.054C178.613 47.4273 178.505 47.7727 178.291 48.09C178.085 48.4073 177.773 48.664 177.353 48.86C176.942 49.0467 176.433 49.14 175.827 49.14ZM182.367 49.14C181.919 49.14 181.504 49.0467 181.121 48.86C180.748 48.6733 180.445 48.426 180.211 48.118C179.978 47.8007 179.861 47.446 179.861 47.054C179.861 46.4193 180.118 45.9107 180.631 45.528C181.145 45.1453 181.812 44.898 182.633 44.786L184.845 44.478V43.988C184.845 43.4933 184.691 43.106 184.383 42.826C184.085 42.5367 183.604 42.392 182.941 42.392C182.456 42.392 182.064 42.49 181.765 42.686C181.467 42.8727 181.261 43.12 181.149 43.428C181.103 43.568 181.014 43.638 180.883 43.638H180.659C180.547 43.638 180.468 43.61 180.421 43.554C180.375 43.4887 180.351 43.414 180.351 43.33C180.351 43.1993 180.398 43.036 180.491 42.84C180.594 42.644 180.748 42.4527 180.953 42.266C181.159 42.07 181.425 41.9067 181.751 41.776C182.078 41.6453 182.475 41.58 182.941 41.58C183.492 41.58 183.945 41.6547 184.299 41.804C184.663 41.9533 184.943 42.1493 185.139 42.392C185.345 42.6253 185.489 42.8867 185.573 43.176C185.657 43.4653 185.699 43.75 185.699 44.03V48.692C185.699 48.7853 185.671 48.86 185.615 48.916C185.559 48.972 185.485 49 185.391 49H185.153C185.06 49 184.985 48.972 184.929 48.916C184.873 48.86 184.845 48.7853 184.845 48.692V48.034C184.733 48.202 184.575 48.37 184.369 48.538C184.164 48.706 183.898 48.8507 183.571 48.972C183.254 49.084 182.853 49.14 182.367 49.14ZM182.507 48.328C182.937 48.328 183.329 48.2347 183.683 48.048C184.038 47.8613 184.318 47.5767 184.523 47.194C184.738 46.802 184.845 46.312 184.845 45.724V45.248L183.039 45.5C182.274 45.6027 181.695 45.78 181.303 46.032C180.911 46.284 180.715 46.6013 180.715 46.984C180.715 47.292 180.804 47.544 180.981 47.74C181.159 47.936 181.383 48.0853 181.653 48.188C181.933 48.2813 182.218 48.328 182.507 48.328ZM190.31 49C190.161 49 190.044 48.9673 189.96 48.902C189.885 48.8367 189.825 48.7527 189.778 48.65L187.202 42.154C187.183 42.098 187.174 42.0467 187.174 42C187.174 41.9253 187.202 41.86 187.258 41.804C187.314 41.748 187.379 41.72 187.454 41.72H187.748C187.841 41.72 187.911 41.748 187.958 41.804C188.014 41.8507 188.047 41.8927 188.056 41.93L190.422 47.978L192.788 41.93C192.807 41.8927 192.839 41.8507 192.886 41.804C192.933 41.748 193.003 41.72 193.096 41.72H193.39C193.465 41.72 193.53 41.748 193.586 41.804C193.642 41.86 193.67 41.9253 193.67 42C193.67 42.0467 193.661 42.098 193.642 42.154L191.066 48.65C191.029 48.7527 190.968 48.8367 190.884 48.902C190.8 48.9673 190.683 49 190.534 49H190.31ZM197.766 49.14C196.86 49.14 196.142 48.846 195.61 48.258C195.078 47.6607 194.774 46.8813 194.7 45.92C194.69 45.78 194.686 45.5933 194.686 45.36C194.686 45.1267 194.69 44.94 194.7 44.8C194.746 44.1653 194.896 43.6053 195.148 43.12C195.4 42.6347 195.745 42.2567 196.184 41.986C196.632 41.7153 197.159 41.58 197.766 41.58C198.419 41.58 198.974 41.7247 199.432 42.014C199.889 42.3033 200.239 42.7187 200.482 43.26C200.734 43.8013 200.86 44.4453 200.86 45.192V45.402C200.86 45.4953 200.827 45.57 200.762 45.626C200.706 45.682 200.631 45.71 200.538 45.71H195.554C195.554 45.71 195.554 45.7287 195.554 45.766C195.554 45.8033 195.554 45.8313 195.554 45.85C195.572 46.27 195.67 46.6713 195.848 47.054C196.025 47.4273 196.277 47.7353 196.604 47.978C196.93 48.2113 197.318 48.328 197.766 48.328C198.167 48.328 198.498 48.2673 198.76 48.146C199.03 48.0247 199.245 47.894 199.404 47.754C199.562 47.6047 199.665 47.4927 199.712 47.418C199.796 47.2967 199.861 47.2267 199.908 47.208C199.954 47.18 200.029 47.166 200.132 47.166H200.356C200.44 47.166 200.51 47.194 200.566 47.25C200.631 47.2967 200.659 47.362 200.65 47.446C200.64 47.5767 200.566 47.74 200.426 47.936C200.295 48.1227 200.104 48.3093 199.852 48.496C199.609 48.6827 199.31 48.8367 198.956 48.958C198.601 49.0793 198.204 49.14 197.766 49.14ZM195.554 44.926H200.006V44.87C200.006 44.4033 199.917 43.9833 199.74 43.61C199.562 43.2367 199.306 42.9427 198.97 42.728C198.634 42.504 198.232 42.392 197.766 42.392C197.299 42.392 196.898 42.504 196.562 42.728C196.235 42.9427 195.983 43.2367 195.806 43.61C195.638 43.9833 195.554 44.4033 195.554 44.87V44.926ZM202.902 49C202.809 49 202.734 48.972 202.678 48.916C202.622 48.86 202.594 48.7853 202.594 48.692V48.02C202.594 47.9267 202.622 47.852 202.678 47.796C202.734 47.7307 202.809 47.698 202.902 47.698H203.574C203.668 47.698 203.742 47.7307 203.798 47.796C203.864 47.852 203.896 47.9267 203.896 48.02V48.692C203.896 48.7853 203.864 48.86 203.798 48.916C203.742 48.972 203.668 49 203.574 49H202.902ZM210.142 49C210.048 49 209.974 48.972 209.918 48.916C209.862 48.86 209.834 48.7853 209.834 48.692V39.522C209.834 39.4193 209.862 39.34 209.918 39.284C209.974 39.228 210.048 39.2 210.142 39.2H213.124C214.113 39.2 214.888 39.3447 215.448 39.634C216.008 39.9233 216.404 40.3527 216.638 40.922C216.88 41.482 217.006 42.168 217.016 42.98C217.025 43.4 217.03 43.7733 217.03 44.1C217.03 44.4173 217.025 44.786 217.016 45.206C216.997 46.0647 216.871 46.774 216.638 47.334C216.404 47.894 216.012 48.314 215.462 48.594C214.911 48.8647 214.155 49 213.194 49H210.142ZM210.716 48.16H213.124C213.87 48.16 214.458 48.062 214.888 47.866C215.326 47.6607 215.639 47.3387 215.826 46.9C216.022 46.452 216.124 45.864 216.134 45.136C216.143 44.856 216.148 44.6133 216.148 44.408C216.148 44.1933 216.148 43.9833 216.148 43.778C216.148 43.5727 216.143 43.33 216.134 43.05C216.115 42.0233 215.877 41.2673 215.42 40.782C214.962 40.2873 214.174 40.04 213.054 40.04H210.716V48.16ZM221.828 49.14C220.923 49.14 220.204 48.846 219.672 48.258C219.14 47.6607 218.837 46.8813 218.762 45.92C218.753 45.78 218.748 45.5933 218.748 45.36C218.748 45.1267 218.753 44.94 218.762 44.8C218.809 44.1653 218.958 43.6053 219.21 43.12C219.462 42.6347 219.808 42.2567 220.246 41.986C220.694 41.7153 221.222 41.58 221.828 41.58C222.482 41.58 223.037 41.7247 223.494 42.014C223.952 42.3033 224.302 42.7187 224.544 43.26C224.796 43.8013 224.922 44.4453 224.922 45.192V45.402C224.922 45.4953 224.89 45.57 224.824 45.626C224.768 45.682 224.694 45.71 224.6 45.71H219.616C219.616 45.71 219.616 45.7287 219.616 45.766C219.616 45.8033 219.616 45.8313 219.616 45.85C219.635 46.27 219.733 46.6713 219.91 47.054C220.088 47.4273 220.34 47.7353 220.666 47.978C220.993 48.2113 221.38 48.328 221.828 48.328C222.23 48.328 222.561 48.2673 222.822 48.146C223.093 48.0247 223.308 47.894 223.466 47.754C223.625 47.6047 223.728 47.4927 223.774 47.418C223.858 47.2967 223.924 47.2267 223.97 47.208C224.017 47.18 224.092 47.166 224.194 47.166H224.418C224.502 47.166 224.572 47.194 224.628 47.25C224.694 47.2967 224.722 47.362 224.712 47.446C224.703 47.5767 224.628 47.74 224.488 47.936C224.358 48.1227 224.166 48.3093 223.914 48.496C223.672 48.6827 223.373 48.8367 223.018 48.958C222.664 49.0793 222.267 49.14 221.828 49.14ZM219.616 44.926H224.068V44.87C224.068 44.4033 223.98 43.9833 223.802 43.61C223.625 43.2367 223.368 42.9427 223.032 42.728C222.696 42.504 222.295 42.392 221.828 42.392C221.362 42.392 220.96 42.504 220.624 42.728C220.298 42.9427 220.046 43.2367 219.868 43.61C219.7 43.9833 219.616 44.4033 219.616 44.87V44.926ZM229.164 49C228.679 49 228.296 48.8973 228.016 48.692C227.736 48.4867 227.54 48.2067 227.428 47.852C227.316 47.4973 227.26 47.1007 227.26 46.662V42.532H226.168C226.075 42.532 226 42.504 225.944 42.448C225.888 42.392 225.86 42.3173 225.86 42.224V42.028C225.86 41.9347 225.888 41.86 225.944 41.804C226 41.748 226.075 41.72 226.168 41.72H227.26V39.368C227.26 39.2747 227.288 39.2 227.344 39.144C227.4 39.088 227.475 39.06 227.568 39.06H227.806C227.899 39.06 227.974 39.088 228.03 39.144C228.086 39.2 228.114 39.2747 228.114 39.368V41.72H229.85C229.943 41.72 230.018 41.748 230.074 41.804C230.13 41.86 230.158 41.9347 230.158 42.028V42.224C230.158 42.3173 230.13 42.392 230.074 42.448C230.018 42.504 229.943 42.532 229.85 42.532H228.114V46.606C228.114 47.1007 228.193 47.488 228.352 47.768C228.52 48.048 228.814 48.188 229.234 48.188H229.99C230.083 48.188 230.158 48.216 230.214 48.272C230.27 48.328 230.298 48.4027 230.298 48.496V48.692C230.298 48.7853 230.27 48.86 230.214 48.916C230.158 48.972 230.083 49 229.99 49H229.164ZM233.705 49.14C233.257 49.14 232.842 49.0467 232.459 48.86C232.086 48.6733 231.783 48.426 231.549 48.118C231.316 47.8007 231.199 47.446 231.199 47.054C231.199 46.4193 231.456 45.9107 231.969 45.528C232.483 45.1453 233.15 44.898 233.971 44.786L236.183 44.478V43.988C236.183 43.4933 236.029 43.106 235.721 42.826C235.423 42.5367 234.942 42.392 234.279 42.392C233.794 42.392 233.402 42.49 233.103 42.686C232.805 42.8727 232.599 43.12 232.487 43.428C232.441 43.568 232.352 43.638 232.221 43.638H231.997C231.885 43.638 231.806 43.61 231.759 43.554C231.713 43.4887 231.689 43.414 231.689 43.33C231.689 43.1993 231.736 43.036 231.829 42.84C231.932 42.644 232.086 42.4527 232.291 42.266C232.497 42.07 232.763 41.9067 233.089 41.776C233.416 41.6453 233.813 41.58 234.279 41.58C234.83 41.58 235.283 41.6547 235.637 41.804C236.001 41.9533 236.281 42.1493 236.477 42.392C236.683 42.6253 236.827 42.8867 236.911 43.176C236.995 43.4653 237.037 43.75 237.037 44.03V48.692C237.037 48.7853 237.009 48.86 236.953 48.916C236.897 48.972 236.823 49 236.729 49H236.491C236.398 49 236.323 48.972 236.267 48.916C236.211 48.86 236.183 48.7853 236.183 48.692V48.034C236.071 48.202 235.913 48.37 235.707 48.538C235.502 48.706 235.236 48.8507 234.909 48.972C234.592 49.084 234.191 49.14 233.705 49.14ZM233.845 48.328C234.275 48.328 234.667 48.2347 235.021 48.048C235.376 47.8613 235.656 47.5767 235.861 47.194C236.076 46.802 236.183 46.312 236.183 45.724V45.248L234.377 45.5C233.612 45.6027 233.033 45.78 232.641 46.032C232.249 46.284 232.053 46.6013 232.053 46.984C232.053 47.292 232.142 47.544 232.319 47.74C232.497 47.936 232.721 48.0853 232.991 48.188C233.271 48.2813 233.556 48.328 233.845 48.328ZM239.559 49C239.466 49 239.391 48.972 239.335 48.916C239.279 48.86 239.251 48.7853 239.251 48.692V42.028C239.251 41.9347 239.279 41.86 239.335 41.804C239.391 41.748 239.466 41.72 239.559 41.72H239.797C239.891 41.72 239.965 41.748 240.021 41.804C240.077 41.86 240.105 41.9347 240.105 42.028V48.692C240.105 48.7853 240.077 48.86 240.021 48.916C239.965 48.972 239.891 49 239.797 49H239.559ZM239.405 40.222C239.312 40.222 239.237 40.194 239.181 40.138C239.125 40.082 239.097 40.0073 239.097 39.914V39.382C239.097 39.2887 239.125 39.214 239.181 39.158C239.237 39.0927 239.312 39.06 239.405 39.06H239.937C240.031 39.06 240.105 39.0927 240.161 39.158C240.227 39.214 240.259 39.2887 240.259 39.382V39.914C240.259 40.0073 240.227 40.082 240.161 40.138C240.105 40.194 240.031 40.222 239.937 40.222H239.405ZM242.69 49C242.597 49 242.522 48.972 242.466 48.916C242.41 48.86 242.382 48.7853 242.382 48.692V39.368C242.382 39.2747 242.41 39.2 242.466 39.144C242.522 39.088 242.597 39.06 242.69 39.06H242.928C243.022 39.06 243.096 39.088 243.152 39.144C243.208 39.2 243.236 39.2747 243.236 39.368V48.692C243.236 48.7853 243.208 48.86 243.152 48.916C243.096 48.972 243.022 49 242.928 49H242.69ZM247.823 49.14C247.338 49.14 246.918 49.0747 246.563 48.944C246.218 48.8133 245.933 48.6593 245.709 48.482C245.485 48.2953 245.317 48.1133 245.205 47.936C245.102 47.7587 245.046 47.6233 245.037 47.53C245.028 47.4273 245.06 47.3527 245.135 47.306C245.21 47.25 245.28 47.222 245.345 47.222H245.555C245.611 47.222 245.658 47.2313 245.695 47.25C245.742 47.2687 245.798 47.32 245.863 47.404C245.984 47.5627 246.124 47.7167 246.283 47.866C246.442 48.006 246.642 48.118 246.885 48.202C247.137 48.286 247.45 48.328 247.823 48.328C248.383 48.328 248.845 48.2207 249.209 48.006C249.573 47.7913 249.755 47.474 249.755 47.054C249.755 46.7927 249.68 46.5827 249.531 46.424C249.391 46.2653 249.148 46.1253 248.803 46.004C248.458 45.8827 247.991 45.7567 247.403 45.626C246.815 45.486 246.362 45.318 246.045 45.122C245.737 44.926 245.527 44.702 245.415 44.45C245.303 44.1887 245.247 43.9087 245.247 43.61C245.247 43.2833 245.34 42.966 245.527 42.658C245.714 42.3407 245.989 42.084 246.353 41.888C246.726 41.6827 247.193 41.58 247.753 41.58C248.21 41.58 248.598 41.6407 248.915 41.762C249.242 41.8833 249.508 42.0327 249.713 42.21C249.918 42.378 250.068 42.546 250.161 42.714C250.264 42.882 250.32 43.0173 250.329 43.12C250.338 43.2133 250.31 43.288 250.245 43.344C250.18 43.4 250.105 43.428 250.021 43.428H249.811C249.736 43.428 249.676 43.414 249.629 43.386C249.582 43.3487 249.54 43.302 249.503 43.246C249.41 43.0967 249.298 42.9567 249.167 42.826C249.036 42.6953 248.859 42.5927 248.635 42.518C248.42 42.434 248.126 42.392 247.753 42.392C247.193 42.392 246.778 42.5087 246.507 42.742C246.236 42.966 246.101 43.2553 246.101 43.61C246.101 43.8153 246.157 43.9973 246.269 44.156C246.381 44.3053 246.591 44.4453 246.899 44.576C247.207 44.6973 247.655 44.828 248.243 44.968C248.84 45.0987 249.312 45.262 249.657 45.458C250.002 45.6447 250.245 45.8687 250.385 46.13C250.534 46.3913 250.609 46.6993 250.609 47.054C250.609 47.4273 250.502 47.7727 250.287 48.09C250.082 48.4073 249.769 48.664 249.349 48.86C248.938 49.0467 248.43 49.14 247.823 49.14Z" fill="#222222"/>
<path d="M208.518 50.05H251.267V50.75H208.518V50.05Z" fill="#222222"/>
</svg>
